AfacadFlux-Regular.ufo
<glyph name="numbersign" format="2">
  <advance width="750"/>
  <unicode hex="0023"/>
  <outline>
    <contour>
      <point x="110" y="0" type="line"/>
      <point x="206" y="0" type="line"/>
      <point x="245" y="234" type="line"/>
      <point x="431" y="234" type="line"/>
      <point x="392" y="0" type="line"/>
      <point x="488" y="0" type="line"/>
      <point x="527" y="234" type="line"/>
      <point x="645" y="234" type="line"/>
      <point x="659" y="318" type="line"/>
      <point x="541" y="318" type="line"/>
      <point x="585" y="582" type="line"/>
      <point x="699" y="582" type="line"/>
      <point x="713" y="666" type="line"/>
      <point x="599" y="666" type="line"/>
      <point x="638" y="900" type="line"/>
      <point x="542" y="900" type="line"/>
      <point x="503" y="666" type="line"/>
      <point x="317" y="666" type="line"/>
      <point x="356" y="900" type="line"/>
      <point x="260" y="900" type="line"/>
      <point x="221" y="666" type="line"/>
      <point x="105" y="666" type="line"/>
      <point x="91" y="582" type="line"/>
      <point x="207" y="582" type="line"/>
      <point x="163" y="318" type="line"/>
      <point x="51" y="318" type="line"/>
      <point x="37" y="234" type="line"/>
      <point x="149" y="234" type="line"/>
    </contour>
    <contour>
      <point x="254" y="314" type="line"/>
      <point x="300" y="586" type="line"/>
      <point x="494" y="586" type="line"/>
      <point x="448" y="314" type="line"/>
    </contour>
  </outline>
</glyph>
<glyph name="dollar" format="2">
  <advance width="750"/>
  <unicode hex="0024"/>
  <outline>
    <contour>
      <point x="348" y="-120" type="line"/>
      <point x="432" y="-120" type="line"/>
      <point x="432" y="-5" type="line"/>
      <point x="558" y="21"/>
      <point x="645" y="121"/>
      <point x="645" y="253" type="curve" smooth="yes"/>
      <point x="645" y="412"/>
      <point x="518" y="476"/>
      <point x="464" y="503" type="curve" smooth="yes"/>
      <point x="352" y="559" type="line" smooth="yes"/>
      <point x="322" y="574"/>
      <point x="253" y="609"/>
      <point x="253" y="689" type="curve" smooth="yes"/>
      <point x="253" y="758"/>
      <point x="305" y="812"/>
      <point x="385" y="812" type="curve" smooth="yes"/>
      <point x="467" y="812"/>
      <point x="537" y="752"/>
      <point x="570" y="696" type="curve"/>
      <point x="603" y="834" type="line"/>
      <point x="568" y="865"/>
      <point x="508" y="899"/>
      <point x="432" y="909" type="curve"/>
      <point x="432" y="990" type="line"/>
      <point x="348" y="990" type="line"/>
      <point x="348" y="909" type="line"/>
      <point x="224" y="892"/>
      <point x="141" y="801"/>
      <point x="141" y="678" type="curve" smooth="yes"/>
      <point x="141" y="538"/>
      <point x="249" y="483"/>
      <point x="302" y="456" type="curve" smooth="yes"/>
      <point x="412" y="400" type="line" smooth="yes"/>
      <point x="446" y="383"/>
      <point x="533" y="341"/>
      <point x="533" y="246" type="curve" smooth="yes"/>
      <point x="533" y="158"/>
      <point x="464" y="90"/>
      <point x="369" y="90" type="curve" smooth="yes"/>
      <point x="265" y="90"/>
      <point x="188" y="161"/>
      <point x="151" y="236" type="curve"/>
      <point x="118" y="98" type="line"/>
      <point x="166" y="40"/>
      <point x="249" y="-7"/>
      <point x="348" y="-12" type="curve"/>
    </contour>
  </outline>
</glyph>
<glyph name="quotesingle" format="2">
  <advance width="270"/>
  <unicode hex="0027"/>
  <outline>
    <contour>
      <point x="102" y="570" type="line"/>
      <point x="168" y="570" type="line"/>
      <point x="204" y="900" type="line"/>
      <point x="66" y="900" type="line"/>
    </contour>
  </outline>
</glyph>
<glyph name="two" format="2">
  <advance width="750"/>
  <unicode hex="0032"/>
  <outline>
    <contour>
      <point x="119" y="0" type="line"/>
      <point x="649" y="0" type="line"/>
      <point x="649" y="102" type="line"/>
      <point x="309" y="102" type="line"/>
      <point x="569" y="479" type="line" smooth="yes"/>
      <point x="615" y="546"/>
      <point x="632" y="598"/>
      <point x="632" y="655" type="curve" smooth="yes"/>
      <point x="632" y="800"/>
      <point x="512" y="912"/>
      <point x="367" y="912" type="curve" smooth="yes"/>
      <point x="221" y="912"/>
      <point x="101" y="800"/>
      <point x="101" y="655" type="curve" smooth="yes"/>
      <point x="101" y="613"/>
      <point x="112" y="574"/>
      <point x="133" y="534" type="curve"/>
      <point x="270" y="534" type="line"/>
      <point x="229" y="567"/>
      <point x="209" y="609"/>
      <point x="209" y="655" type="curve" smooth="yes"/>
      <point x="209" y="741"/>
      <point x="278" y="810"/>
      <point x="366" y="810" type="curve" smooth="yes"/>
      <point x="454" y="810"/>
      <point x="524" y="741"/>
      <point x="524" y="655" type="curve" smooth="yes"/>
      <point x="524" y="623"/>
      <point x="514" y="587"/>
      <point x="480" y="537" type="curve" smooth="yes"/>
      <point x="119" y="2" type="line"/>
    </contour>
  </outline>
</glyph>
<glyph name="five" format="2">
  <advance width="750"/>
  <unicode hex="0035"/>
  <outline>
    <contour>
      <point x="342" y="-12" type="curve" smooth="yes"/>
      <point x="511" y="-12"/>
      <point x="654" y="121"/>
      <point x="654" y="293" type="curve" smooth="yes"/>
      <point x="654" y="464"/>
      <point x="517" y="592"/>
      <point x="355" y="592" type="curve" smooth="yes"/>
      <point x="328" y="592"/>
      <point x="299" y="588"/>
      <point x="272" y="576" type="curve"/>
      <point x="272" y="798" type="line"/>
      <point x="580" y="798" type="line"/>
      <point x="580" y="900" type="line"/>
      <point x="174" y="900" type="line"/>
      <point x="174" y="413" type="line"/>
      <point x="176" y="413" type="line"/>
      <point x="211" y="463"/>
      <point x="272" y="496"/>
      <point x="339" y="496" type="curve" smooth="yes"/>
      <point x="454" y="496"/>
      <point x="546" y="404"/>
      <point x="546" y="293" type="curve" smooth="yes"/>
      <point x="546" y="181"/>
      <point x="454" y="90"/>
      <point x="342" y="90" type="curve" smooth="yes"/>
      <point x="238" y="90"/>
      <point x="152" y="166"/>
      <point x="138" y="269" type="curve"/>
      <point x="72" y="138" type="line"/>
      <point x="127" y="45"/>
      <point x="227" y="-12"/>
    </contour>
  </outline>
</glyph>
<glyph name="six" format="2">
  <advance width="750"/>
  <unicode hex="0036"/>
  <outline>
    <contour>
      <point x="381" y="-12" type="curve" smooth="yes"/>
      <point x="557" y="-12"/>
      <point x="696" y="121"/>
      <point x="696" y="294" type="curve" smooth="yes"/>
      <point x="696" y="466"/>
      <point x="562" y="594"/>
      <point x="398" y="594" type="curve" smooth="yes"/>
      <point x="358" y="594"/>
      <point x="319" y="586"/>
      <point x="282" y="557" type="curve"/>
      <point x="468" y="900" type="line"/>
      <point x="344" y="900" type="line"/>
      <point x="103" y="440" type="line" smooth="yes"/>
      <point x="80" y="396"/>
      <point x="66" y="345"/>
      <point x="66" y="293" type="curve" smooth="yes"/>
      <point x="66" y="121"/>
      <point x="205" y="-12"/>
    </contour>
    <contour>
      <point x="382" y="90" type="curve" smooth="yes"/>
      <point x="267" y="90"/>
      <point x="176" y="182"/>
      <point x="176" y="295" type="curve" smooth="yes"/>
      <point x="176" y="407"/>
      <point x="267" y="500"/>
      <point x="382" y="500" type="curve" smooth="yes"/>
      <point x="498" y="500"/>
      <point x="588" y="407"/>
      <point x="588" y="295" type="curve" smooth="yes"/>
      <point x="588" y="182"/>
      <point x="497" y="90"/>
    </contour>
  </outline>
</glyph>
<glyph name="seven" format="2">
  <advance width="750"/>
  <unicode hex="0037"/>
  <outline>
    <contour>
      <point x="128" y="0" type="line"/>
      <point x="250" y="0" type="line"/>
      <point x="695" y="898" type="line"/>
      <point x="695" y="900" type="line"/>
      <point x="96" y="900" type="line"/>
      <point x="96" y="798" type="line"/>
      <point x="526" y="798" type="line"/>
    </contour>
  </outline>
</glyph>
<glyph name="less" format="2">
  <advance width="750"/>
  <unicode hex="003C"/>
  <outline>
    <contour>
      <point x="660" y="157" type="line"/>
      <point x="660" y="255" type="line"/>
      <point x="360" y="399" type="line" smooth="yes"/>
      <point x="323" y="417"/>
      <point x="280" y="434"/>
      <point x="239" y="450" type="curve"/>
      <point x="280" y="467"/>
      <point x="323" y="484"/>
      <point x="360" y="502" type="curve" smooth="yes"/>
      <point x="660" y="647" type="line"/>
      <point x="660" y="743" type="line"/>
      <point x="60" y="451" type="line"/>
      <point x="60" y="449" type="line"/>
    </contour>
  </outline>
</glyph>
<glyph name="equal" format="2">
  <advance width="750"/>
  <unicode hex="003D"/>
  <outline>
    <contour>
      <point x="90" y="519" type="line"/>
      <point x="660" y="519" type="line"/>
      <point x="660" y="609" type="line"/>
      <point x="90" y="609" type="line"/>
    </contour>
    <contour>
      <point x="90" y="291" type="line"/>
      <point x="660" y="291" type="line"/>
      <point x="660" y="381" type="line"/>
      <point x="90" y="381" type="line"/>
    </contour>
  </outline>
</glyph>
<glyph name="greater" format="2">
  <advance width="750"/>
  <unicode hex="003E"/>
  <outline>
    <contour>
      <point x="90" y="157" type="line"/>
      <point x="690" y="449" type="line"/>
      <point x="690" y="451" type="line"/>
      <point x="90" y="743" type="line"/>
      <point x="90" y="645" type="line"/>
      <point x="390" y="501" type="line" smooth="yes"/>
      <point x="427" y="483"/>
      <point x="470" y="466"/>
      <point x="511" y="450" type="curve"/>
      <point x="470" y="433"/>
      <point x="427" y="416"/>
      <point x="390" y="398" type="curve" smooth="yes"/>
      <point x="90" y="253" type="line"/>
    </contour>
  </outline>
</glyph>
<glyph name="A" format="2">
  <advance width="800"/>
  <unicode hex="0041"/>
  <anchor x="400" y="0" name="bottom"/>
  <anchor x="722" y="0" name="ogonek"/>
  <anchor x="400" y="900" name="top"/>
  <anchor x="120" y="720" name="top-vertical"/>
  <outline>
    <contour>
      <point x="18" y="0" type="line"/>
      <point x="133" y="0" type="line"/>
      <point x="240" y="266" type="line"/>
      <point x="555" y="266" type="line"/>
      <point x="661" y="0" type="line"/>
      <point x="782" y="0" type="line"/>
      <point x="401" y="930" type="line"/>
      <point x="399" y="930" type="line"/>
    </contour>
    <contour>
      <point x="278" y="362" type="line"/>
      <point x="349" y="540" type="line" smooth="yes"/>
      <point x="367" y="586"/>
      <point x="381" y="624"/>
      <point x="397" y="686" type="curve"/>
      <point x="413" y="624"/>
      <point x="428" y="585"/>
      <point x="446" y="540" type="curve" smooth="yes"/>
      <point x="517" y="362" type="line"/>
    </contour>
  </outline>
</glyph>
<glyph name="B" format="2">
  <advance width="750"/>
  <unicode hex="0042"/>
  <outline>
    <contour>
      <point x="126" y="0" type="line"/>
      <point x="378" y="0" type="line" smooth="yes"/>
      <point x="582" y="0"/>
      <point x="690" y="144"/>
      <point x="690" y="287" type="curve" smooth="yes"/>
      <point x="690" y="399"/>
      <point x="623" y="492"/>
      <point x="526" y="536" type="curve"/>
      <point x="577" y="570"/>
      <point x="609" y="627"/>
      <point x="609" y="692" type="curve" smooth="yes"/>
      <point x="609" y="778"/>
      <point x="549" y="900"/>
      <point x="378" y="900" type="curve" smooth="yes"/>
      <point x="126" y="900" type="line"/>
    </contour>
    <contour>
      <point x="240" y="102" type="line"/>
      <point x="240" y="480" type="line"/>
      <point x="370" y="480" type="line" smooth="yes"/>
      <point x="521" y="480"/>
      <point x="576" y="375"/>
      <point x="576" y="291" type="curve" smooth="yes"/>
      <point x="576" y="204"/>
      <point x="517" y="102"/>
      <point x="370" y="102" type="curve" smooth="yes"/>
    </contour>
    <contour>
      <point x="240" y="576" type="line"/>
      <point x="240" y="798" type="line"/>
      <point x="373" y="798" type="line" smooth="yes"/>
      <point x="448" y="798"/>
      <point x="501" y="759"/>
      <point x="501" y="686" type="curve" smooth="yes"/>
      <point x="501" y="615"/>
      <point x="448" y="576"/>
      <point x="369" y="576" type="curve" smooth="yes"/>
    </contour>
  </outline>
</glyph>
<glyph name="N" format="2">
  <advance width="990"/>
  <unicode hex="004E"/>
  <anchor x="495" y="0" name="bottom"/>
  <anchor x="465" y="840" name="top"/>
  <outline>
    <contour>
      <point x="862" y="-30" type="line"/>
      <point x="864" y="-30" type="line"/>
      <point x="864" y="900" type="line"/>
      <point x="756" y="900" type="line"/>
      <point x="756" y="255" type="line"/>
      <point x="128" y="930" type="line"/>
      <point x="126" y="930" type="line"/>
      <point x="126" y="0" type="line"/>
      <point x="234" y="0" type="line"/>
      <point x="234" y="645" type="line"/>
    </contour>
  </outline>
</glyph>
<glyph name="Q" format="2">
  <advance width="1060"/>
  <unicode hex="0051"/>
  <outline>
    <contour>
      <point x="863" y="-30" type="line"/>
      <point x="993" y="-30" type="line"/>
      <point x="866" y="123" type="line"/>
      <point x="949" y="207"/>
      <point x="1000" y="322"/>
      <point x="1000" y="450" type="curve" smooth="yes"/>
      <point x="1000" y="709"/>
      <point x="790" y="918"/>
      <point x="530" y="918" type="curve" smooth="yes"/>
      <point x="270" y="918"/>
      <point x="60" y="709"/>
      <point x="60" y="450" type="curve" smooth="yes"/>
      <point x="60" y="191"/>
      <point x="270" y="-18"/>
      <point x="530" y="-18" type="curve" smooth="yes"/>
      <point x="626" y="-18"/>
      <point x="715" y="10"/>
      <point x="789" y="59" type="curve"/>
    </contour>
    <contour>
      <point x="530" y="90" type="curve" smooth="yes"/>
      <point x="332" y="90"/>
      <point x="178" y="251"/>
      <point x="178" y="450" type="curve" smooth="yes"/>
      <point x="178" y="649"/>
      <point x="332" y="810"/>
      <point x="530" y="810" type="curve" smooth="yes"/>
      <point x="728" y="810"/>
      <point x="882" y="649"/>
      <point x="882" y="450" type="curve" smooth="yes"/>
      <point x="882" y="358"/>
      <point x="849" y="274"/>
      <point x="794" y="210" type="curve"/>
      <point x="594" y="450" type="line"/>
      <point x="460" y="450" type="line"/>
      <point x="715" y="143" type="line"/>
      <point x="662" y="109"/>
      <point x="599" y="90"/>
    </contour>
  </outline>
</glyph>
<glyph name="R" format="2">
  <advance width="780"/>
  <unicode hex="0052"/>
  <anchor x="439" y="0" name="bottom"/>
  <anchor x="325" y="900" name="top"/>
  <outline>
    <contour>
      <point x="129" y="0" type="line"/>
      <point x="243" y="0" type="line"/>
      <point x="243" y="414" type="line"/>
      <point x="355" y="414" type="line"/>
      <point x="641" y="0" type="line"/>
      <point x="774" y="0" type="line"/>
      <point x="472" y="435" type="line"/>
      <point x="569" y="472"/>
      <point x="629" y="556"/>
      <point x="629" y="655" type="curve" smooth="yes"/>
      <point x="629" y="787"/>
      <point x="524" y="900"/>
      <point x="355" y="900" type="curve" smooth="yes"/>
      <point x="129" y="900" type="line"/>
    </contour>
    <contour>
      <point x="243" y="510" type="line"/>
      <point x="243" y="798" type="line"/>
      <point x="355" y="798" type="line" smooth="yes"/>
      <point x="455" y="798"/>
      <point x="521" y="739"/>
      <point x="521" y="655" type="curve" smooth="yes"/>
      <point x="521" y="585"/>
      <point x="470" y="510"/>
      <point x="355" y="510" type="curve" smooth="yes"/>
    </contour>
  </outline>
</glyph>
<glyph name="T" format="2">
  <advance width="690"/>
  <unicode hex="0054"/>
  <anchor x="345" y="0" name="bottom"/>
  <anchor x="345" y="450" name="center"/>
  <anchor x="345" y="900" name="top"/>
  <outline>
    <contour>
      <point x="288" y="0" type="line"/>
      <point x="402" y="0" type="line"/>
      <point x="402" y="798" type="line"/>
      <point x="642" y="798" type="line"/>
      <point x="642" y="900" type="line"/>
      <point x="48" y="900" type="line"/>
      <point x="48" y="798" type="line"/>
      <point x="288" y="798" type="line"/>
    </contour>
  </outline>
</glyph>
<glyph name="V" format="2">
  <advance width="750"/>
  <unicode hex="0056"/>
  <outline>
    <contour>
      <point x="374" y="-30" type="line"/>
      <point x="376" y="-30" type="line"/>
      <point x="738" y="900" type="line"/>
      <point x="625" y="900" type="line"/>
      <point x="414" y="358" type="line" smooth="yes"/>
      <point x="401" y="323"/>
      <point x="390" y="295"/>
      <point x="379" y="254" type="curve"/>
      <point x="368" y="295"/>
      <point x="357" y="323"/>
      <point x="344" y="358" type="curve" smooth="yes"/>
      <point x="132" y="900" type="line"/>
      <point x="12" y="900" type="line"/>
    </contour>
  </outline>
</glyph>
<glyph name="W" format="2">
  <advance width="1200"/>
  <unicode hex="0057"/>
  <anchor x="601" y="0" name="bottom"/>
  <anchor x="604" y="900" name="top"/>
  <outline>
    <contour>
      <point x="358" y="-30" type="line"/>
      <point x="360" y="-30" type="line"/>
      <point x="568" y="554" type="line" smooth="yes"/>
      <point x="580" y="588"/>
      <point x="590" y="616"/>
      <point x="601" y="667" type="curve"/>
      <point x="611" y="616"/>
      <point x="622" y="588"/>
      <point x="634" y="554" type="curve" smooth="yes"/>
      <point x="841" y="-30" type="line"/>
      <point x="843" y="-30" type="line"/>
      <point x="1188" y="900" type="line"/>
      <point x="1080" y="900" type="line"/>
      <point x="876" y="360" type="line" smooth="yes"/>
      <point x="863" y="326"/>
      <point x="853" y="297"/>
      <point x="842" y="246" type="curve"/>
      <point x="832" y="297"/>
      <point x="821" y="326"/>
      <point x="809" y="360" type="curve" smooth="yes"/>
      <point x="605" y="930" type="line"/>
      <point x="603" y="930" type="line"/>
      <point x="398" y="360" type="line" smooth="yes"/>
      <point x="384" y="322"/>
      <point x="375" y="293"/>
      <point x="365" y="246" type="curve"/>
      <point x="354" y="293"/>
      <point x="346" y="322"/>
      <point x="332" y="360" type="curve" smooth="yes"/>
      <point x="128" y="900" type="line"/>
      <point x="12" y="900" type="line"/>
    </contour>
  </outline>
</glyph>
<glyph name="X" format="2">
  <advance width="870"/>
  <unicode hex="0058"/>
  <outline>
    <contour>
      <point x="6" y="0" type="line"/>
      <point x="139" y="0" type="line"/>
      <point x="343" y="300" type="line" smooth="yes"/>
      <point x="371" y="342"/>
      <point x="400" y="383"/>
      <point x="433" y="446" type="curve"/>
      <point x="466" y="383"/>
      <point x="495" y="342"/>
      <point x="523" y="300" type="curve" smooth="yes"/>
      <point x="725" y="0" type="line"/>
      <point x="864" y="0" type="line"/>
      <point x="503" y="526" type="line"/>
      <point x="762" y="900" type="line"/>
      <point x="633" y="900" type="line"/>
      <point x="510" y="720" type="line" smooth="yes"/>
      <point x="484" y="683"/>
      <point x="461" y="645"/>
      <point x="437" y="597" type="curve"/>
      <point x="413" y="645"/>
      <point x="389" y="683"/>
      <point x="364" y="720" type="curve" smooth="yes"/>
      <point x="243" y="900" type="line"/>
      <point x="108" y="900" type="line"/>
      <point x="367" y="522" type="line"/>
    </contour>
  </outline>
</glyph>
<glyph name="Y" format="2">
  <advance width="690"/>
  <unicode hex="0059"/>
  <anchor x="346" y="0" name="bottom"/>
  <anchor x="346" y="900" name="top"/>
  <anchor x="23" y="900" name="topleft"/>
  <outline>
    <contour>
      <point x="288" y="0" type="line"/>
      <point x="402" y="0" type="line"/>
      <point x="402" y="435" type="line"/>
      <point x="672" y="900" type="line"/>
      <point x="552" y="900" type="line"/>
      <point x="403" y="638" type="line" smooth="yes"/>
      <point x="384" y="604"/>
      <point x="367" y="574"/>
      <point x="350" y="532" type="curve"/>
      <point x="333" y="574"/>
      <point x="316" y="605"/>
      <point x="298" y="638" type="curve" smooth="yes"/>
      <point x="150" y="900" type="line"/>
      <point x="18" y="900" type="line"/>
      <point x="288" y="435" type="line"/>
    </contour>
  </outline>
</glyph>
<glyph name="Z" format="2">
  <advance width="660"/>
  <unicode hex="005A"/>
  <anchor x="315" y="0" name="bottom"/>
  <anchor x="324" y="450" name="center"/>
  <anchor x="345" y="900" name="top"/>
  <outline>
    <contour>
      <point x="42" y="0" type="line"/>
      <point x="588" y="0" type="line"/>
      <point x="588" y="102" type="line"/>
      <point x="211" y="102" type="line"/>
      <point x="606" y="898" type="line"/>
      <point x="606" y="900" type="line"/>
      <point x="84" y="900" type="line"/>
      <point x="84" y="798" type="line"/>
      <point x="437" y="798" type="line"/>
      <point x="42" y="2" type="line"/>
    </contour>
  </outline>
</glyph>
<glyph name="backslash" format="2">
  <advance width="480"/>
  <unicode hex="005C"/>
  <outline>
    <contour>
      <point x="462" y="-180" type="line"/>
      <point x="564" y="-180" type="line"/>
      <point x="18" y="960" type="line"/>
      <point x="-84" y="960" type="line"/>
    </contour>
  </outline>
</glyph>
<glyph name="asciicircum" format="2">
  <advance width="750"/>
  <unicode hex="005E"/>
  <outline>
    <contour>
      <point x="82" y="192" type="line"/>
      <point x="178" y="192" type="line"/>
      <point x="323" y="492" type="line" smooth="yes"/>
      <point x="341" y="529"/>
      <point x="358" y="572"/>
      <point x="375" y="613" type="curve"/>
      <point x="391" y="572"/>
      <point x="408" y="529"/>
      <point x="426" y="492" type="curve" smooth="yes"/>
      <point x="570" y="192" type="line"/>
      <point x="668" y="192" type="line"/>
      <point x="377" y="792" type="line"/>
      <point x="375" y="792" type="line"/>
    </contour>
  </outline>
</glyph>
<glyph name="underscore" format="2">
  <advance width="750"/>
  <unicode hex="005F"/>
  <outline>
    <contour>
      <point x="-6" y="-180" type="line"/>
      <point x="756" y="-180" type="line"/>
      <point x="756" y="-90" type="line"/>
      <point x="-6" y="-90" type="line"/>
    </contour>
  </outline>
</glyph>
<glyph name="a" format="2">
  <advance width="760"/>
  <unicode hex="0061"/>
  <anchor x="371" y="0" name="bottom"/>
  <anchor x="614" y="0" name="ogonek"/>
  <anchor x="371" y="600" name="top"/>
  <outline>
    <contour>
      <point x="353" y="-8" type="curve" smooth="yes"/>
      <point x="436" y="-8"/>
      <point x="510" y="25"/>
      <point x="564" y="79" type="curve"/>
      <point x="564" y="0" type="line"/>
      <point x="664" y="0" type="line"/>
      <point x="664" y="600" type="line"/>
      <point x="564" y="600" type="line"/>
      <point x="564" y="521" type="line"/>
      <point x="510" y="575"/>
      <point x="436" y="608"/>
      <point x="353" y="608" type="curve" smooth="yes"/>
      <point x="188" y="608"/>
      <point x="54" y="470"/>
      <point x="54" y="300" type="curve" smooth="yes"/>
      <point x="54" y="130"/>
      <point x="188" y="-8"/>
    </contour>
    <contour>
      <point x="367" y="90" type="curve" smooth="yes"/>
      <point x="253" y="90"/>
      <point x="162" y="184"/>
      <point x="162" y="300" type="curve" smooth="yes"/>
      <point x="162" y="416"/>
      <point x="253" y="510"/>
      <point x="367" y="510" type="curve" smooth="yes"/>
      <point x="481" y="510"/>
      <point x="572" y="416"/>
      <point x="572" y="300" type="curve" smooth="yes"/>
      <point x="572" y="184"/>
      <point x="481" y="90"/>
    </contour>
  </outline>
</glyph>
<glyph name="b" format="2">
  <advance width="760"/>
  <unicode hex="0062"/>
  <anchor x="390" y="0" name="bottom"/>
  <anchor x="390" y="914" name="top"/>
  <outline>
    <contour>
      <point x="407" y="-8" type="curve" smooth="yes"/>
      <point x="572" y="-8"/>
      <point x="706" y="130"/>
      <point x="706" y="300" type="curve" smooth="yes"/>
      <point x="706" y="470"/>
      <point x="572" y="608"/>
      <point x="407" y="608" type="curve" smooth="yes"/>
      <point x="328" y="608"/>
      <point x="257" y="578"/>
      <point x="204" y="529" type="curve"/>
      <point x="204" y="960" type="line"/>
      <point x="96" y="960" type="line"/>
      <point x="96" y="0" type="line"/>
      <point x="196" y="0" type="line"/>
      <point x="196" y="79" type="line"/>
      <point x="250" y="25"/>
      <point x="324" y="-8"/>
    </contour>
    <contour>
      <point x="393" y="90" type="curve" smooth="yes"/>
      <point x="279" y="90"/>
      <point x="188" y="184"/>
      <point x="188" y="300" type="curve" smooth="yes"/>
      <point x="188" y="416"/>
      <point x="279" y="510"/>
      <point x="393" y="510" type="curve" smooth="yes"/>
      <point x="507" y="510"/>
      <point x="598" y="416"/>
      <point x="598" y="300" type="curve" smooth="yes"/>
      <point x="598" y="184"/>
      <point x="507" y="90"/>
    </contour>
  </outline>
</glyph>
<glyph name="d" format="2">
  <advance width="760"/>
  <unicode hex="0064"/>
  <anchor x="371" y="0" name="bottom"/>
  <anchor x="610" y="780" name="center"/>
  <anchor x="371" y="600" name="top"/>
  <anchor x="694" y="960" name="topright"/>
  <outline>
    <contour>
      <point x="353" y="-8" type="curve" smooth="yes"/>
      <point x="436" y="-8"/>
      <point x="510" y="25"/>
      <point x="564" y="79" type="curve"/>
      <point x="564" y="0" type="line"/>
      <point x="664" y="0" type="line"/>
      <point x="664" y="960" type="line"/>
      <point x="556" y="960" type="line"/>
      <point x="556" y="529" type="line"/>
      <point x="503" y="578"/>
      <point x="432" y="608"/>
      <point x="353" y="608" type="curve" smooth="yes"/>
      <point x="188" y="608"/>
      <point x="54" y="470"/>
      <point x="54" y="300" type="curve" smooth="yes"/>
      <point x="54" y="130"/>
      <point x="188" y="-8"/>
    </contour>
    <contour>
      <point x="367" y="90" type="curve" smooth="yes"/>
      <point x="253" y="90"/>
      <point x="162" y="184"/>
      <point x="162" y="300" type="curve" smooth="yes"/>
      <point x="162" y="416"/>
      <point x="253" y="510"/>
      <point x="367" y="510" type="curve" smooth="yes"/>
      <point x="481" y="510"/>
      <point x="572" y="416"/>
      <point x="572" y="300" type="curve" smooth="yes"/>
      <point x="572" y="184"/>
      <point x="481" y="90"/>
    </contour>
  </outline>
</glyph>
<glyph name="e" format="2">
  <advance width="710"/>
  <unicode hex="0065"/>
  <anchor x="358" y="0" name="bottom"/>
  <anchor x="498" y="0" name="ogonek"/>
  <anchor x="358" y="600" name="top"/>
  <outline>
    <contour>
      <point x="382" y="-12" type="curve" smooth="yes"/>
      <point x="464" y="-12"/>
      <point x="540" y="15"/>
      <point x="598" y="62" type="curve"/>
      <point x="568" y="185" type="line"/>
      <point x="528" y="128"/>
      <point x="459" y="90"/>
      <point x="383" y="90" type="curve" smooth="yes"/>
      <point x="269" y="90"/>
      <point x="178" y="171"/>
      <point x="164" y="278" type="curve"/>
      <point x="199" y="273"/>
      <point x="235" y="270"/>
      <point x="270" y="270" type="curve" smooth="yes"/>
      <point x="662" y="270" type="line"/>
      <point x="662" y="314" type="line" smooth="yes"/>
      <point x="662" y="483"/>
      <point x="525" y="612"/>
      <point x="359" y="612" type="curve" smooth="yes"/>
      <point x="190" y="612"/>
      <point x="54" y="476"/>
      <point x="54" y="306" type="curve" smooth="yes"/>
      <point x="54" y="127"/>
      <point x="193" y="-12"/>
    </contour>
    <contour>
      <point x="161" y="351" type="curve"/>
      <point x="181" y="442"/>
      <point x="261" y="516"/>
      <point x="359" y="516" type="curve" smooth="yes"/>
      <point x="454" y="516"/>
      <point x="537" y="448"/>
      <point x="556" y="355" type="curve"/>
      <point x="527" y="358"/>
      <point x="498" y="360"/>
      <point x="469" y="360" type="curve" smooth="yes"/>
      <point x="270" y="360" type="line" smooth="yes"/>
      <point x="234" y="360"/>
      <point x="197" y="357"/>
    </contour>
  </outline>
</glyph>
<glyph name="k" format="2">
  <advance width="630"/>
  <unicode hex="006B"/>
  <anchor x="330" y="0" name="bottom"/>
  <anchor x="150" y="960" name="top"/>
  <outline>
    <contour>
      <point x="487" y="0" type="line"/>
      <point x="624" y="0" type="line"/>
      <point x="345" y="338" type="line"/>
      <point x="564" y="600" type="line"/>
      <point x="439" y="600" type="line"/>
      <point x="216" y="330" type="line"/>
    </contour>
    <contour>
      <point x="96" y="0" type="line"/>
      <point x="204" y="0" type="line"/>
      <point x="204" y="960" type="line"/>
      <point x="96" y="960" type="line"/>
    </contour>
  </outline>
</glyph>
<glyph name="m" format="2">
  <advance width="1120"/>
  <unicode hex="006D"/>
  <anchor x="566" y="0" name="bottom"/>
  <anchor x="566" y="600" name="top"/>
  <outline>
    <contour>
      <point x="96" y="0" type="line"/>
      <point x="204" y="0" type="line"/>
      <point x="204" y="345" type="line" smooth="yes"/>
      <point x="204" y="462"/>
      <point x="284" y="510"/>
      <point x="358" y="510" type="curve" smooth="yes"/>
      <point x="434" y="510"/>
      <point x="512" y="455"/>
      <point x="512" y="342" type="curve" smooth="yes"/>
      <point x="512" y="0" type="line"/>
      <point x="620" y="0" type="line"/>
      <point x="620" y="345" type="line" smooth="yes"/>
      <point x="620" y="461"/>
      <point x="698" y="509"/>
      <point x="774" y="509" type="curve" smooth="yes"/>
      <point x="855" y="509"/>
      <point x="928" y="451"/>
      <point x="928" y="342" type="curve" smooth="yes"/>
      <point x="928" y="0" type="line"/>
      <point x="1036" y="0" type="line"/>
      <point x="1036" y="355" type="line" smooth="yes"/>
      <point x="1036" y="511"/>
      <point x="924" y="612"/>
      <point x="788" y="612" type="curve" smooth="yes"/>
      <point x="705" y="612"/>
      <point x="626" y="576"/>
      <point x="580" y="504" type="curve"/>
      <point x="538" y="572"/>
      <point x="467" y="612"/>
      <point x="386" y="612" type="curve" smooth="yes"/>
      <point x="311" y="612"/>
      <point x="240" y="579"/>
      <point x="196" y="514" type="curve"/>
      <point x="196" y="600" type="line"/>
      <point x="96" y="600" type="line"/>
    </contour>
  </outline>
</glyph>
<glyph name="n" format="2">
  <advance width="720"/>
  <unicode hex="006E"/>
  <anchor x="360" y="0" name="bottom"/>
  <anchor x="360" y="600" name="top"/>
  <outline>
    <contour>
      <point x="96" y="0" type="line"/>
      <point x="204" y="0" type="line"/>
      <point x="204" y="333" type="line" smooth="yes"/>
      <point x="204" y="448"/>
      <point x="282" y="510"/>
      <point x="366" y="510" type="curve" smooth="yes"/>
      <point x="469" y="510"/>
      <point x="528" y="425"/>
      <point x="528" y="330" type="curve" smooth="yes"/>
      <point x="528" y="0" type="line"/>
      <point x="636" y="0" type="line"/>
      <point x="636" y="345" type="line" smooth="yes"/>
      <point x="636" y="514"/>
      <point x="522" y="612"/>
      <point x="395" y="612" type="curve" smooth="yes"/>
      <point x="314" y="612"/>
      <point x="240" y="574"/>
      <point x="196" y="503" type="curve"/>
      <point x="196" y="600" type="line"/>
      <point x="96" y="600" type="line"/>
    </contour>
  </outline>
</glyph>
<glyph name="p" format="2">
  <advance width="760"/>
  <unicode hex="0070"/>
  <anchor x="390" y="0" name="bottom"/>
  <anchor x="390" y="600" name="top"/>
  <outline>
    <contour>
      <point x="96" y="-300" type="line"/>
      <point x="204" y="-300" type="line"/>
      <point x="204" y="71" type="line"/>
      <point x="257" y="22"/>
      <point x="328" y="-8"/>
      <point x="407" y="-8" type="curve" smooth="yes"/>
      <point x="572" y="-8"/>
      <point x="706" y="130"/>
      <point x="706" y="300" type="curve" smooth="yes"/>
      <point x="706" y="470"/>
      <point x="572" y="608"/>
      <point x="407" y="608" type="curve" smooth="yes"/>
      <point x="324" y="608"/>
      <point x="250" y="575"/>
      <point x="196" y="521" type="curve"/>
      <point x="196" y="600" type="line"/>
      <point x="96" y="600" type="line"/>
    </contour>
    <contour>
      <point x="393" y="90" type="curve" smooth="yes"/>
      <point x="279" y="90"/>
      <point x="188" y="184"/>
      <point x="188" y="300" type="curve" smooth="yes"/>
      <point x="188" y="416"/>
      <point x="279" y="510"/>
      <point x="393" y="510" type="curve" smooth="yes"/>
      <point x="507" y="510"/>
      <point x="598" y="416"/>
      <point x="598" y="300" type="curve" smooth="yes"/>
      <point x="598" y="184"/>
      <point x="507" y="90"/>
    </contour>
  </outline>
</glyph>
<glyph name="q" format="2">
  <advance width="760"/>
  <unicode hex="0071"/>
  <outline>
    <contour>
      <point x="556" y="-300" type="line"/>
      <point x="664" y="-300" type="line"/>
      <point x="664" y="600" type="line"/>
      <point x="564" y="600" type="line"/>
      <point x="564" y="521" type="line"/>
      <point x="510" y="575"/>
      <point x="436" y="608"/>
      <point x="353" y="608" type="curve" smooth="yes"/>
      <point x="188" y="608"/>
      <point x="54" y="470"/>
      <point x="54" y="300" type="curve" smooth="yes"/>
      <point x="54" y="130"/>
      <point x="188" y="-8"/>
      <point x="353" y="-8" type="curve" smooth="yes"/>
      <point x="432" y="-8"/>
      <point x="503" y="22"/>
      <point x="556" y="71" type="curve"/>
    </contour>
    <contour>
      <point x="367" y="90" type="curve" smooth="yes"/>
      <point x="253" y="90"/>
      <point x="162" y="184"/>
      <point x="162" y="300" type="curve" smooth="yes"/>
      <point x="162" y="416"/>
      <point x="253" y="510"/>
      <point x="367" y="510" type="curve" smooth="yes"/>
      <point x="481" y="510"/>
      <point x="572" y="416"/>
      <point x="572" y="300" type="curve" smooth="yes"/>
      <point x="572" y="184"/>
      <point x="481" y="90"/>
    </contour>
  </outline>
</glyph>
<glyph name="u" format="2">
  <advance width="720"/>
  <unicode hex="0075"/>
  <anchor x="360" y="0" name="bottom"/>
  <anchor x="574" y="0" name="ogonek"/>
  <anchor x="360" y="600" name="top"/>
  <anchor x="570" y="600" name="topright"/>
  <outline>
    <contour>
      <point x="325" y="-12" type="curve" smooth="yes"/>
      <point x="406" y="-12"/>
      <point x="480" y="26"/>
      <point x="524" y="97" type="curve"/>
      <point x="524" y="0" type="line"/>
      <point x="624" y="0" type="line"/>
      <point x="624" y="600" type="line"/>
      <point x="516" y="600" type="line"/>
      <point x="516" y="267" type="line" smooth="yes"/>
      <point x="516" y="152"/>
      <point x="438" y="90"/>
      <point x="354" y="90" type="curve" smooth="yes"/>
      <point x="251" y="90"/>
      <point x="192" y="175"/>
      <point x="192" y="270" type="curve" smooth="yes"/>
      <point x="192" y="600" type="line"/>
      <point x="84" y="600" type="line"/>
      <point x="84" y="255" type="line" smooth="yes"/>
      <point x="84" y="86"/>
      <point x="198" y="-12"/>
    </contour>
  </outline>
</glyph>
<glyph name="v" format="2">
  <advance width="630"/>
  <unicode hex="0076"/>
  <outline>
    <contour>
      <point x="314" y="-30" type="line"/>
      <point x="316" y="-30" type="line"/>
      <point x="618" y="600" type="line"/>
      <point x="503" y="600" type="line"/>
      <point x="380" y="340" type="line" smooth="yes"/>
      <point x="358" y="294"/>
      <point x="338" y="253"/>
      <point x="318" y="188" type="curve"/>
      <point x="299" y="253"/>
      <point x="279" y="293"/>
      <point x="257" y="340" type="curve" smooth="yes"/>
      <point x="135" y="600" type="line"/>
      <point x="12" y="600" type="line"/>
    </contour>
  </outline>
</glyph>
<glyph name="w" format="2">
  <advance width="1000"/>
  <unicode hex="0077"/>
  <anchor x="500" y="0" name="bottom"/>
  <anchor x="504" y="600" name="top"/>
  <outline>
    <contour>
      <point x="314" y="-30" type="line"/>
      <point x="316" y="-30" type="line"/>
      <point x="436" y="238" type="line" smooth="yes"/>
      <point x="458" y="286"/>
      <point x="480" y="328"/>
      <point x="500" y="395" type="curve"/>
      <point x="521" y="328"/>
      <point x="541" y="286"/>
      <point x="563" y="238" type="curve" smooth="yes"/>
      <point x="684" y="-30" type="line"/>
      <point x="686" y="-30" type="line"/>
      <point x="988" y="600" type="line"/>
      <point x="873" y="600" type="line"/>
      <point x="750" y="340" type="line" smooth="yes"/>
      <point x="727" y="292"/>
      <point x="706" y="250"/>
      <point x="686" y="180" type="curve"/>
      <point x="666" y="250"/>
      <point x="644" y="291"/>
      <point x="624" y="340" type="curve" smooth="yes"/>
      <point x="505" y="628" type="line"/>
      <point x="503" y="628" type="line"/>
      <point x="383" y="340" type="line" smooth="yes"/>
      <point x="363" y="292"/>
      <point x="340" y="249"/>
      <point x="319" y="180" type="curve"/>
      <point x="299" y="250"/>
      <point x="279" y="291"/>
      <point x="256" y="340" type="curve" smooth="yes"/>
      <point x="135" y="600" type="line"/>
      <point x="12" y="600" type="line"/>
    </contour>
  </outline>
</glyph>
<glyph name="x" format="2">
  <advance width="600"/>
  <unicode hex="0078"/>
  <outline>
    <contour>
      <point x="24" y="0" type="line"/>
      <point x="148" y="0" type="line"/>
      <point x="230" y="131" type="line" smooth="yes"/>
      <point x="254" y="169"/>
      <point x="279" y="208"/>
      <point x="298" y="251" type="curve"/>
      <point x="317" y="208"/>
      <point x="342" y="169"/>
      <point x="366" y="131" type="curve" smooth="yes"/>
      <point x="448" y="0" type="line"/>
      <point x="576" y="0" type="line"/>
      <point x="365" y="318" type="line"/>
      <point x="553" y="600" type="line"/>
      <point x="429" y="600" type="line"/>
      <point x="372" y="508" type="line" smooth="yes"/>
      <point x="347" y="468"/>
      <point x="321" y="427"/>
      <point x="301" y="383" type="curve"/>
      <point x="282" y="427"/>
      <point x="256" y="469"/>
      <point x="231" y="508" type="curve" smooth="yes"/>
      <point x="173" y="600" type="line"/>
      <point x="47" y="600" type="line"/>
      <point x="235" y="318" type="line"/>
    </contour>
  </outline>
</glyph>
<glyph name="y" format="2">
  <advance width="650"/>
  <unicode hex="0079"/>
  <anchor x="443" y="0" name="bottom"/>
  <anchor x="329" y="600" name="top"/>
  <outline>
    <contour>
      <point x="71" y="-300" type="line"/>
      <point x="188" y="-300" type="line"/>
      <point x="638" y="600" type="line"/>
      <point x="523" y="600" type="line"/>
      <point x="393" y="340" type="line" smooth="yes"/>
      <point x="369" y="294"/>
      <point x="349" y="253"/>
      <point x="327" y="189" type="curve"/>
      <point x="306" y="253"/>
      <point x="285" y="293"/>
      <point x="262" y="340" type="curve" smooth="yes"/>
      <point x="134" y="600" type="line"/>
      <point x="12" y="600" type="line"/>
      <point x="266" y="88" type="line"/>
    </contour>
  </outline>
</glyph>
<glyph name="z" format="2">
  <advance width="530"/>
  <unicode hex="007A"/>
  <anchor x="257" y="0" name="bottom"/>
  <anchor x="265" y="300" name="center"/>
  <anchor x="274" y="600" name="top"/>
  <outline>
    <contour>
      <point x="40" y="0" type="line"/>
      <point x="474" y="0" type="line"/>
      <point x="474" y="96" type="line"/>
      <point x="206" y="96" type="line"/>
      <point x="490" y="598" type="line"/>
      <point x="490" y="600" type="line"/>
      <point x="58" y="600" type="line"/>
      <point x="58" y="504" type="line"/>
      <point x="324" y="504" type="line"/>
      <point x="40" y="2" type="line"/>
    </contour>
  </outline>
</glyph>
<glyph name="braceright" format="2">
  <advance width="480"/>
  <unicode hex="007D"/>
  <outline>
    <contour>
      <point x="60" y="-186" type="line"/>
      <point x="214" y="-186"/>
      <point x="337" y="-101"/>
      <point x="337" y="80" type="curve" smooth="yes"/>
      <point x="337" y="136"/>
      <point x="325" y="188"/>
      <point x="325" y="236" type="curve" smooth="yes"/>
      <point x="325" y="321"/>
      <point x="363" y="354"/>
      <point x="438" y="390" type="curve"/>
      <point x="363" y="426"/>
      <point x="325" y="459"/>
      <point x="325" y="544" type="curve" smooth="yes"/>
      <point x="325" y="592"/>
      <point x="337" y="644"/>
      <point x="337" y="700" type="curve" smooth="yes"/>
      <point x="337" y="881"/>
      <point x="214" y="966"/>
      <point x="60" y="966" type="curve"/>
      <point x="60" y="876" type="line"/>
      <point x="147" y="876"/>
      <point x="235" y="844"/>
      <point x="235" y="691" type="curve" smooth="yes"/>
      <point x="235" y="635"/>
      <point x="223" y="589"/>
      <point x="223" y="541" type="curve" smooth="yes"/>
      <point x="223" y="460"/>
      <point x="258" y="412"/>
      <point x="311" y="390" type="curve"/>
      <point x="258" y="368"/>
      <point x="223" y="320"/>
      <point x="223" y="239" type="curve" smooth="yes"/>
      <point x="223" y="191"/>
      <point x="235" y="145"/>
      <point x="235" y="89" type="curve" smooth="yes"/>
      <point x="235" y="-64"/>
      <point x="147" y="-96"/>
      <point x="60" y="-96" type="curve"/>
    </contour>
  </outline>
</glyph>
<glyph name="cent" format="2">
  <advance width="750"/>
  <unicode hex="00A2"/>
  <outline>
    <contour>
      <point x="378" y="0" type="line"/>
      <point x="462" y="0" type="line"/>
      <point x="462" y="139" type="line"/>
      <point x="537" y="146"/>
      <point x="604" y="177"/>
      <point x="654" y="222" type="curve"/>
      <point x="621" y="358" type="line"/>
      <point x="587" y="289"/>
      <point x="516" y="240"/>
      <point x="431" y="240" type="curve" smooth="yes"/>
      <point x="315" y="240"/>
      <point x="222" y="335"/>
      <point x="222" y="450" type="curve" smooth="yes"/>
      <point x="222" y="565"/>
      <point x="315" y="660"/>
      <point x="431" y="660" type="curve" smooth="yes"/>
      <point x="516" y="660"/>
      <point x="587" y="609"/>
      <point x="621" y="542" type="curve"/>
      <point x="654" y="678" type="line"/>
      <point x="604" y="723"/>
      <point x="537" y="754"/>
      <point x="462" y="761" type="curve"/>
      <point x="462" y="870" type="line"/>
      <point x="378" y="870" type="line"/>
      <point x="378" y="758" type="line"/>
      <point x="228" y="732"/>
      <point x="114" y="604"/>
      <point x="114" y="450" type="curve" smooth="yes"/>
      <point x="114" y="296"/>
      <point x="228" y="168"/>
      <point x="378" y="142" type="curve"/>
    </contour>
  </outline>
</glyph>
<glyph name="sterling" format="2">
  <advance width="750"/>
  <unicode hex="00A3"/>
  <outline>
    <contour>
      <point x="151" y="0" type="line"/>
      <point x="660" y="0" type="line"/>
      <point x="660" y="96" type="line"/>
      <point x="333" y="96" type="line"/>
      <point x="354" y="128"/>
      <point x="366" y="169"/>
      <point x="366" y="226" type="curve" smooth="yes"/>
      <point x="366" y="279"/>
      <point x="356" y="343"/>
      <point x="344" y="408" type="curve"/>
      <point x="600" y="408" type="line"/>
      <point x="600" y="492" type="line"/>
      <point x="330" y="492" type="line"/>
      <point x="324" y="535"/>
      <point x="319" y="576"/>
      <point x="319" y="611" type="curve" smooth="yes"/>
      <point x="319" y="746"/>
      <point x="389" y="810"/>
      <point x="474" y="810" type="curve" smooth="yes"/>
      <point x="548" y="810"/>
      <point x="598" y="761"/>
      <point x="631" y="692" type="curve"/>
      <point x="665" y="830" type="line"/>
      <point x="616" y="881"/>
      <point x="554" y="912"/>
      <point x="476" y="912" type="curve" smooth="yes"/>
      <point x="331" y="912"/>
      <point x="211" y="803"/>
      <point x="211" y="620" type="curve" smooth="yes"/>
      <point x="211" y="580"/>
      <point x="217" y="537"/>
      <point x="224" y="492" type="curve"/>
      <point x="90" y="492" type="line"/>
      <point x="90" y="408" type="line"/>
      <point x="240" y="408" type="line"/>
      <point x="252" y="344"/>
      <point x="264" y="281"/>
      <point x="264" y="225" type="curve" smooth="yes"/>
      <point x="264" y="129"/>
      <point x="230" y="84"/>
      <point x="151" y="2" type="curve"/>
    </contour>
  </outline>
</glyph>
<glyph name="currency" format="2">
  <advance width="750"/>
  <unicode hex="00A4"/>
  <outline>
    <contour>
      <point x="375" y="138" type="curve" smooth="yes"/>
      <point x="445" y="138"/>
      <point x="509" y="160"/>
      <point x="561" y="198" type="curve"/>
      <point x="639" y="120" type="line"/>
      <point x="705" y="186" type="line"/>
      <point x="628" y="263" type="line"/>
      <point x="668" y="315"/>
      <point x="691" y="380"/>
      <point x="691" y="450" type="curve" smooth="yes"/>
      <point x="691" y="521"/>
      <point x="667" y="586"/>
      <point x="627" y="638" type="curve"/>
      <point x="705" y="716" type="line"/>
      <point x="641" y="780" type="line"/>
      <point x="563" y="702" type="line"/>
      <point x="510" y="740"/>
      <point x="445" y="762"/>
      <point x="375" y="762" type="curve" smooth="yes"/>
      <point x="305" y="762"/>
      <point x="241" y="740"/>
      <point x="189" y="702" type="curve"/>
      <point x="111" y="780" type="line"/>
      <point x="45" y="714" type="line"/>
      <point x="122" y="637" type="line"/>
      <point x="82" y="585"/>
      <point x="59" y="520"/>
      <point x="59" y="450" type="curve" smooth="yes"/>
      <point x="59" y="379"/>
      <point x="83" y="314"/>
      <point x="123" y="262" type="curve"/>
      <point x="45" y="184" type="line"/>
      <point x="109" y="120" type="line"/>
      <point x="187" y="198" type="line"/>
      <point x="240" y="160"/>
      <point x="305" y="138"/>
    </contour>
    <contour>
      <point x="375" y="240" type="curve" smooth="yes"/>
      <point x="259" y="240"/>
      <point x="167" y="334"/>
      <point x="167" y="450" type="curve" smooth="yes"/>
      <point x="167" y="566"/>
      <point x="259" y="660"/>
      <point x="375" y="660" type="curve" smooth="yes"/>
      <point x="490" y="660"/>
      <point x="583" y="566"/>
      <point x="583" y="450" type="curve" smooth="yes"/>
      <point x="583" y="334"/>
      <point x="490" y="240"/>
    </contour>
  </outline>
</glyph>
<glyph name="yen" format="2">
  <advance width="750"/>
  <unicode hex="00A5"/>
  <outline>
    <contour>
      <point x="318" y="0" type="line"/>
      <point x="432" y="0" type="line"/>
      <point x="432" y="318" type="line"/>
      <point x="660" y="318" type="line"/>
      <point x="660" y="402" type="line"/>
      <point x="432" y="402" type="line"/>
      <point x="432" y="435" type="line"/>
      <point x="469" y="498" type="line"/>
      <point x="660" y="498" type="line"/>
      <point x="660" y="582" type="line"/>
      <point x="517" y="582" type="line"/>
      <point x="702" y="900" type="line"/>
      <point x="582" y="900" type="line"/>
      <point x="433" y="638" type="line" smooth="yes"/>
      <point x="414" y="604"/>
      <point x="397" y="574"/>
      <point x="380" y="532" type="curve"/>
      <point x="363" y="574"/>
      <point x="346" y="605"/>
      <point x="328" y="638" type="curve" smooth="yes"/>
      <point x="180" y="900" type="line"/>
      <point x="48" y="900" type="line"/>
      <point x="233" y="582" type="line"/>
      <point x="90" y="582" type="line"/>
      <point x="90" y="498" type="line"/>
      <point x="281" y="498" type="line"/>
      <point x="318" y="435" type="line"/>
      <point x="318" y="402" type="line"/>
      <point x="90" y="402" type="line"/>
      <point x="90" y="318" type="line"/>
      <point x="318" y="318" type="line"/>
    </contour>
  </outline>
</glyph>
<glyph name="section" format="2">
  <advance width="750"/>
  <unicode hex="00A7"/>
  <outline>
    <contour>
      <point x="366" y="-192" type="curve" smooth="yes"/>
      <point x="502" y="-192"/>
      <point x="603" y="-101"/>
      <point x="603" y="28" type="curve" smooth="yes"/>
      <point x="603" y="112"/>
      <point x="560" y="164"/>
      <point x="516" y="196" type="curve"/>
      <point x="609" y="221"/>
      <point x="675" y="292"/>
      <point x="675" y="396" type="curve" smooth="yes"/>
      <point x="675" y="527"/>
      <point x="568" y="579"/>
      <point x="520" y="601" type="curve" smooth="yes"/>
      <point x="352" y="678" type="line" smooth="yes"/>
      <point x="320" y="693"/>
      <point x="273" y="723"/>
      <point x="273" y="781" type="curve" smooth="yes"/>
      <point x="273" y="835"/>
      <point x="314" y="880"/>
      <point x="381" y="880" type="curve" smooth="yes"/>
      <point x="448" y="880"/>
      <point x="509" y="837"/>
      <point x="536" y="784" type="curve"/>
      <point x="579" y="894" type="line"/>
      <point x="542" y="935"/>
      <point x="469" y="972"/>
      <point x="386" y="972" type="curve" smooth="yes"/>
      <point x="258" y="972"/>
      <point x="171" y="886"/>
      <point x="171" y="772" type="curve" smooth="yes"/>
      <point x="171" y="702"/>
      <point x="202" y="658"/>
      <point x="239" y="628" type="curve"/>
      <point x="141" y="602"/>
      <point x="75" y="528"/>
      <point x="75" y="426" type="curve" smooth="yes"/>
      <point x="75" y="295"/>
      <point x="182" y="245"/>
      <point x="230" y="222" type="curve" smooth="yes"/>
      <point x="405" y="140" type="line" smooth="yes"/>
      <point x="435" y="126"/>
      <point x="501" y="94"/>
      <point x="501" y="21" type="curve" smooth="yes"/>
      <point x="501" y="-46"/>
      <point x="450" y="-98"/>
      <point x="372" y="-98" type="curve" smooth="yes"/>
      <point x="291" y="-98"/>
      <point x="220" y="-46"/>
      <point x="194" y="26" type="curve"/>
      <point x="147" y="-91" type="line"/>
      <point x="193" y="-151"/>
      <point x="277" y="-192"/>
    </contour>
    <contour>
      <point x="436" y="257" type="curve" smooth="yes"/>
      <point x="420" y="257"/>
      <point x="405" y="259"/>
      <point x="390" y="263" type="curve"/>
      <point x="358" y="275"/>
      <point x="325" y="289"/>
      <point x="295" y="305" type="curve" smooth="yes"/>
      <point x="247" y="331"/>
      <point x="177" y="361"/>
      <point x="177" y="440" type="curve" smooth="yes"/>
      <point x="177" y="511"/>
      <point x="232" y="565"/>
      <point x="314" y="565" type="curve" smooth="yes"/>
      <point x="332" y="565"/>
      <point x="348" y="563"/>
      <point x="363" y="558" type="curve" smooth="yes"/>
      <point x="393" y="546"/>
      <point x="425" y="532"/>
      <point x="455" y="517" type="curve" smooth="yes"/>
      <point x="507" y="491"/>
      <point x="573" y="461"/>
      <point x="573" y="383" type="curve" smooth="yes"/>
      <point x="573" y="312"/>
      <point x="518" y="257"/>
    </contour>
  </outline>
</glyph>
<glyph name="copyright" format="2">
  <advance width="1260"/>
  <unicode hex="00A9"/>
  <outline>
    <contour>
      <point x="630" y="-102" type="curve" smooth="yes"/>
      <point x="938" y="-102"/>
      <point x="1188" y="145"/>
      <point x="1188" y="450" type="curve" smooth="yes"/>
      <point x="1188" y="755"/>
      <point x="938" y="1002"/>
      <point x="630" y="1002" type="curve" smooth="yes"/>
      <point x="322" y="1002"/>
      <point x="72" y="755"/>
      <point x="72" y="450" type="curve" smooth="yes"/>
      <point x="72" y="145"/>
      <point x="322" y="-102"/>
    </contour>
    <contour>
      <point x="630" y="-12" type="curve" smooth="yes"/>
      <point x="375" y="-12"/>
      <point x="168" y="195"/>
      <point x="168" y="450" type="curve" smooth="yes"/>
      <point x="168" y="705"/>
      <point x="375" y="912"/>
      <point x="630" y="912" type="curve" smooth="yes"/>
      <point x="885" y="912"/>
      <point x="1092" y="705"/>
      <point x="1092" y="450" type="curve" smooth="yes"/>
      <point x="1092" y="195"/>
      <point x="885" y="-12"/>
    </contour>
    <contour>
      <point x="648" y="168" type="curve" smooth="yes"/>
      <point x="727" y="168"/>
      <point x="798" y="198"/>
      <point x="849" y="244" type="curve"/>
      <point x="819" y="367" type="line"/>
      <point x="788" y="304"/>
      <point x="724" y="260"/>
      <point x="647" y="260" type="curve" smooth="yes"/>
      <point x="543" y="260"/>
      <point x="459" y="346"/>
      <point x="459" y="450" type="curve" smooth="yes"/>
      <point x="459" y="554"/>
      <point x="543" y="640"/>
      <point x="647" y="640" type="curve" smooth="yes"/>
      <point x="724" y="640"/>
      <point x="788" y="594"/>
      <point x="819" y="533" type="curve"/>
      <point x="849" y="656" type="line"/>
      <point x="798" y="702"/>
      <point x="727" y="732"/>
      <point x="648" y="732" type="curve" smooth="yes"/>
      <point x="489" y="732"/>
      <point x="361" y="605"/>
      <point x="361" y="450" type="curve" smooth="yes"/>
      <point x="361" y="295"/>
      <point x="489" y="168"/>
    </contour>
  </outline>
</glyph>
<glyph name="degree" format="2">
  <advance width="480"/>
  <unicode hex="00B0"/>
  <outline>
    <contour>
      <point x="240" y="558" type="curve" smooth="yes"/>
      <point x="341" y="558"/>
      <point x="423" y="637"/>
      <point x="423" y="735" type="curve" smooth="yes"/>
      <point x="423" y="833"/>
      <point x="341" y="912"/>
      <point x="240" y="912" type="curve" smooth="yes"/>
      <point x="139" y="912"/>
      <point x="57" y="833"/>
      <point x="57" y="735" type="curve" smooth="yes"/>
      <point x="57" y="637"/>
      <point x="139" y="558"/>
    </contour>
    <contour>
      <point x="240" y="633" type="curve" smooth="yes"/>
      <point x="181" y="633"/>
      <point x="135" y="679"/>
      <point x="135" y="735" type="curve" smooth="yes"/>
      <point x="135" y="791"/>
      <point x="181" y="837"/>
      <point x="240" y="837" type="curve" smooth="yes"/>
      <point x="298" y="837"/>
      <point x="345" y="791"/>
      <point x="345" y="735" type="curve" smooth="yes"/>
      <point x="345" y="679"/>
      <point x="298" y="633"/>
    </contour>
  </outline>
</glyph>
<glyph name="micro" format="2">
  <advance width="750"/>
  <unicode hex="00B5"/>
  <unicode hex="03BC"/>
  <outline>
    <contour>
      <point x="96" y="-300" type="line"/>
      <point x="204" y="-300" type="line"/>
      <point x="204" y="62" type="line"/>
      <point x="244" y="14"/>
      <point x="299" y="-12"/>
      <point x="360" y="-12" type="curve" smooth="yes"/>
      <point x="433" y="-12"/>
      <point x="501" y="26"/>
      <point x="540" y="98" type="curve"/>
      <point x="566" y="27"/>
      <point x="626" y="-12"/>
      <point x="701" y="-12" type="curve"/>
      <point x="723" y="81" type="line"/>
      <point x="672" y="81"/>
      <point x="636" y="105"/>
      <point x="636" y="178" type="curve" smooth="yes"/>
      <point x="636" y="600" type="line"/>
      <point x="528" y="600" type="line"/>
      <point x="528" y="267" type="line" smooth="yes"/>
      <point x="528" y="152"/>
      <point x="450" y="90"/>
      <point x="366" y="90" type="curve" smooth="yes"/>
      <point x="263" y="90"/>
      <point x="204" y="175"/>
      <point x="204" y="270" type="curve" smooth="yes"/>
      <point x="204" y="600" type="line"/>
      <point x="96" y="600" type="line"/>
    </contour>
  </outline>
</glyph>
<glyph name="paragraph" format="2">
  <advance width="750"/>
  <unicode hex="00B6"/>
  <outline>
    <contour>
      <point x="324" y="-180" type="line"/>
      <point x="420" y="-180" type="line"/>
      <point x="420" y="864" type="line"/>
      <point x="540" y="864" type="line"/>
      <point x="540" y="-180" type="line"/>
      <point x="636" y="-180" type="line"/>
      <point x="636" y="960" type="line"/>
      <point x="371" y="960" type="line" smooth="yes"/>
      <point x="134" y="960"/>
      <point x="48" y="798"/>
      <point x="48" y="668" type="curve" smooth="yes"/>
      <point x="48" y="549"/>
      <point x="122" y="398"/>
      <point x="324" y="378" type="curve"/>
    </contour>
  </outline>
</glyph>
<glyph name="questiondown" format="2">
  <advance width="480"/>
  <unicode hex="00BF"/>
  <outline>
    <contour>
      <point x="253" y="-312" type="curve" smooth="yes"/>
      <point x="307" y="-312"/>
      <point x="355" y="-297"/>
      <point x="390" y="-271" type="curve"/>
      <point x="390" y="-141" type="line"/>
      <point x="359" y="-184"/>
      <point x="312" y="-212"/>
      <point x="260" y="-212" type="curve" smooth="yes"/>
      <point x="188" y="-212"/>
      <point x="138" y="-162"/>
      <point x="138" y="-90" type="curve" smooth="yes"/>
      <point x="138" y="35"/>
      <point x="288" y="105"/>
      <point x="288" y="300" type="curve"/>
      <point x="192" y="300" type="line"/>
      <point x="180" y="125"/>
      <point x="30" y="48"/>
      <point x="30" y="-102" type="curve" smooth="yes"/>
      <point x="30" y="-215"/>
      <point x="115" y="-312"/>
    </contour>
    <contour>
      <point x="240" y="462" type="curve" smooth="yes"/>
      <point x="282" y="462"/>
      <point x="315" y="495"/>
      <point x="315" y="537" type="curve" smooth="yes"/>
      <point x="315" y="579"/>
      <point x="282" y="612"/>
      <point x="240" y="612" type="curve" smooth="yes"/>
      <point x="197" y="612"/>
      <point x="165" y="579"/>
      <point x="165" y="537" type="curve" smooth="yes"/>
      <point x="165" y="495"/>
      <point x="197" y="462"/>
    </contour>
  </outline>
</glyph>
<glyph name="AE" format="2">
  <advance width="1020"/>
  <unicode hex="00C6"/>
  <anchor x="380" y="0" name="bottom"/>
  <anchor x="587" y="900" name="top"/>
  <outline>
    <contour>
      <point x="18" y="0" type="line"/>
      <point x="133" y="0" type="line"/>
      <point x="240" y="267" type="line"/>
      <point x="545" y="267" type="line"/>
      <point x="627" y="0" type="line"/>
      <point x="990" y="0" type="line"/>
      <point x="964" y="102" type="line"/>
      <point x="710" y="102" type="line"/>
      <point x="587" y="504" type="line"/>
      <point x="801" y="504" type="line"/>
      <point x="777" y="606" type="line"/>
      <point x="556" y="606" type="line"/>
      <point x="497" y="798" type="line"/>
      <point x="762" y="798" type="line"/>
      <point x="736" y="900" type="line"/>
      <point x="388" y="900" type="line"/>
    </contour>
    <contour>
      <point x="278" y="362" type="line"/>
      <point x="349" y="540" type="line" smooth="yes"/>
      <point x="370" y="594"/>
      <point x="392" y="647"/>
      <point x="413" y="713" type="curve"/>
      <point x="429" y="647"/>
      <point x="446" y="594"/>
      <point x="462" y="540" type="curve" smooth="yes"/>
      <point x="516" y="362" type="line"/>
    </contour>
  </outline>
</glyph>
<glyph name="Ccedilla" format="2">
  <advance width="900"/>
  <unicode hex="00C7"/>
  <outline>
    <contour>
      <point x="298" y="-180" type="line"/>
      <point x="441" y="-180" type="line"/>
      <point x="571" y="-16" type="line"/>
      <point x="683" y="-7"/>
      <point x="782" y="42"/>
      <point x="858" y="115" type="curve"/>
      <point x="825" y="253" type="line"/>
      <point x="763" y="155"/>
      <point x="656" y="90"/>
      <point x="530" y="90" type="curve" smooth="yes"/>
      <point x="332" y="90"/>
      <point x="178" y="251"/>
      <point x="178" y="450" type="curve" smooth="yes"/>
      <point x="178" y="649"/>
      <point x="332" y="810"/>
      <point x="530" y="810" type="curve" smooth="yes"/>
      <point x="655" y="810"/>
      <point x="763" y="745"/>
      <point x="825" y="647" type="curve"/>
      <point x="858" y="785" type="line"/>
      <point x="773" y="867"/>
      <point x="658" y="918"/>
      <point x="530" y="918" type="curve" smooth="yes"/>
      <point x="270" y="918"/>
      <point x="60" y="709"/>
      <point x="60" y="450" type="curve" smooth="yes"/>
      <point x="60" y="214"/>
      <point x="235" y="19"/>
      <point x="463" y="-13" type="curve"/>
    </contour>
  </outline>
</glyph>
<glyph name="Eth" format="2">
  <advance width="990"/>
  <unicode hex="00D0"/>
  <outline>
    <contour>
      <point x="156" y="0" type="line"/>
      <point x="451" y="0" type="line" smooth="yes"/>
      <point x="777" y="0"/>
      <point x="930" y="240"/>
      <point x="930" y="450" type="curve" smooth="yes"/>
      <point x="930" y="660"/>
      <point x="777" y="900"/>
      <point x="451" y="900" type="curve" smooth="yes"/>
      <point x="156" y="900" type="line"/>
      <point x="156" y="522" type="line"/>
      <point x="60" y="522" type="line"/>
      <point x="60" y="438" type="line"/>
      <point x="156" y="438" type="line"/>
    </contour>
    <contour>
      <point x="270" y="102" type="line"/>
      <point x="270" y="438" type="line"/>
      <point x="540" y="438" type="line"/>
      <point x="540" y="522" type="line"/>
      <point x="270" y="522" type="line"/>
      <point x="270" y="798" type="line"/>
      <point x="439" y="798" type="line" smooth="yes"/>
      <point x="715" y="798"/>
      <point x="812" y="600"/>
      <point x="812" y="450" type="curve" smooth="yes"/>
      <point x="812" y="300"/>
      <point x="715" y="102"/>
      <point x="439" y="102" type="curve" smooth="yes"/>
    </contour>
  </outline>
</glyph>
<glyph name="multiply" format="2">
  <advance width="750"/>
  <unicode hex="00D7"/>
  <outline>
    <contour>
      <point x="169" y="180" type="line"/>
      <point x="374" y="385" type="line"/>
      <point x="579" y="180" type="line"/>
      <point x="645" y="246" type="line"/>
      <point x="440" y="451" type="line"/>
      <point x="645" y="656" type="line"/>
      <point x="581" y="720" type="line"/>
      <point x="376" y="515" type="line"/>
      <point x="171" y="720" type="line"/>
      <point x="105" y="654" type="line"/>
      <point x="310" y="449" type="line"/>
      <point x="105" y="244" type="line"/>
    </contour>
  </outline>
</glyph>
<glyph name="Oslash" format="2">
  <advance width="1060"/>
  <unicode hex="00D8"/>
  <anchor x="530" y="0" name="bottom"/>
  <anchor x="530" y="900" name="top"/>
  <outline>
    <contour>
      <point x="530" y="-18" type="curve" smooth="yes"/>
      <point x="790" y="-18"/>
      <point x="1000" y="191"/>
      <point x="1000" y="450" type="curve" smooth="yes"/>
      <point x="1000" y="577"/>
      <point x="949" y="692"/>
      <point x="867" y="776" type="curve"/>
      <point x="930" y="852" type="line"/>
      <point x="859" y="911" type="line"/>
      <point x="797" y="836" type="line"/>
      <point x="721" y="888"/>
      <point x="629" y="918"/>
      <point x="530" y="918" type="curve" smooth="yes"/>
      <point x="270" y="918"/>
      <point x="60" y="709"/>
      <point x="60" y="450" type="curve" smooth="yes"/>
      <point x="60" y="320"/>
      <point x="113" y="202"/>
      <point x="199" y="117" type="curve"/>
      <point x="130" y="34" type="line"/>
      <point x="201" y="-25" type="line"/>
      <point x="271" y="59" type="line"/>
      <point x="345" y="10"/>
      <point x="434" y="-18"/>
    </contour>
    <contour>
      <point x="271" y="204" type="line"/>
      <point x="213" y="269"/>
      <point x="178" y="355"/>
      <point x="178" y="450" type="curve" smooth="yes"/>
      <point x="178" y="649"/>
      <point x="332" y="810"/>
      <point x="530" y="810" type="curve" smooth="yes"/>
      <point x="603" y="810"/>
      <point x="670" y="788"/>
      <point x="726" y="750" type="curve"/>
    </contour>
    <contour>
      <point x="530" y="90" type="curve" smooth="yes"/>
      <point x="460" y="90"/>
      <point x="396" y="110"/>
      <point x="342" y="145" type="curve"/>
      <point x="795" y="689" type="line"/>
      <point x="849" y="625"/>
      <point x="882" y="542"/>
      <point x="882" y="450" type="curve" smooth="yes"/>
      <point x="882" y="251"/>
      <point x="728" y="90"/>
    </contour>
  </outline>
</glyph>
<glyph name="Thorn" format="2">
  <advance width="720"/>
  <unicode hex="00DE"/>
  <outline>
    <contour>
      <point x="126" y="0" type="line"/>
      <point x="240" y="0" type="line"/>
      <point x="240" y="196" type="line"/>
      <point x="349" y="196" type="line" smooth="yes"/>
      <point x="587" y="196"/>
      <point x="672" y="360"/>
      <point x="672" y="488" type="curve" smooth="yes"/>
      <point x="672" y="618"/>
      <point x="586" y="780"/>
      <point x="349" y="780" type="curve" smooth="yes"/>
      <point x="240" y="780" type="line"/>
      <point x="240" y="900" type="line"/>
      <point x="126" y="900" type="line"/>
    </contour>
    <contour>
      <point x="240" y="298" type="line"/>
      <point x="240" y="678" type="line"/>
      <point x="343" y="678" type="line" smooth="yes"/>
      <point x="508" y="678"/>
      <point x="558" y="576"/>
      <point x="558" y="488" type="curve" smooth="yes"/>
      <point x="558" y="396"/>
      <point x="504" y="298"/>
      <point x="343" y="298" type="curve" smooth="yes"/>
    </contour>
  </outline>
</glyph>
<glyph name="germandbls" format="2">
  <advance width="750"/>
  <unicode hex="00DF"/>
  <outline>
    <contour>
      <point x="361" y="-12" type="line"/>
      <point x="531" y="2"/>
      <point x="666" y="140"/>
      <point x="666" y="314" type="curve" smooth="yes"/>
      <point x="666" y="441"/>
      <point x="594" y="546"/>
      <point x="489" y="599" type="curve"/>
      <point x="533" y="637"/>
      <point x="565" y="688"/>
      <point x="565" y="756" type="curve" smooth="yes"/>
      <point x="565" y="877"/>
      <point x="465" y="972"/>
      <point x="333" y="972" type="curve" smooth="yes"/>
      <point x="199" y="972"/>
      <point x="96" y="875"/>
      <point x="96" y="727" type="curve" smooth="yes"/>
      <point x="96" y="0" type="line"/>
      <point x="204" y="0" type="line"/>
      <point x="204" y="727" type="line" smooth="yes"/>
      <point x="204" y="819"/>
      <point x="259" y="876"/>
      <point x="332" y="876" type="curve" smooth="yes"/>
      <point x="404" y="876"/>
      <point x="457" y="821"/>
      <point x="457" y="750" type="curve" smooth="yes"/>
      <point x="457" y="680"/>
      <point x="404" y="620"/>
      <point x="311" y="575" type="curve"/>
      <point x="311" y="573" type="line"/>
      <point x="473" y="517"/>
      <point x="552" y="431"/>
      <point x="552" y="311" type="curve" smooth="yes"/>
      <point x="552" y="181"/>
      <point x="460" y="88"/>
      <point x="337" y="84" type="curve"/>
    </contour>
  </outline>
</glyph>
<glyph name="ae" format="2">
  <advance width="1140"/>
  <unicode hex="00E6"/>
  <anchor x="570" y="0" name="bottom"/>
  <anchor x="570" y="600" name="top"/>
  <outline>
    <contour>
      <point x="286" y="-12" type="curve" smooth="yes"/>
      <point x="395" y="-12"/>
      <point x="492" y="35"/>
      <point x="550" y="121" type="curve"/>
      <point x="606" y="40"/>
      <point x="700" y="-12"/>
      <point x="812" y="-12" type="curve" smooth="yes"/>
      <point x="894" y="-12"/>
      <point x="970" y="15"/>
      <point x="1028" y="62" type="curve"/>
      <point x="998" y="185" type="line"/>
      <point x="958" y="128"/>
      <point x="889" y="90"/>
      <point x="813" y="90" type="curve" smooth="yes"/>
      <point x="699" y="90"/>
      <point x="608" y="171"/>
      <point x="594" y="278" type="curve"/>
      <point x="629" y="273"/>
      <point x="665" y="270"/>
      <point x="700" y="270" type="curve" smooth="yes"/>
      <point x="1092" y="270" type="line"/>
      <point x="1092" y="314" type="line" smooth="yes"/>
      <point x="1092" y="483"/>
      <point x="956" y="612"/>
      <point x="790" y="612" type="curve" smooth="yes"/>
      <point x="699" y="612"/>
      <point x="618" y="570"/>
      <point x="564" y="505" type="curve"/>
      <point x="516" y="570"/>
      <point x="431" y="608"/>
      <point x="328" y="608" type="curve" smooth="yes"/>
      <point x="237" y="608"/>
      <point x="159" y="579"/>
      <point x="102" y="541" type="curve"/>
      <point x="130" y="429" type="line"/>
      <point x="175" y="478"/>
      <point x="242" y="512"/>
      <point x="323" y="512" type="curve" smooth="yes"/>
      <point x="428" y="512"/>
      <point x="489" y="455"/>
      <point x="503" y="381" type="curve"/>
      <point x="500" y="366"/>
      <point x="498" y="351"/>
      <point x="495" y="336" type="curve"/>
      <point x="444" y="363"/>
      <point x="382" y="378"/>
      <point x="314" y="378" type="curve" smooth="yes"/>
      <point x="165" y="378"/>
      <point x="54" y="306"/>
      <point x="54" y="184" type="curve" smooth="yes"/>
      <point x="54" y="69"/>
      <point x="155" y="-12"/>
    </contour>
    <contour>
      <point x="294" y="82" type="curve" smooth="yes"/>
      <point x="208" y="82"/>
      <point x="162" y="128"/>
      <point x="162" y="184" type="curve" smooth="yes"/>
      <point x="162" y="251"/>
      <point x="228" y="288"/>
      <point x="321" y="288" type="curve" smooth="yes"/>
      <point x="381" y="288"/>
      <point x="447" y="273"/>
      <point x="499" y="249" type="curve"/>
      <point x="506" y="214" type="line"/>
      <point x="479" y="136"/>
      <point x="388" y="82"/>
    </contour>
    <contour>
      <point x="591" y="351" type="curve"/>
      <point x="611" y="442"/>
      <point x="691" y="516"/>
      <point x="789" y="516" type="curve" smooth="yes"/>
      <point x="884" y="516"/>
      <point x="967" y="448"/>
      <point x="986" y="355" type="curve"/>
      <point x="957" y="358"/>
      <point x="928" y="360"/>
      <point x="899" y="360" type="curve" smooth="yes"/>
      <point x="700" y="360" type="line" smooth="yes"/>
      <point x="664" y="360"/>
      <point x="627" y="357"/>
    </contour>
  </outline>
</glyph>
<glyph name="ccedilla" format="2">
  <advance width="630"/>
  <unicode hex="00E7"/>
  <outline>
    <contour>
      <point x="139" y="-180" type="line"/>
      <point x="282" y="-180" type="line"/>
      <point x="418" y="-9" type="line"/>
      <point x="486" y="0"/>
      <point x="547" y="30"/>
      <point x="594" y="72" type="curve"/>
      <point x="561" y="208" type="line"/>
      <point x="527" y="139"/>
      <point x="456" y="90"/>
      <point x="371" y="90" type="curve" smooth="yes"/>
      <point x="255" y="90"/>
      <point x="162" y="185"/>
      <point x="162" y="300" type="curve" smooth="yes"/>
      <point x="162" y="415"/>
      <point x="255" y="510"/>
      <point x="371" y="510" type="curve" smooth="yes"/>
      <point x="456" y="510"/>
      <point x="527" y="459"/>
      <point x="561" y="392" type="curve"/>
      <point x="594" y="528" type="line"/>
      <point x="537" y="579"/>
      <point x="459" y="612"/>
      <point x="372" y="612" type="curve" smooth="yes"/>
      <point x="196" y="612"/>
      <point x="54" y="472"/>
      <point x="54" y="300" type="curve" smooth="yes"/>
      <point x="54" y="148"/>
      <point x="164" y="22"/>
      <point x="311" y="-6" type="curve"/>
    </contour>
  </outline>
</glyph>
<glyph name="eth" format="2">
  <advance width="740"/>
  <unicode hex="00F0"/>
  <outline>
    <contour>
      <point x="371" y="-12" type="curve" smooth="yes"/>
      <point x="547" y="-12"/>
      <point x="686" y="124"/>
      <point x="686" y="310" type="curve" smooth="yes"/>
      <point x="686" y="397"/>
      <point x="657" y="485"/>
      <point x="589" y="591" type="curve" smooth="yes"/>
      <point x="557" y="640"/>
      <point x="493" y="725"/>
      <point x="423" y="813" type="curve"/>
      <point x="543" y="891" type="line"/>
      <point x="505" y="950" type="line"/>
      <point x="378" y="868" type="line"/>
      <point x="352" y="900"/>
      <point x="326" y="931"/>
      <point x="301" y="960" type="curve"/>
      <point x="178" y="960" type="line"/>
      <point x="219" y="912"/>
      <point x="260" y="865"/>
      <point x="300" y="817" type="curve"/>
      <point x="170" y="732" type="line"/>
      <point x="208" y="672" type="line"/>
      <point x="346" y="762" type="line"/>
      <point x="403" y="692"/>
      <point x="457" y="622"/>
      <point x="505" y="552" type="curve"/>
      <point x="462" y="590"/>
      <point x="409" y="606"/>
      <point x="350" y="606" type="curve" smooth="yes"/>
      <point x="187" y="606"/>
      <point x="54" y="470"/>
      <point x="54" y="301" type="curve" smooth="yes"/>
      <point x="54" y="127"/>
      <point x="194" y="-12"/>
    </contour>
    <contour>
      <point x="369" y="90" type="curve" smooth="yes"/>
      <point x="254" y="90"/>
      <point x="162" y="185"/>
      <point x="162" y="301" type="curve" smooth="yes"/>
      <point x="162" y="416"/>
      <point x="254" y="510"/>
      <point x="369" y="510" type="curve" smooth="yes"/>
      <point x="485" y="510"/>
      <point x="578" y="416"/>
      <point x="578" y="301" type="curve" smooth="yes"/>
      <point x="578" y="185"/>
      <point x="485" y="90"/>
    </contour>
  </outline>
</glyph>
<glyph name="oslash" format="2">
  <advance width="740"/>
  <unicode hex="00F8"/>
  <anchor x="370" y="600" name="top"/>
  <outline>
    <contour>
      <point x="370" y="-12" type="curve" smooth="yes"/>
      <point x="545" y="-12"/>
      <point x="686" y="127"/>
      <point x="686" y="300" type="curve" smooth="yes"/>
      <point x="686" y="383"/>
      <point x="653" y="458"/>
      <point x="600" y="514" type="curve"/>
      <point x="642" y="564" type="line"/>
      <point x="581" y="617" type="line"/>
      <point x="537" y="565" type="line"/>
      <point x="489" y="595"/>
      <point x="432" y="612"/>
      <point x="370" y="612" type="curve" smooth="yes"/>
      <point x="195" y="612"/>
      <point x="54" y="473"/>
      <point x="54" y="300" type="curve" smooth="yes"/>
      <point x="54" y="218"/>
      <point x="85" y="144"/>
      <point x="137" y="89" type="curve"/>
      <point x="92" y="35" type="line"/>
      <point x="153" y="-18" type="line"/>
      <point x="199" y="37" type="line"/>
      <point x="248" y="6"/>
      <point x="307" y="-12"/>
    </contour>
    <contour>
      <point x="202" y="166" type="line"/>
      <point x="173" y="203"/>
      <point x="156" y="249"/>
      <point x="156" y="300" type="curve" smooth="yes"/>
      <point x="156" y="419"/>
      <point x="251" y="516"/>
      <point x="370" y="516" type="curve" smooth="yes"/>
      <point x="408" y="516"/>
      <point x="443" y="506"/>
      <point x="473" y="489" type="curve"/>
    </contour>
    <contour>
      <point x="370" y="84" type="curve" smooth="yes"/>
      <point x="331" y="84"/>
      <point x="294" y="94"/>
      <point x="263" y="113" type="curve"/>
      <point x="535" y="437" type="line"/>
      <point x="566" y="400"/>
      <point x="584" y="352"/>
      <point x="584" y="300" type="curve" smooth="yes"/>
      <point x="584" y="181"/>
      <point x="488" y="84"/>
    </contour>
  </outline>
</glyph>
<glyph name="thorn" format="2">
  <advance width="760"/>
  <unicode hex="00FE"/>
  <outline>
    <contour>
      <point x="96" y="-300" type="line"/>
      <point x="204" y="-300" type="line"/>
      <point x="204" y="71" type="line"/>
      <point x="257" y="22"/>
      <point x="328" y="-8"/>
      <point x="407" y="-8" type="curve" smooth="yes"/>
      <point x="572" y="-8"/>
      <point x="706" y="130"/>
      <point x="706" y="300" type="curve" smooth="yes"/>
      <point x="706" y="470"/>
      <point x="572" y="608"/>
      <point x="407" y="608" type="curve" smooth="yes"/>
      <point x="328" y="608"/>
      <point x="257" y="578"/>
      <point x="204" y="529" type="curve"/>
      <point x="204" y="960" type="line"/>
      <point x="96" y="960" type="line"/>
    </contour>
    <contour>
      <point x="393" y="90" type="curve" smooth="yes"/>
      <point x="279" y="90"/>
      <point x="188" y="184"/>
      <point x="188" y="300" type="curve" smooth="yes"/>
      <point x="188" y="416"/>
      <point x="279" y="510"/>
      <point x="393" y="510" type="curve" smooth="yes"/>
      <point x="507" y="510"/>
      <point x="598" y="416"/>
      <point x="598" y="300" type="curve" smooth="yes"/>
      <point x="598" y="184"/>
      <point x="507" y="90"/>
    </contour>
  </outline>
</glyph>
<glyph name="Aogonek" format="2">
  <advance width="800"/>
  <unicode hex="0104"/>
  <outline>
    <contour>
      <point x="736" y="-312" type="curve"/>
      <point x="758" y="-219" type="line"/>
      <point x="703" y="-219"/>
      <point x="671" y="-191"/>
      <point x="671" y="-144" type="curve" smooth="yes"/>
      <point x="671" y="-89"/>
      <point x="712" y="-36"/>
      <point x="782" y="0" type="curve"/>
      <point x="401" y="930" type="line"/>
      <point x="399" y="930" type="line"/>
      <point x="18" y="0" type="line"/>
      <point x="133" y="0" type="line"/>
      <point x="240" y="266" type="line"/>
      <point x="555" y="266" type="line"/>
      <point x="661" y="0" type="line"/>
      <point x="601" y="-51"/>
      <point x="571" y="-104"/>
      <point x="571" y="-161" type="curve" smooth="yes"/>
      <point x="571" y="-248"/>
      <point x="641" y="-312"/>
    </contour>
    <contour>
      <point x="278" y="362" type="line"/>
      <point x="349" y="540" type="line" smooth="yes"/>
      <point x="367" y="586"/>
      <point x="381" y="624"/>
      <point x="397" y="686" type="curve"/>
      <point x="413" y="624"/>
      <point x="428" y="585"/>
      <point x="446" y="540" type="curve" smooth="yes"/>
      <point x="517" y="362" type="line"/>
    </contour>
  </outline>
</glyph>
<glyph name="aogonek" format="2">
  <advance width="760"/>
  <unicode hex="0105"/>
  <outline>
    <contour>
      <point x="669" y="-312" type="curve"/>
      <point x="691" y="-219" type="line"/>
      <point x="640" y="-219"/>
      <point x="604" y="-195"/>
      <point x="604" y="-134" type="curve" smooth="yes"/>
      <point x="604" y="-83"/>
      <point x="627" y="-45"/>
      <point x="664" y="0" type="curve"/>
      <point x="664" y="600" type="line"/>
      <point x="564" y="600" type="line"/>
      <point x="564" y="521" type="line"/>
      <point x="510" y="575"/>
      <point x="436" y="608"/>
      <point x="353" y="608" type="curve" smooth="yes"/>
      <point x="188" y="608"/>
      <point x="54" y="470"/>
      <point x="54" y="300" type="curve" smooth="yes"/>
      <point x="54" y="130"/>
      <point x="188" y="-8"/>
      <point x="353" y="-8" type="curve" smooth="yes"/>
      <point x="436" y="-8"/>
      <point x="510" y="25"/>
      <point x="564" y="79" type="curve"/>
      <point x="564" y="0" type="line"/>
      <point x="526" y="-50"/>
      <point x="504" y="-100"/>
      <point x="504" y="-153" type="curve" smooth="yes"/>
      <point x="504" y="-254"/>
      <point x="582" y="-312"/>
    </contour>
    <contour>
      <point x="367" y="90" type="curve" smooth="yes"/>
      <point x="253" y="90"/>
      <point x="162" y="184"/>
      <point x="162" y="300" type="curve" smooth="yes"/>
      <point x="162" y="416"/>
      <point x="253" y="510"/>
      <point x="367" y="510" type="curve" smooth="yes"/>
      <point x="481" y="510"/>
      <point x="572" y="416"/>
      <point x="572" y="300" type="curve" smooth="yes"/>
      <point x="572" y="184"/>
      <point x="481" y="90"/>
    </contour>
  </outline>
</glyph>
<glyph name="Eogonek" format="2">
  <advance width="630"/>
  <unicode hex="0118"/>
  <anchor x="348" y="900" name="top"/>
  <outline>
    <contour>
      <point x="575" y="-312" type="curve"/>
      <point x="597" y="-219" type="line"/>
      <point x="546" y="-219"/>
      <point x="510" y="-195"/>
      <point x="510" y="-134" type="curve" smooth="yes"/>
      <point x="510" y="-83"/>
      <point x="533" y="-45"/>
      <point x="570" y="0" type="curve"/>
      <point x="570" y="102" type="line"/>
      <point x="240" y="102" type="line"/>
      <point x="240" y="504" type="line"/>
      <point x="500" y="504" type="line"/>
      <point x="500" y="606" type="line"/>
      <point x="240" y="606" type="line"/>
      <point x="240" y="798" type="line"/>
      <point x="570" y="798" type="line"/>
      <point x="570" y="900" type="line"/>
      <point x="126" y="900" type="line"/>
      <point x="126" y="0" type="line"/>
      <point x="470" y="0" type="line"/>
      <point x="432" y="-50"/>
      <point x="410" y="-100"/>
      <point x="410" y="-153" type="curve" smooth="yes"/>
      <point x="410" y="-254"/>
      <point x="488" y="-312"/>
    </contour>
  </outline>
</glyph>
<glyph name="eogonek" format="2">
  <advance width="710"/>
  <unicode hex="0119"/>
  <anchor x="355" y="600" name="top"/>
  <outline>
    <contour>
      <point x="553" y="-312" type="curve"/>
      <point x="575" y="-219" type="line"/>
      <point x="524" y="-219"/>
      <point x="488" y="-195"/>
      <point x="488" y="-134" type="curve" smooth="yes"/>
      <point x="488" y="-83"/>
      <point x="512" y="-33"/>
      <point x="598" y="62" type="curve"/>
      <point x="571" y="173" type="line"/>
      <point x="532" y="124"/>
      <point x="461" y="90"/>
      <point x="383" y="90" type="curve" smooth="yes"/>
      <point x="269" y="90"/>
      <point x="178" y="171"/>
      <point x="164" y="278" type="curve"/>
      <point x="199" y="273"/>
      <point x="235" y="270"/>
      <point x="270" y="270" type="curve" smooth="yes"/>
      <point x="662" y="270" type="line"/>
      <point x="662" y="314" type="line" smooth="yes"/>
      <point x="662" y="483"/>
      <point x="525" y="612"/>
      <point x="359" y="612" type="curve" smooth="yes"/>
      <point x="190" y="612"/>
      <point x="54" y="476"/>
      <point x="54" y="306" type="curve" smooth="yes"/>
      <point x="54" y="127"/>
      <point x="193" y="-12"/>
      <point x="382" y="-12" type="curve" smooth="yes"/>
      <point x="403" y="-12"/>
      <point x="423" y="-10"/>
      <point x="444" y="-7" type="curve"/>
      <point x="408" y="-55"/>
      <point x="388" y="-102"/>
      <point x="388" y="-153" type="curve" smooth="yes"/>
      <point x="388" y="-254"/>
      <point x="466" y="-312"/>
    </contour>
    <contour>
      <point x="161" y="351" type="curve"/>
      <point x="181" y="442"/>
      <point x="261" y="516"/>
      <point x="359" y="516" type="curve" smooth="yes"/>
      <point x="454" y="516"/>
      <point x="537" y="448"/>
      <point x="556" y="355" type="curve"/>
      <point x="527" y="358"/>
      <point x="498" y="360"/>
      <point x="469" y="360" type="curve" smooth="yes"/>
      <point x="270" y="360" type="line" smooth="yes"/>
      <point x="234" y="360"/>
      <point x="197" y="357"/>
    </contour>
  </outline>
</glyph>
<glyph name="hbar" format="2">
  <advance width="720"/>
  <unicode hex="0127"/>
  <outline>
    <contour>
      <point x="96" y="0" type="line"/>
      <point x="204" y="0" type="line"/>
      <point x="204" y="333" type="line" smooth="yes"/>
      <point x="204" y="448"/>
      <point x="282" y="510"/>
      <point x="366" y="510" type="curve" smooth="yes"/>
      <point x="469" y="510"/>
      <point x="528" y="425"/>
      <point x="528" y="330" type="curve" smooth="yes"/>
      <point x="528" y="0" type="line"/>
      <point x="636" y="0" type="line"/>
      <point x="636" y="345" type="line" smooth="yes"/>
      <point x="636" y="514"/>
      <point x="522" y="612"/>
      <point x="395" y="612" type="curve" smooth="yes"/>
      <point x="315" y="612"/>
      <point x="242" y="575"/>
      <point x="198" y="506" type="curve"/>
      <point x="198" y="746" type="line"/>
      <point x="410" y="746" type="line"/>
      <point x="410" y="814" type="line"/>
      <point x="198" y="814" type="line"/>
      <point x="198" y="960" type="line"/>
      <point x="96" y="960" type="line"/>
      <point x="96" y="814" type="line"/>
      <point x="30" y="814" type="line"/>
      <point x="30" y="746" type="line"/>
      <point x="96" y="746" type="line"/>
    </contour>
  </outline>
</glyph>
<glyph name="Iogonek" format="2">
  <advance width="390"/>
  <unicode hex="012E"/>
  <outline>
    <contour>
      <point x="250" y="-312" type="curve"/>
      <point x="272" y="-219" type="line"/>
      <point x="221" y="-219"/>
      <point x="185" y="-195"/>
      <point x="185" y="-134" type="curve" smooth="yes"/>
      <point x="185" y="-83"/>
      <point x="209" y="-39"/>
      <point x="252" y="0" type="curve"/>
      <point x="252" y="900" type="line"/>
      <point x="138" y="900" type="line"/>
      <point x="138" y="0" type="line"/>
      <point x="104" y="-50"/>
      <point x="85" y="-100"/>
      <point x="85" y="-153" type="curve" smooth="yes"/>
      <point x="85" y="-254"/>
      <point x="163" y="-312"/>
    </contour>
  </outline>
</glyph>
<glyph name="Lslash" format="2">
  <advance width="630"/>
  <unicode hex="0141"/>
  <outline>
    <contour>
      <point x="156" y="0" type="line"/>
      <point x="582" y="0" type="line"/>
      <point x="582" y="102" type="line"/>
      <point x="270" y="102" type="line"/>
      <point x="270" y="443" type="line"/>
      <point x="516" y="604" type="line"/>
      <point x="474" y="668" type="line"/>
      <point x="270" y="535" type="line"/>
      <point x="270" y="900" type="line"/>
      <point x="156" y="900" type="line"/>
      <point x="156" y="460" type="line"/>
      <point x="24" y="374" type="line"/>
      <point x="66" y="310" type="line"/>
      <point x="156" y="369" type="line"/>
    </contour>
  </outline>
</glyph>
<glyph name="lslash" format="2">
  <advance width="360"/>
  <unicode hex="0142"/>
  <outline>
    <contour>
      <point x="126" y="0" type="line"/>
      <point x="234" y="0" type="line"/>
      <point x="234" y="475" type="line"/>
      <point x="362" y="559" type="line"/>
      <point x="324" y="619" type="line"/>
      <point x="234" y="560" type="line"/>
      <point x="234" y="960" type="line"/>
      <point x="126" y="960" type="line"/>
      <point x="126" y="489" type="line"/>
      <point x="-8" y="401" type="line"/>
      <point x="30" y="341" type="line"/>
      <point x="126" y="404" type="line"/>
    </contour>
  </outline>
</glyph>
<glyph name="eng" format="2">
  <advance width="720"/>
  <unicode hex="014B"/>
  <outline>
    <contour>
      <point x="463" y="-312" type="line"/>
      <point x="562" y="-312"/>
      <point x="636" y="-244"/>
      <point x="636" y="-124" type="curve" smooth="yes"/>
      <point x="636" y="345" type="line" smooth="yes"/>
      <point x="636" y="514"/>
      <point x="522" y="612"/>
      <point x="395" y="612" type="curve" smooth="yes"/>
      <point x="314" y="612"/>
      <point x="240" y="574"/>
      <point x="196" y="503" type="curve"/>
      <point x="196" y="600" type="line"/>
      <point x="96" y="600" type="line"/>
      <point x="96" y="0" type="line"/>
      <point x="204" y="0" type="line"/>
      <point x="204" y="333" type="line" smooth="yes"/>
      <point x="204" y="448"/>
      <point x="282" y="510"/>
      <point x="366" y="510" type="curve" smooth="yes"/>
      <point x="469" y="510"/>
      <point x="528" y="425"/>
      <point x="528" y="330" type="curve" smooth="yes"/>
      <point x="528" y="-122" type="line" smooth="yes"/>
      <point x="528" y="-195"/>
      <point x="492" y="-219"/>
      <point x="441" y="-219" type="curve"/>
    </contour>
  </outline>
</glyph>
<glyph name="OE" format="2">
  <advance width="1380"/>
  <unicode hex="0152"/>
  <anchor x="690" y="0" name="bottom"/>
  <anchor x="690" y="900" name="top"/>
  <outline>
    <contour>
      <point x="529" y="-18" type="curve" smooth="yes"/>
      <point x="676" y="-18"/>
      <point x="805" y="52"/>
      <point x="882" y="159" type="curve"/>
      <point x="882" y="0" type="line"/>
      <point x="1320" y="0" type="line"/>
      <point x="1320" y="102" type="line"/>
      <point x="990" y="102" type="line"/>
      <point x="990" y="504" type="line"/>
      <point x="1250" y="504" type="line"/>
      <point x="1250" y="606" type="line"/>
      <point x="990" y="606" type="line"/>
      <point x="990" y="798" type="line"/>
      <point x="1320" y="798" type="line"/>
      <point x="1320" y="900" type="line"/>
      <point x="882" y="900" type="line"/>
      <point x="882" y="741" type="line"/>
      <point x="805" y="848"/>
      <point x="676" y="918"/>
      <point x="529" y="918" type="curve" smooth="yes"/>
      <point x="269" y="918"/>
      <point x="60" y="709"/>
      <point x="60" y="450" type="curve" smooth="yes"/>
      <point x="60" y="191"/>
      <point x="274" y="-18"/>
    </contour>
    <contour>
      <point x="530" y="90" type="curve" smooth="yes"/>
      <point x="332" y="90"/>
      <point x="178" y="251"/>
      <point x="178" y="450" type="curve" smooth="yes"/>
      <point x="178" y="649"/>
      <point x="332" y="810"/>
      <point x="530" y="810" type="curve" smooth="yes"/>
      <point x="728" y="810"/>
      <point x="882" y="649"/>
      <point x="882" y="450" type="curve" smooth="yes"/>
      <point x="882" y="251"/>
      <point x="728" y="90"/>
    </contour>
  </outline>
</glyph>
<glyph name="Scedilla" format="2">
  <advance width="660"/>
  <unicode hex="015E"/>
  <outline>
    <contour>
      <point x="90" y="-180" type="line"/>
      <point x="233" y="-180" type="line"/>
      <point x="369" y="-8" type="line"/>
      <point x="505" y="12"/>
      <point x="600" y="115"/>
      <point x="600" y="253" type="curve" smooth="yes"/>
      <point x="600" y="412"/>
      <point x="473" y="476"/>
      <point x="419" y="503" type="curve" smooth="yes"/>
      <point x="307" y="559" type="line" smooth="yes"/>
      <point x="277" y="574"/>
      <point x="208" y="609"/>
      <point x="208" y="689" type="curve" smooth="yes"/>
      <point x="208" y="758"/>
      <point x="260" y="812"/>
      <point x="340" y="812" type="curve" smooth="yes"/>
      <point x="422" y="812"/>
      <point x="492" y="752"/>
      <point x="525" y="696" type="curve"/>
      <point x="558" y="834" type="line"/>
      <point x="517" y="870"/>
      <point x="441" y="912"/>
      <point x="345" y="912" type="curve" smooth="yes"/>
      <point x="198" y="912"/>
      <point x="96" y="814"/>
      <point x="96" y="678" type="curve" smooth="yes"/>
      <point x="96" y="538"/>
      <point x="204" y="483"/>
      <point x="257" y="456" type="curve" smooth="yes"/>
      <point x="367" y="400" type="line" smooth="yes"/>
      <point x="401" y="383"/>
      <point x="488" y="341"/>
      <point x="488" y="246" type="curve" smooth="yes"/>
      <point x="488" y="158"/>
      <point x="419" y="90"/>
      <point x="324" y="90" type="curve" smooth="yes"/>
      <point x="220" y="90"/>
      <point x="143" y="161"/>
      <point x="106" y="236" type="curve"/>
      <point x="73" y="98" type="line"/>
      <point x="114" y="49"/>
      <point x="181" y="7"/>
      <point x="261" y="-7" type="curve"/>
    </contour>
  </outline>
</glyph>
<glyph name="scedilla" format="2">
  <advance width="510"/>
  <unicode hex="015F"/>
  <outline>
    <contour>
      <point x="23" y="-180" type="line"/>
      <point x="166" y="-180" type="line"/>
      <point x="304" y="-6" type="line"/>
      <point x="391" y="12"/>
      <point x="450" y="78"/>
      <point x="450" y="169" type="curve" smooth="yes"/>
      <point x="450" y="284"/>
      <point x="357" y="322"/>
      <point x="313" y="339" type="curve" smooth="yes"/>
      <point x="232" y="370" type="line" smooth="yes"/>
      <point x="189" y="386"/>
      <point x="168" y="412"/>
      <point x="168" y="444" type="curve" smooth="yes"/>
      <point x="168" y="484"/>
      <point x="201" y="520"/>
      <point x="256" y="520" type="curve" smooth="yes"/>
      <point x="315" y="520"/>
      <point x="374" y="482"/>
      <point x="406" y="424" type="curve"/>
      <point x="436" y="542" type="line"/>
      <point x="391" y="592"/>
      <point x="319" y="612"/>
      <point x="259" y="612" type="curve" smooth="yes"/>
      <point x="145" y="612"/>
      <point x="72" y="533"/>
      <point x="72" y="437" type="curve" smooth="yes"/>
      <point x="72" y="330"/>
      <point x="157" y="291"/>
      <point x="202" y="274" type="curve" smooth="yes"/>
      <point x="283" y="243" type="line" smooth="yes"/>
      <point x="310" y="233"/>
      <point x="354" y="213"/>
      <point x="354" y="161" type="curve" smooth="yes"/>
      <point x="354" y="116"/>
      <point x="322" y="80"/>
      <point x="258" y="80" type="curve" smooth="yes"/>
      <point x="191" y="80"/>
      <point x="129" y="119"/>
      <point x="92" y="182" type="curve"/>
      <point x="62" y="64" type="line"/>
      <point x="98" y="25"/>
      <point x="147" y="3"/>
      <point x="195" y="-6" type="curve"/>
    </contour>
  </outline>
</glyph>
<glyph name="Tcedilla" format="2">
  <advance width="690"/>
  <unicode hex="0162"/>
  <outline>
    <contour>
      <point x="113" y="-180" type="line"/>
      <point x="256" y="-180" type="line"/>
      <point x="402" y="0" type="line"/>
      <point x="402" y="798" type="line"/>
      <point x="642" y="798" type="line"/>
      <point x="642" y="900" type="line"/>
      <point x="48" y="900" type="line"/>
      <point x="48" y="798" type="line"/>
      <point x="288" y="798" type="line"/>
      <point x="288" y="0" type="line"/>
    </contour>
  </outline>
</glyph>
<glyph name="tcedilla" format="2">
  <advance width="450"/>
  <unicode hex="0163"/>
  <outline>
    <contour>
      <point x="-12" y="-180" type="line"/>
      <point x="131" y="-180" type="line"/>
      <point x="274" y="0" type="line"/>
      <point x="274" y="510" type="line"/>
      <point x="420" y="510" type="line"/>
      <point x="420" y="600" type="line"/>
      <point x="271" y="600" type="line"/>
      <point x="271" y="800" type="line"/>
      <point x="169" y="800" type="line"/>
      <point x="169" y="600" type="line"/>
      <point x="30" y="600" type="line"/>
      <point x="30" y="510" type="line"/>
      <point x="166" y="510" type="line"/>
      <point x="166" y="0" type="line"/>
    </contour>
  </outline>
</glyph>
<glyph name="Tbar" format="2">
  <advance width="690"/>
  <unicode hex="0166"/>
  <outline>
    <contour>
      <point x="288" y="0" type="line"/>
      <point x="402" y="0" type="line"/>
      <point x="402" y="408" type="line"/>
      <point x="585" y="408" type="line"/>
      <point x="585" y="492" type="line"/>
      <point x="402" y="492" type="line"/>
      <point x="402" y="798" type="line"/>
      <point x="642" y="798" type="line"/>
      <point x="642" y="900" type="line"/>
      <point x="48" y="900" type="line"/>
      <point x="48" y="798" type="line"/>
      <point x="288" y="798" type="line"/>
      <point x="288" y="492" type="line"/>
      <point x="105" y="492" type="line"/>
      <point x="105" y="408" type="line"/>
      <point x="288" y="408" type="line"/>
    </contour>
  </outline>
</glyph>
<glyph name="Uogonek" format="2">
  <advance width="800"/>
  <unicode hex="0172"/>
  <outline>
    <contour>
      <point x="485" y="-312" type="curve"/>
      <point x="507" y="-219" type="line"/>
      <point x="456" y="-219"/>
      <point x="420" y="-195"/>
      <point x="420" y="-134" type="curve" smooth="yes"/>
      <point x="420" y="-84"/>
      <point x="442" y="-47"/>
      <point x="478" y="-3" type="curve"/>
      <point x="606" y="28"/>
      <point x="692" y="138"/>
      <point x="692" y="287" type="curve" smooth="yes"/>
      <point x="692" y="900" type="line"/>
      <point x="582" y="900" type="line"/>
      <point x="582" y="283" type="line" smooth="yes"/>
      <point x="582" y="168"/>
      <point x="505" y="90"/>
      <point x="402" y="90" type="curve" smooth="yes"/>
      <point x="298" y="90"/>
      <point x="222" y="168"/>
      <point x="222" y="287" type="curve" smooth="yes"/>
      <point x="222" y="900" type="line"/>
      <point x="108" y="900" type="line"/>
      <point x="108" y="283" type="line" smooth="yes"/>
      <point x="108" y="119"/>
      <point x="216" y="2"/>
      <point x="371" y="-11" type="curve"/>
      <point x="330" y="-72"/>
      <point x="320" y="-114"/>
      <point x="320" y="-153" type="curve" smooth="yes"/>
      <point x="320" y="-254"/>
      <point x="398" y="-312"/>
    </contour>
  </outline>
</glyph>
<glyph name="uogonek" format="2">
  <advance width="720"/>
  <unicode hex="0173"/>
  <outline>
    <contour>
      <point x="629" y="-312" type="curve"/>
      <point x="651" y="-219" type="line"/>
      <point x="600" y="-219"/>
      <point x="564" y="-195"/>
      <point x="564" y="-134" type="curve" smooth="yes"/>
      <point x="564" y="-83"/>
      <point x="587" y="-45"/>
      <point x="624" y="0" type="curve"/>
      <point x="624" y="600" type="line"/>
      <point x="516" y="600" type="line"/>
      <point x="516" y="267" type="line" smooth="yes"/>
      <point x="516" y="152"/>
      <point x="438" y="90"/>
      <point x="354" y="90" type="curve" smooth="yes"/>
      <point x="251" y="90"/>
      <point x="192" y="175"/>
      <point x="192" y="270" type="curve" smooth="yes"/>
      <point x="192" y="600" type="line"/>
      <point x="84" y="600" type="line"/>
      <point x="84" y="255" type="line" smooth="yes"/>
      <point x="84" y="86"/>
      <point x="198" y="-12"/>
      <point x="325" y="-12" type="curve" smooth="yes"/>
      <point x="406" y="-12"/>
      <point x="480" y="26"/>
      <point x="524" y="97" type="curve"/>
      <point x="524" y="0" type="line"/>
      <point x="486" y="-50"/>
      <point x="464" y="-100"/>
      <point x="464" y="-153" type="curve" smooth="yes"/>
      <point x="464" y="-254"/>
      <point x="542" y="-312"/>
    </contour>
  </outline>
</glyph>
<glyph name="Schwa" format="2">
  <advance width="1050"/>
  <unicode hex="018F"/>
  <outline>
    <contour>
      <point x="520" y="-18" type="curve" smooth="yes"/>
      <point x="780" y="-18"/>
      <point x="990" y="191"/>
      <point x="990" y="450" type="curve" smooth="yes"/>
      <point x="990" y="709"/>
      <point x="780" y="918"/>
      <point x="520" y="918" type="curve" smooth="yes"/>
      <point x="392" y="918"/>
      <point x="277" y="867"/>
      <point x="192" y="785" type="curve"/>
      <point x="225" y="647" type="line"/>
      <point x="287" y="745"/>
      <point x="395" y="810"/>
      <point x="520" y="810" type="curve" smooth="yes"/>
      <point x="701" y="810"/>
      <point x="845" y="676"/>
      <point x="869" y="501" type="curve"/>
      <point x="830" y="506"/>
      <point x="792" y="510"/>
      <point x="754" y="510" type="curve" smooth="yes"/>
      <point x="54" y="510" type="line"/>
      <point x="54" y="492"/>
      <point x="54" y="473"/>
      <point x="54" y="455" type="curve" smooth="yes"/>
      <point x="54" y="191"/>
      <point x="263" y="-18"/>
    </contour>
    <contour>
      <point x="520" y="90" type="curve" smooth="yes"/>
      <point x="339" y="90"/>
      <point x="194" y="229"/>
      <point x="174" y="408" type="curve"/>
      <point x="754" y="408" type="line" smooth="yes"/>
      <point x="793" y="408"/>
      <point x="832" y="412"/>
      <point x="871" y="418" type="curve"/>
      <point x="855" y="234"/>
      <point x="707" y="90"/>
    </contour>
  </outline>
</glyph>
<glyph name="florin" format="2">
  <advance width="750"/>
  <unicode hex="0192"/>
  <outline>
    <contour>
      <point x="230" y="-192" type="curve" smooth="yes"/>
      <point x="337" y="-192"/>
      <point x="427" y="-123"/>
      <point x="427" y="8" type="curve" smooth="yes"/>
      <point x="427" y="405" type="line"/>
      <point x="630" y="405" type="line"/>
      <point x="630" y="495" type="line"/>
      <point x="427" y="495" type="line"/>
      <point x="427" y="710" type="line" smooth="yes"/>
      <point x="427" y="798"/>
      <point x="472" y="822"/>
      <point x="517" y="822" type="curve" smooth="yes"/>
      <point x="553" y="822"/>
      <point x="587" y="807"/>
      <point x="615" y="776" type="curve"/>
      <point x="641" y="881" type="line"/>
      <point x="604" y="904"/>
      <point x="560" y="912"/>
      <point x="520" y="912" type="curve" smooth="yes"/>
      <point x="413" y="912"/>
      <point x="323" y="843"/>
      <point x="323" y="712" type="curve" smooth="yes"/>
      <point x="323" y="495" type="line"/>
      <point x="120" y="495" type="line"/>
      <point x="120" y="405" type="line"/>
      <point x="323" y="405" type="line"/>
      <point x="323" y="10" type="line" smooth="yes"/>
      <point x="323" y="-78"/>
      <point x="278" y="-102"/>
      <point x="233" y="-102" type="curve" smooth="yes"/>
      <point x="197" y="-102"/>
      <point x="163" y="-87"/>
      <point x="135" y="-56" type="curve"/>
      <point x="109" y="-161" type="line"/>
      <point x="146" y="-184"/>
      <point x="190" y="-192"/>
    </contour>
  </outline>
</glyph>
<glyph name="ohorn" format="2">
  <advance width="770"/>
  <unicode hex="01A1"/>
  <anchor x="370" y="0" name="bottom"/>
  <anchor x="370" y="600" name="top"/>
  <outline>
    <contour>
      <point x="370" y="-12" type="curve" smooth="yes"/>
      <point x="545" y="-12"/>
      <point x="686" y="127"/>
      <point x="686" y="300" type="curve" smooth="yes"/>
      <point x="686" y="340"/>
      <point x="678" y="379"/>
      <point x="664" y="414" type="curve"/>
      <point x="712" y="439"/>
      <point x="746" y="492"/>
      <point x="746" y="568" type="curve" smooth="yes"/>
      <point x="746" y="597"/>
      <point x="741" y="628"/>
      <point x="722" y="660" type="curve"/>
      <point x="632" y="660" type="line"/>
      <point x="651" y="627"/>
      <point x="656" y="592"/>
      <point x="656" y="568" type="curve" smooth="yes"/>
      <point x="656" y="528"/>
      <point x="642" y="503"/>
      <point x="622" y="489" type="curve"/>
      <point x="564" y="564"/>
      <point x="473" y="612"/>
      <point x="370" y="612" type="curve" smooth="yes"/>
      <point x="195" y="612"/>
      <point x="54" y="473"/>
      <point x="54" y="300" type="curve" smooth="yes"/>
      <point x="54" y="127"/>
      <point x="195" y="-12"/>
    </contour>
    <contour>
      <point x="370" y="90" type="curve" smooth="yes"/>
      <point x="254" y="90"/>
      <point x="162" y="184"/>
      <point x="162" y="300" type="curve" smooth="yes"/>
      <point x="162" y="416"/>
      <point x="254" y="510"/>
      <point x="370" y="510" type="curve" smooth="yes"/>
      <point x="485" y="510"/>
      <point x="578" y="416"/>
      <point x="578" y="300" type="curve" smooth="yes"/>
      <point x="578" y="184"/>
      <point x="485" y="90"/>
    </contour>
  </outline>
</glyph>
<glyph name="Uhorn" format="2">
  <advance width="920"/>
  <unicode hex="01AF"/>
  <anchor x="400" y="0" name="bottom"/>
  <anchor x="400" y="900" name="top"/>
  <outline>
    <contour>
      <point x="400" y="-12" type="curve" smooth="yes"/>
      <point x="571" y="-12"/>
      <point x="692" y="110"/>
      <point x="692" y="287" type="curve" smooth="yes"/>
      <point x="692" y="708" type="line"/>
      <point x="709" y="701"/>
      <point x="727" y="698"/>
      <point x="746" y="698" type="curve" smooth="yes"/>
      <point x="825" y="698"/>
      <point x="896" y="759"/>
      <point x="896" y="868" type="curve" smooth="yes"/>
      <point x="896" y="897"/>
      <point x="891" y="928"/>
      <point x="872" y="960" type="curve"/>
      <point x="776" y="960" type="line"/>
      <point x="795" y="927"/>
      <point x="800" y="892"/>
      <point x="800" y="868" type="curve" smooth="yes"/>
      <point x="800" y="816"/>
      <point x="772" y="776"/>
      <point x="722" y="776" type="curve" smooth="yes"/>
      <point x="709" y="776"/>
      <point x="697" y="779"/>
      <point x="686" y="785" type="curve"/>
      <point x="686" y="900" type="line"/>
      <point x="577" y="900" type="line"/>
      <point x="577" y="283" type="line" smooth="yes"/>
      <point x="577" y="168"/>
      <point x="502" y="90"/>
      <point x="400" y="90" type="curve" smooth="yes"/>
      <point x="297" y="90"/>
      <point x="223" y="168"/>
      <point x="223" y="287" type="curve" smooth="yes"/>
      <point x="223" y="900" type="line"/>
      <point x="108" y="900" type="line"/>
      <point x="108" y="283" type="line" smooth="yes"/>
      <point x="108" y="109"/>
      <point x="230" y="-12"/>
    </contour>
  </outline>
</glyph>
<glyph name="Ezh" format="2">
  <advance width="660"/>
  <unicode hex="01B7"/>
  <anchor x="302" y="0" name="bottom"/>
  <anchor x="313" y="900" name="top"/>
  <outline>
    <contour>
      <point x="302" y="-12" type="curve" smooth="yes"/>
      <point x="476" y="-12"/>
      <point x="618" y="125"/>
      <point x="618" y="300" type="curve" smooth="yes"/>
      <point x="618" y="450"/>
      <point x="514" y="565"/>
      <point x="382" y="595" type="curve"/>
      <point x="545" y="898" type="line"/>
      <point x="545" y="900" type="line"/>
      <point x="84" y="900" type="line"/>
      <point x="84" y="798" type="line"/>
      <point x="373" y="798" type="line"/>
      <point x="209" y="481" type="line"/>
      <point x="211" y="479" type="line"/>
      <point x="235" y="495"/>
      <point x="267" y="504"/>
      <point x="302" y="504" type="curve" smooth="yes"/>
      <point x="414" y="504"/>
      <point x="504" y="412"/>
      <point x="504" y="300" type="curve" smooth="yes"/>
      <point x="504" y="187"/>
      <point x="415" y="96"/>
      <point x="302" y="96" type="curve" smooth="yes"/>
      <point x="198" y="96"/>
      <point x="112" y="172"/>
      <point x="98" y="275" type="curve"/>
      <point x="30" y="141" type="line"/>
      <point x="85" y="46"/>
      <point x="186" y="-12"/>
    </contour>
  </outline>
</glyph>
<glyph name="Gstroke" format="2">
  <advance width="940"/>
  <unicode hex="01E4"/>
  <outline>
    <contour>
      <point x="529" y="-18" type="curve" smooth="yes"/>
      <point x="645" y="-18"/>
      <point x="756" y="16"/>
      <point x="838" y="84" type="curve"/>
      <point x="838" y="318" type="line"/>
      <point x="910" y="318" type="line"/>
      <point x="910" y="402" type="line"/>
      <point x="838" y="402" type="line"/>
      <point x="838" y="540" type="line"/>
      <point x="728" y="540" type="line"/>
      <point x="728" y="402" type="line"/>
      <point x="490" y="402" type="line"/>
      <point x="490" y="318" type="line"/>
      <point x="728" y="318" type="line"/>
      <point x="728" y="142" type="line"/>
      <point x="672" y="109"/>
      <point x="604" y="90"/>
      <point x="529" y="90" type="curve" smooth="yes"/>
      <point x="330" y="90"/>
      <point x="178" y="254"/>
      <point x="178" y="450" type="curve" smooth="yes"/>
      <point x="178" y="649"/>
      <point x="332" y="810"/>
      <point x="530" y="810" type="curve" smooth="yes"/>
      <point x="655" y="810"/>
      <point x="763" y="745"/>
      <point x="825" y="647" type="curve"/>
      <point x="858" y="785" type="line"/>
      <point x="773" y="867"/>
      <point x="658" y="918"/>
      <point x="530" y="918" type="curve" smooth="yes"/>
      <point x="269" y="918"/>
      <point x="60" y="708"/>
      <point x="60" y="450" type="curve" smooth="yes"/>
      <point x="60" y="192"/>
      <point x="268" y="-18"/>
    </contour>
  </outline>
</glyph>
<glyph name="Oogonek" format="2">
  <advance width="1060"/>
  <unicode hex="01EA"/>
  <anchor x="530" y="900" name="top"/>
  <outline>
    <contour>
      <point x="615" y="-312" type="curve"/>
      <point x="637" y="-219" type="line"/>
      <point x="586" y="-219"/>
      <point x="550" y="-195"/>
      <point x="550" y="-134" type="curve" smooth="yes"/>
      <point x="550" y="-88"/>
      <point x="569" y="-53"/>
      <point x="600" y="-13" type="curve"/>
      <point x="826" y="20"/>
      <point x="1000" y="215"/>
      <point x="1000" y="450" type="curve" smooth="yes"/>
      <point x="1000" y="709"/>
      <point x="790" y="918"/>
      <point x="530" y="918" type="curve" smooth="yes"/>
      <point x="270" y="918"/>
      <point x="60" y="709"/>
      <point x="60" y="450" type="curve" smooth="yes"/>
      <point x="60" y="202"/>
      <point x="253" y="0"/>
      <point x="498" y="-17" type="curve"/>
      <point x="467" y="-61"/>
      <point x="450" y="-106"/>
      <point x="450" y="-153" type="curve" smooth="yes"/>
      <point x="450" y="-254"/>
      <point x="528" y="-312"/>
    </contour>
    <contour>
      <point x="530" y="90" type="curve" smooth="yes"/>
      <point x="332" y="90"/>
      <point x="178" y="251"/>
      <point x="178" y="450" type="curve" smooth="yes"/>
      <point x="178" y="649"/>
      <point x="332" y="810"/>
      <point x="530" y="810" type="curve" smooth="yes"/>
      <point x="728" y="810"/>
      <point x="882" y="649"/>
      <point x="882" y="450" type="curve" smooth="yes"/>
      <point x="882" y="251"/>
      <point x="728" y="90"/>
    </contour>
  </outline>
</glyph>
<glyph name="oogonek" format="2">
  <advance width="740"/>
  <unicode hex="01EB"/>
  <anchor x="370" y="600" name="top"/>
  <outline>
    <contour>
      <point x="455" y="-312" type="curve"/>
      <point x="477" y="-219" type="line"/>
      <point x="426" y="-219"/>
      <point x="390" y="-195"/>
      <point x="390" y="-134" type="curve" smooth="yes"/>
      <point x="390" y="-84"/>
      <point x="412" y="-46"/>
      <point x="448" y="-3" type="curve"/>
      <point x="585" y="32"/>
      <point x="686" y="154"/>
      <point x="686" y="300" type="curve" smooth="yes"/>
      <point x="686" y="473"/>
      <point x="545" y="612"/>
      <point x="370" y="612" type="curve" smooth="yes"/>
      <point x="195" y="612"/>
      <point x="54" y="473"/>
      <point x="54" y="300" type="curve" smooth="yes"/>
      <point x="54" y="136"/>
      <point x="180" y="3"/>
      <point x="342" y="-11" type="curve"/>
      <point x="309" y="-57"/>
      <point x="290" y="-104"/>
      <point x="290" y="-153" type="curve" smooth="yes"/>
      <point x="290" y="-254"/>
      <point x="368" y="-312"/>
    </contour>
    <contour>
      <point x="370" y="90" type="curve" smooth="yes"/>
      <point x="254" y="90"/>
      <point x="162" y="184"/>
      <point x="162" y="300" type="curve" smooth="yes"/>
      <point x="162" y="416"/>
      <point x="254" y="510"/>
      <point x="370" y="510" type="curve" smooth="yes"/>
      <point x="485" y="510"/>
      <point x="578" y="416"/>
      <point x="578" y="300" type="curve" smooth="yes"/>
      <point x="578" y="184"/>
      <point x="485" y="90"/>
    </contour>
  </outline>
</glyph>
<glyph name="Aringacute" format="2">
  <advance width="800"/>
  <unicode hex="01FA"/>
  <outline>
    <contour>
      <point x="18" y="0" type="line"/>
      <point x="133" y="0" type="line"/>
      <point x="240" y="267" type="line"/>
      <point x="555" y="267" type="line"/>
      <point x="661" y="0" type="line"/>
      <point x="782" y="0" type="line"/>
      <point x="437" y="838" type="line"/>
      <point x="507" y="855"/>
      <point x="559" y="915"/>
      <point x="559" y="990" type="curve" smooth="yes"/>
      <point x="559" y="1078"/>
      <point x="487" y="1146"/>
      <point x="400" y="1146" type="curve" smooth="yes"/>
      <point x="312" y="1146"/>
      <point x="241" y="1078"/>
      <point x="241" y="990" type="curve" smooth="yes"/>
      <point x="241" y="915"/>
      <point x="293" y="854"/>
      <point x="363" y="838" type="curve"/>
    </contour>
    <contour>
      <point x="278" y="362" type="line"/>
      <point x="349" y="540" type="line" smooth="yes"/>
      <point x="367" y="586"/>
      <point x="381" y="624"/>
      <point x="397" y="686" type="curve"/>
      <point x="413" y="624"/>
      <point x="428" y="585"/>
      <point x="446" y="540" type="curve" smooth="yes"/>
      <point x="517" y="362" type="line"/>
    </contour>
    <contour>
      <point x="400" y="906" type="curve" smooth="yes"/>
      <point x="354" y="906"/>
      <point x="316" y="944"/>
      <point x="316" y="990" type="curve" smooth="yes"/>
      <point x="316" y="1035"/>
      <point x="354" y="1074"/>
      <point x="400" y="1074" type="curve" smooth="yes"/>
      <point x="445" y="1074"/>
      <point x="484" y="1035"/>
      <point x="484" y="990" type="curve" smooth="yes"/>
      <point x="484" y="944"/>
      <point x="445" y="906"/>
    </contour>
    <contour>
      <point x="364" y="1206" type="line"/>
      <point x="448" y="1206" type="line"/>
      <point x="525" y="1317" type="line"/>
      <point x="420" y="1317" type="line"/>
    </contour>
  </outline>
</glyph>
<glyph name="jdotless" format="2">
  <advance width="300"/>
  <unicode hex="0237"/>
  <anchor x="151" y="-300" name="bottom"/>
  <anchor x="150" y="600" name="top"/>
  <outline>
    <contour>
      <point x="31" y="-312" type="line"/>
      <point x="130" y="-312"/>
      <point x="204" y="-244"/>
      <point x="204" y="-124" type="curve" smooth="yes"/>
      <point x="204" y="600" type="line"/>
      <point x="96" y="600" type="line"/>
      <point x="96" y="-122" type="line" smooth="yes"/>
      <point x="96" y="-195"/>
      <point x="58" y="-219"/>
      <point x="9" y="-219" type="curve"/>
    </contour>
  </outline>
</glyph>
<glyph name="schwa" format="2">
  <advance width="710"/>
  <unicode hex="0259"/>
  <outline>
    <contour>
      <point x="351" y="-12" type="curve" smooth="yes"/>
      <point x="520" y="-12"/>
      <point x="656" y="124"/>
      <point x="656" y="294" type="curve" smooth="yes"/>
      <point x="656" y="473"/>
      <point x="517" y="612"/>
      <point x="328" y="612" type="curve" smooth="yes"/>
      <point x="246" y="612"/>
      <point x="170" y="585"/>
      <point x="112" y="538" type="curve"/>
      <point x="142" y="415" type="line"/>
      <point x="182" y="472"/>
      <point x="251" y="510"/>
      <point x="327" y="510" type="curve" smooth="yes"/>
      <point x="441" y="510"/>
      <point x="532" y="429"/>
      <point x="546" y="322" type="curve"/>
      <point x="511" y="327"/>
      <point x="475" y="330"/>
      <point x="440" y="330" type="curve" smooth="yes"/>
      <point x="48" y="330" type="line"/>
      <point x="48" y="286" type="line" smooth="yes"/>
      <point x="48" y="117"/>
      <point x="185" y="-12"/>
    </contour>
    <contour>
      <point x="351" y="84" type="curve" smooth="yes"/>
      <point x="256" y="84"/>
      <point x="173" y="152"/>
      <point x="154" y="245" type="curve"/>
      <point x="183" y="242"/>
      <point x="212" y="240"/>
      <point x="241" y="240" type="curve" smooth="yes"/>
      <point x="440" y="240" type="line" smooth="yes"/>
      <point x="476" y="240"/>
      <point x="513" y="243"/>
      <point x="549" y="249" type="curve"/>
      <point x="529" y="158"/>
      <point x="449" y="84"/>
    </contour>
  </outline>
</glyph>
<glyph name="ezh" format="2">
  <advance width="660"/>
  <unicode hex="0292"/>
  <anchor x="302" y="-300" name="bottom"/>
  <anchor x="320" y="600" name="top"/>
  <outline>
    <contour>
      <point x="302" y="-312" type="curve" smooth="yes"/>
      <point x="473" y="-312"/>
      <point x="612" y="-178"/>
      <point x="612" y="-6" type="curve" smooth="yes"/>
      <point x="612" y="143"/>
      <point x="506" y="258"/>
      <point x="373" y="285" type="curve"/>
      <point x="542" y="598" type="line"/>
      <point x="542" y="600" type="line"/>
      <point x="98" y="600" type="line"/>
      <point x="98" y="504" type="line"/>
      <point x="376" y="504" type="line"/>
      <point x="205" y="175" type="line"/>
      <point x="207" y="173" type="line"/>
      <point x="232" y="188"/>
      <point x="265" y="198"/>
      <point x="302" y="198" type="curve" smooth="yes"/>
      <point x="414" y="198"/>
      <point x="504" y="106"/>
      <point x="504" y="-6" type="curve" smooth="yes"/>
      <point x="504" y="-119"/>
      <point x="415" y="-210"/>
      <point x="302" y="-210" type="curve" smooth="yes"/>
      <point x="198" y="-210"/>
      <point x="112" y="-134"/>
      <point x="98" y="-31" type="curve"/>
      <point x="32" y="-162" type="line"/>
      <point x="87" y="-255"/>
      <point x="187" y="-312"/>
    </contour>
  </outline>
</glyph>
<glyph name="acutecomb" format="2">
  <unicode hex="0301"/>
  <anchor x="298" y="600" name="_top"/>
  <anchor x="360" y="870" name="top"/>
  <outline>
    <contour>
      <point x="252" y="690" type="line"/>
      <point x="343" y="690" type="line"/>
      <point x="468" y="870" type="line"/>
      <point x="342" y="870" type="line"/>
    </contour>
  </outline>
</glyph>
<glyph name="macroncomb" format="2">
  <unicode hex="0304"/>
  <anchor x="360" y="600" name="_top"/>
  <anchor x="360" y="822" name="top"/>
  <outline>
    <contour>
      <point x="183" y="738" type="line"/>
      <point x="537" y="738" type="line"/>
      <point x="537" y="822" type="line"/>
      <point x="183" y="822" type="line"/>
    </contour>
  </outline>
</glyph>
<glyph name="brevecomb" format="2">
  <unicode hex="0306"/>
  <anchor x="360" y="600" name="_top"/>
  <anchor x="360" y="849" name="top"/>
  <outline>
    <contour>
      <point x="360" y="675" type="curve" smooth="yes"/>
      <point x="461" y="675"/>
      <point x="540" y="749"/>
      <point x="540" y="849" type="curve"/>
      <point x="452" y="849" type="line"/>
      <point x="452" y="798"/>
      <point x="409" y="757"/>
      <point x="360" y="757" type="curve" smooth="yes"/>
      <point x="311" y="757"/>
      <point x="268" y="798"/>
      <point x="268" y="849" type="curve"/>
      <point x="180" y="849" type="line"/>
      <point x="180" y="750"/>
      <point x="260" y="675"/>
    </contour>
  </outline>
</glyph>
<glyph name="dotaccentcomb" format="2">
  <unicode hex="0307"/>
  <anchor x="360" y="600" name="_top"/>
  <anchor x="360" y="852" name="top"/>
  <outline>
    <contour>
      <point x="360" y="708" type="curve" smooth="yes"/>
      <point x="401" y="708"/>
      <point x="432" y="740"/>
      <point x="432" y="780" type="curve" smooth="yes"/>
      <point x="432" y="821"/>
      <point x="401" y="852"/>
      <point x="360" y="852" type="curve" smooth="yes"/>
      <point x="320" y="852"/>
      <point x="288" y="821"/>
      <point x="288" y="780" type="curve" smooth="yes"/>
      <point x="288" y="740"/>
      <point x="320" y="708"/>
    </contour>
  </outline>
</glyph>
<glyph name="dblgravecomb" format="2">
  <unicode hex="030F"/>
  <anchor x="410" y="600" name="_top"/>
  <anchor x="360" y="870" name="top"/>
  <outline>
    <contour>
      <point x="479" y="690" type="line"/>
      <point x="564" y="690" type="line"/>
      <point x="498" y="870" type="line"/>
      <point x="378" y="870" type="line"/>
    </contour>
    <contour>
      <point x="257" y="690" type="line"/>
      <point x="342" y="690" type="line"/>
      <point x="276" y="870" type="line"/>
      <point x="156" y="870" type="line"/>
    </contour>
  </outline>
</glyph>
<glyph name="breveinvertedcomb" format="2">
  <unicode hex="0311"/>
  <anchor x="360" y="600" name="_top"/>
  <anchor x="360" y="849" name="top"/>
  <outline>
    <contour>
      <point x="180" y="675" type="curve"/>
      <point x="268" y="675" type="line"/>
      <point x="268" y="726"/>
      <point x="311" y="767"/>
      <point x="360" y="767" type="curve" smooth="yes"/>
      <point x="409" y="767"/>
      <point x="452" y="726"/>
      <point x="452" y="675" type="curve"/>
      <point x="540" y="675" type="line"/>
      <point x="540" y="774"/>
      <point x="460" y="849"/>
      <point x="360" y="849" type="curve" smooth="yes"/>
      <point x="259" y="849"/>
      <point x="180" y="775"/>
    </contour>
  </outline>
</glyph>
<glyph name="horncomb" format="2">
  <unicode hex="031B"/>
  <anchor x="268" y="600" name="_topright"/>
  <outline>
    <contour>
      <point x="316" y="398" type="curve" smooth="yes"/>
      <point x="395" y="398"/>
      <point x="466" y="458"/>
      <point x="466" y="568" type="curve" smooth="yes"/>
      <point x="466" y="597"/>
      <point x="461" y="628"/>
      <point x="442" y="660" type="curve"/>
      <point x="352" y="660" type="line"/>
      <point x="371" y="627"/>
      <point x="376" y="592"/>
      <point x="376" y="568" type="curve" smooth="yes"/>
      <point x="376" y="503"/>
      <point x="338" y="476"/>
      <point x="298" y="476" type="curve" smooth="yes"/>
      <point x="266" y="476"/>
      <point x="237" y="494"/>
      <point x="220" y="529" type="curve"/>
      <point x="220" y="433" type="line"/>
      <point x="246" y="410"/>
      <point x="280" y="398"/>
    </contour>
  </outline>
</glyph>
<glyph name="dieresisbelowcomb" format="2">
  <unicode hex="0324"/>
  <anchor x="360" y="0" name="_bottom"/>
  <anchor x="360" y="-249" name="bottom"/>
  <outline>
    <contour>
      <point x="480" y="-249" type="curve" smooth="yes"/>
      <point x="518" y="-249"/>
      <point x="549" y="-219"/>
      <point x="549" y="-180" type="curve" smooth="yes"/>
      <point x="549" y="-142"/>
      <point x="518" y="-111"/>
      <point x="480" y="-111" type="curve" smooth="yes"/>
      <point x="441" y="-111"/>
      <point x="411" y="-142"/>
      <point x="411" y="-180" type="curve" smooth="yes"/>
      <point x="411" y="-219"/>
      <point x="441" y="-249"/>
    </contour>
    <contour>
      <point x="240" y="-249" type="curve" smooth="yes"/>
      <point x="278" y="-249"/>
      <point x="309" y="-219"/>
      <point x="309" y="-180" type="curve" smooth="yes"/>
      <point x="309" y="-142"/>
      <point x="278" y="-111"/>
      <point x="240" y="-111" type="curve" smooth="yes"/>
      <point x="201" y="-111"/>
      <point x="171" y="-142"/>
      <point x="171" y="-180" type="curve" smooth="yes"/>
      <point x="171" y="-219"/>
      <point x="201" y="-249"/>
    </contour>
  </outline>
</glyph>
<glyph name="cedillacomb" format="2">
  <unicode hex="0327"/>
  <anchor x="436" y="0" name="_bottom"/>
  <anchor x="276" y="-180" name="bottom"/>
  <outline>
    <contour>
      <point x="204" y="-180" type="line"/>
      <point x="347" y="-180" type="line"/>
      <point x="490" y="0" type="line"/>
      <point x="382" y="0" type="line"/>
    </contour>
  </outline>
</glyph>
<glyph name="ogonekcomb" format="2">
  <unicode hex="0328"/>
  <anchor x="363" y="0" name="_ogonek"/>
  <outline>
    <contour>
      <point x="418" y="-312" type="curve"/>
      <point x="440" y="-219" type="line"/>
      <point x="389" y="-219"/>
      <point x="353" y="-195"/>
      <point x="353" y="-134" type="curve" smooth="yes"/>
      <point x="353" y="-83"/>
      <point x="376" y="-45"/>
      <point x="413" y="0" type="curve"/>
      <point x="313" y="0" type="line"/>
      <point x="275" y="-50"/>
      <point x="253" y="-100"/>
      <point x="253" y="-153" type="curve" smooth="yes"/>
      <point x="253" y="-254"/>
      <point x="331" y="-312"/>
    </contour>
  </outline>
</glyph>
<glyph name="slashshortcomb" format="2">
  <unicode hex="0337"/>
  <anchor x="278" y="300" name="_center"/>
  <outline>
    <contour>
      <point x="90" y="221" type="line"/>
      <point x="128" y="161" type="line"/>
      <point x="460" y="379" type="line"/>
      <point x="422" y="439" type="line"/>
    </contour>
  </outline>
</glyph>
<glyph name="pi" format="2">
  <advance width="720"/>
  <unicode hex="03C0"/>
  <outline>
    <contour>
      <point x="96" y="0" type="line"/>
      <point x="204" y="0" type="line"/>
      <point x="204" y="498" type="line"/>
      <point x="516" y="498" type="line"/>
      <point x="516" y="0" type="line"/>
      <point x="624" y="0" type="line"/>
      <point x="624" y="600" type="line"/>
      <point x="96" y="600" type="line"/>
    </contour>
  </outline>
</glyph>
<glyph name="baht" format="2">
  <advance width="750"/>
  <unicode hex="0E3F"/>
  <outline>
    <contour>
      <point x="328" y="-120" type="line"/>
      <point x="412" y="-120" type="line"/>
      <point x="412" y="1" type="line"/>
      <point x="594" y="16"/>
      <point x="690" y="152"/>
      <point x="690" y="287" type="curve" smooth="yes"/>
      <point x="690" y="399"/>
      <point x="623" y="492"/>
      <point x="526" y="536" type="curve"/>
      <point x="577" y="570"/>
      <point x="609" y="627"/>
      <point x="609" y="692" type="curve" smooth="yes"/>
      <point x="609" y="772"/>
      <point x="557" y="883"/>
      <point x="412" y="898" type="curve"/>
      <point x="412" y="990" type="line"/>
      <point x="328" y="990" type="line"/>
      <point x="328" y="900" type="line"/>
      <point x="126" y="900" type="line"/>
      <point x="126" y="0" type="line"/>
      <point x="328" y="0" type="line"/>
    </contour>
    <contour>
      <point x="240" y="102" type="line"/>
      <point x="240" y="480" type="line"/>
      <point x="370" y="480" type="line" smooth="yes"/>
      <point x="521" y="480"/>
      <point x="576" y="375"/>
      <point x="576" y="291" type="curve" smooth="yes"/>
      <point x="576" y="204"/>
      <point x="517" y="102"/>
      <point x="370" y="102" type="curve" smooth="yes"/>
    </contour>
    <contour>
      <point x="240" y="576" type="line"/>
      <point x="240" y="798" type="line"/>
      <point x="373" y="798" type="line" smooth="yes"/>
      <point x="448" y="798"/>
      <point x="501" y="759"/>
      <point x="501" y="686" type="curve" smooth="yes"/>
      <point x="501" y="615"/>
      <point x="448" y="576"/>
      <point x="369" y="576" type="curve" smooth="yes"/>
    </contour>
  </outline>
</glyph>
<glyph name="Germandbls" format="2">
  <advance width="970"/>
  <unicode hex="1E9E"/>
  <outline>
    <contour>
      <point x="600" y="-12" type="curve" smooth="yes"/>
      <point x="771" y="-12"/>
      <point x="910" y="122"/>
      <point x="910" y="294" type="curve" smooth="yes"/>
      <point x="910" y="442"/>
      <point x="804" y="558"/>
      <point x="671" y="585" type="curve"/>
      <point x="840" y="899" type="line"/>
      <point x="840" y="900" type="line"/>
      <point x="126" y="900" type="line"/>
      <point x="126" y="0" type="line"/>
      <point x="240" y="0" type="line"/>
      <point x="240" y="804" type="line"/>
      <point x="674" y="804" type="line"/>
      <point x="503" y="474" type="line"/>
      <point x="504" y="473" type="line"/>
      <point x="530" y="488"/>
      <point x="563" y="498"/>
      <point x="600" y="498" type="curve" smooth="yes"/>
      <point x="712" y="498"/>
      <point x="802" y="406"/>
      <point x="802" y="294" type="curve" smooth="yes"/>
      <point x="802" y="181"/>
      <point x="713" y="90"/>
      <point x="600" y="90" type="curve" smooth="yes"/>
      <point x="496" y="90"/>
      <point x="410" y="166"/>
      <point x="396" y="269" type="curve"/>
      <point x="330" y="138" type="line"/>
      <point x="385" y="45"/>
      <point x="485" y="-12"/>
    </contour>
  </outline>
</glyph>
<glyph name="quoteright" format="2">
  <advance width="270"/>
  <unicode hex="2019"/>
  <outline>
    <contour>
      <point x="6" y="600" type="curve"/>
      <point x="126" y="600" type="line"/>
      <point x="181" y="685"/>
      <point x="214" y="786"/>
      <point x="214" y="900" type="curve"/>
      <point x="106" y="900" type="line"/>
      <point x="106" y="772"/>
      <point x="66" y="674"/>
    </contour>
  </outline>
</glyph>
<glyph name="guilsinglleft" format="2">
  <advance width="360"/>
  <unicode hex="2039"/>
  <outline>
    <contour>
      <point x="198" y="120" type="line"/>
      <point x="330" y="120" type="line"/>
      <point x="138" y="300" type="line"/>
      <point x="330" y="480" type="line"/>
      <point x="198" y="480" type="line"/>
      <point x="6" y="300" type="line"/>
    </contour>
  </outline>
</glyph>
<glyph name="guilsinglright" format="2">
  <advance width="360"/>
  <unicode hex="203A"/>
  <outline>
    <contour>
      <point x="30" y="120" type="line"/>
      <point x="162" y="120" type="line"/>
      <point x="354" y="300" type="line"/>
      <point x="162" y="480" type="line"/>
      <point x="30" y="480" type="line"/>
      <point x="222" y="300" type="line"/>
    </contour>
  </outline>
</glyph>
<glyph name="commercialMinusSign" format="2">
  <advance width="750"/>
  <unicode hex="2052"/>
  <outline>
    <contour>
      <point x="106" y="0" type="line"/>
      <point x="190" y="0" type="line"/>
      <point x="644" y="900" type="line"/>
      <point x="560" y="900" type="line"/>
    </contour>
    <contour>
      <point x="165" y="582" type="curve" smooth="yes"/>
      <point x="210" y="582"/>
      <point x="243" y="616"/>
      <point x="243" y="660" type="curve" smooth="yes"/>
      <point x="243" y="704"/>
      <point x="210" y="738"/>
      <point x="165" y="738" type="curve" smooth="yes"/>
      <point x="121" y="738"/>
      <point x="87" y="704"/>
      <point x="87" y="660" type="curve" smooth="yes"/>
      <point x="87" y="616"/>
      <point x="121" y="582"/>
    </contour>
    <contour>
      <point x="585" y="162" type="curve" smooth="yes"/>
      <point x="630" y="162"/>
      <point x="663" y="196"/>
      <point x="663" y="240" type="curve" smooth="yes"/>
      <point x="663" y="284"/>
      <point x="630" y="318"/>
      <point x="585" y="318" type="curve" smooth="yes"/>
      <point x="541" y="318"/>
      <point x="507" y="284"/>
      <point x="507" y="240" type="curve" smooth="yes"/>
      <point x="507" y="196"/>
      <point x="541" y="162"/>
    </contour>
  </outline>
</glyph>
<glyph name="colonsign" format="2">
  <advance width="750"/>
  <unicode hex="20A1"/>
  <outline>
    <contour>
      <point x="248" y="-120" type="line"/>
      <point x="332" y="-120" type="line"/>
      <point x="342" y="4" type="line"/>
      <point x="371" y="-6"/>
      <point x="403" y="-12"/>
      <point x="436" y="-13" type="curve"/>
      <point x="428" y="-120" type="line"/>
      <point x="512" y="-120" type="line"/>
      <point x="521" y="-3" type="line"/>
      <point x="579" y="11"/>
      <point x="630" y="42"/>
      <point x="671" y="83" type="curve"/>
      <point x="637" y="222" type="line"/>
      <point x="596" y="144"/>
      <point x="529" y="90"/>
      <point x="440" y="90" type="curve" smooth="yes"/>
      <point x="283" y="90"/>
      <point x="193" y="273"/>
      <point x="193" y="450" type="curve" smooth="yes"/>
      <point x="193" y="627"/>
      <point x="283" y="810"/>
      <point x="440" y="810" type="curve" smooth="yes"/>
      <point x="528" y="810"/>
      <point x="596" y="756"/>
      <point x="637" y="679" type="curve"/>
      <point x="671" y="817" type="line"/>
      <point x="640" y="848"/>
      <point x="604" y="873"/>
      <point x="564" y="890" type="curve"/>
      <point x="572" y="990" type="line"/>
      <point x="488" y="990" type="line"/>
      <point x="482" y="912" type="line"/>
      <point x="451" y="915"/>
      <point x="416" y="914"/>
      <point x="386" y="909" type="curve"/>
      <point x="392" y="990" type="line"/>
      <point x="308" y="990" type="line"/>
      <point x="299" y="878" type="line"/>
      <point x="163" y="805"/>
      <point x="84" y="630"/>
      <point x="84" y="450" type="curve" smooth="yes"/>
      <point x="84" y="287"/>
      <point x="148" y="129"/>
      <point x="262" y="46" type="curve"/>
    </contour>
  </outline>
</glyph>
<glyph name="naira" format="2">
  <advance width="750"/>
  <unicode hex="20A6"/>
  <outline>
    <contour>
      <point x="622" y="-30" type="line"/>
      <point x="624" y="-30" type="line"/>
      <point x="624" y="318" type="line"/>
      <point x="720" y="318" type="line"/>
      <point x="720" y="402" type="line"/>
      <point x="624" y="402" type="line"/>
      <point x="624" y="498" type="line"/>
      <point x="720" y="498" type="line"/>
      <point x="720" y="582" type="line"/>
      <point x="624" y="582" type="line"/>
      <point x="624" y="900" type="line"/>
      <point x="522" y="900" type="line"/>
      <point x="522" y="310" type="line"/>
      <point x="128" y="930" type="line"/>
      <point x="126" y="930" type="line"/>
      <point x="126" y="582" type="line"/>
      <point x="30" y="582" type="line"/>
      <point x="30" y="498" type="line"/>
      <point x="126" y="498" type="line"/>
      <point x="126" y="402" type="line"/>
      <point x="30" y="402" type="line"/>
      <point x="30" y="318" type="line"/>
      <point x="126" y="318" type="line"/>
      <point x="126" y="0" type="line"/>
      <point x="228" y="0" type="line"/>
      <point x="228" y="590" type="line"/>
    </contour>
  </outline>
</glyph>
<glyph name="rupee" format="2">
  <advance width="750"/>
  <unicode hex="20A8"/>
  <outline>
    <contour>
      <point x="70" y="0" type="line"/>
      <point x="166" y="0" type="line"/>
      <point x="166" y="410" type="line"/>
      <point x="241" y="410" type="line"/>
      <point x="358" y="0" type="line"/>
      <point x="456" y="0" type="line"/>
      <point x="333" y="438" type="line"/>
      <point x="398" y="479"/>
      <point x="427" y="562"/>
      <point x="427" y="654" type="curve" smooth="yes"/>
      <point x="427" y="787"/>
      <point x="366" y="900"/>
      <point x="233" y="900" type="curve" smooth="yes"/>
      <point x="70" y="900" type="line"/>
    </contour>
    <contour>
      <point x="166" y="503" type="line"/>
      <point x="166" y="804" type="line"/>
      <point x="228" y="804" type="line" smooth="yes"/>
      <point x="293" y="804"/>
      <point x="331" y="750"/>
      <point x="331" y="653" type="curve" smooth="yes"/>
      <point x="331" y="557"/>
      <point x="293" y="503"/>
      <point x="228" y="503" type="curve" smooth="yes"/>
    </contour>
    <contour>
      <point x="594" y="-13" type="curve" smooth="yes"/>
      <point x="664" y="-13"/>
      <point x="716" y="57"/>
      <point x="716" y="158" type="curve" smooth="yes"/>
      <point x="716" y="324"/>
      <point x="561" y="357"/>
      <point x="561" y="452" type="curve" smooth="yes"/>
      <point x="561" y="484"/>
      <point x="577" y="514"/>
      <point x="603" y="514" type="curve" smooth="yes"/>
      <point x="631" y="514"/>
      <point x="660" y="481"/>
      <point x="678" y="423" type="curve"/>
      <point x="708" y="543" type="line"/>
      <point x="681" y="591"/>
      <point x="636" y="613"/>
      <point x="598" y="613" type="curve" smooth="yes"/>
      <point x="526" y="613"/>
      <point x="481" y="537"/>
      <point x="481" y="448" type="curve" smooth="yes"/>
      <point x="481" y="293"/>
      <point x="636" y="255"/>
      <point x="636" y="153" type="curve" smooth="yes"/>
      <point x="636" y="116"/>
      <point x="621" y="86"/>
      <point x="590" y="86" type="curve" smooth="yes"/>
      <point x="558" y="86"/>
      <point x="526" y="123"/>
      <point x="507" y="184" type="curve"/>
      <point x="476" y="62" type="line"/>
      <point x="506" y="10"/>
      <point x="553" y="-13"/>
    </contour>
  </outline>
</glyph>
<glyph name="won" format="2">
  <advance width="750"/>
  <unicode hex="20A9"/>
  <outline>
    <contour>
      <point x="228" y="-31" type="line"/>
      <point x="230" y="-31" type="line"/>
      <point x="351" y="484" type="line" smooth="yes"/>
      <point x="359" y="519"/>
      <point x="367" y="551"/>
      <point x="376" y="604" type="curve"/>
      <point x="384" y="551"/>
      <point x="392" y="518"/>
      <point x="400" y="483" type="curve" smooth="yes"/>
      <point x="520" y="-31" type="line"/>
      <point x="522" y="-31" type="line"/>
      <point x="603" y="318" type="line"/>
      <point x="720" y="318" type="line"/>
      <point x="720" y="402" type="line"/>
      <point x="623" y="402" type="line"/>
      <point x="646" y="498" type="line"/>
      <point x="720" y="498" type="line"/>
      <point x="720" y="582" type="line"/>
      <point x="666" y="582" type="line"/>
      <point x="741" y="900" type="line"/>
      <point x="652" y="900" type="line"/>
      <point x="543" y="438" type="line" smooth="yes"/>
      <point x="532" y="390"/>
      <point x="528" y="343"/>
      <point x="519" y="267" type="curve"/>
      <point x="511" y="343"/>
      <point x="505" y="390"/>
      <point x="494" y="438" type="curve" smooth="yes"/>
      <point x="378" y="930" type="line"/>
      <point x="376" y="930" type="line"/>
      <point x="261" y="438" type="line" smooth="yes"/>
      <point x="249" y="387"/>
      <point x="245" y="340"/>
      <point x="237" y="267" type="curve"/>
      <point x="228" y="340"/>
      <point x="225" y="387"/>
      <point x="213" y="438" type="curve" smooth="yes"/>
      <point x="103" y="900" type="line"/>
      <point x="9" y="900" type="line"/>
      <point x="84" y="582" type="line"/>
      <point x="30" y="582" type="line"/>
      <point x="30" y="498" type="line"/>
      <point x="104" y="498" type="line"/>
      <point x="127" y="402" type="line"/>
      <point x="30" y="402" type="line"/>
      <point x="30" y="318" type="line"/>
      <point x="147" y="318" type="line"/>
    </contour>
  </outline>
</glyph>
<glyph name="sheqel" format="2">
  <advance width="750"/>
  <unicode hex="20AA"/>
  <outline>
    <contour>
      <point x="450" y="0" type="curve" smooth="yes"/>
      <point x="690" y="0" type="line"/>
      <point x="690" y="900" type="line"/>
      <point x="600" y="900" type="line"/>
      <point x="600" y="84" type="line"/>
      <point x="466" y="84" type="line" smooth="yes"/>
      <point x="387" y="84"/>
      <point x="330" y="139"/>
      <point x="330" y="220" type="curve" smooth="yes"/>
      <point x="330" y="720" type="line"/>
      <point x="240" y="720" type="line"/>
      <point x="240" y="210" type="line" smooth="yes"/>
      <point x="240" y="84"/>
      <point x="333" y="0"/>
    </contour>
    <contour>
      <point x="60" y="0" type="line"/>
      <point x="150" y="0" type="line"/>
      <point x="150" y="816" type="line"/>
      <point x="284" y="816" type="line" smooth="yes"/>
      <point x="363" y="816"/>
      <point x="420" y="761"/>
      <point x="420" y="680" type="curve" smooth="yes"/>
      <point x="420" y="180" type="line"/>
      <point x="510" y="180" type="line"/>
      <point x="510" y="690" type="line" smooth="yes"/>
      <point x="510" y="816"/>
      <point x="417" y="900"/>
      <point x="300" y="900" type="curve" smooth="yes"/>
      <point x="60" y="900" type="line"/>
    </contour>
  </outline>
</glyph>
<glyph name="dong" format="2">
  <advance width="750"/>
  <unicode hex="20AB"/>
  <outline>
    <contour>
      <point x="353" y="112" type="curve" smooth="yes"/>
      <point x="427" y="112"/>
      <point x="493" y="141"/>
      <point x="540" y="190" type="curve"/>
      <point x="540" y="120" type="line"/>
      <point x="636" y="120" type="line"/>
      <point x="636" y="771" type="line"/>
      <point x="720" y="771" type="line"/>
      <point x="720" y="849" type="line"/>
      <point x="636" y="849" type="line"/>
      <point x="636" y="960" type="line"/>
      <point x="540" y="960" type="line"/>
      <point x="540" y="849" type="line"/>
      <point x="313" y="849" type="line"/>
      <point x="313" y="771" type="line"/>
      <point x="540" y="771" type="line"/>
      <point x="540" y="590" type="line"/>
      <point x="493" y="639"/>
      <point x="427" y="668"/>
      <point x="353" y="668" type="curve" smooth="yes"/>
      <point x="205" y="668"/>
      <point x="84" y="544"/>
      <point x="84" y="390" type="curve" smooth="yes"/>
      <point x="84" y="237"/>
      <point x="205" y="112"/>
    </contour>
    <contour>
      <point x="102" y="-42" type="line"/>
      <point x="648" y="-42" type="line"/>
      <point x="648" y="42" type="line"/>
      <point x="102" y="42" type="line"/>
    </contour>
    <contour>
      <point x="367" y="205" type="curve" smooth="yes"/>
      <point x="266" y="205"/>
      <point x="186" y="288"/>
      <point x="186" y="390" type="curve" smooth="yes"/>
      <point x="186" y="492"/>
      <point x="266" y="575"/>
      <point x="367" y="575" type="curve" smooth="yes"/>
      <point x="467" y="575"/>
      <point x="548" y="492"/>
      <point x="548" y="390" type="curve" smooth="yes"/>
      <point x="548" y="288"/>
      <point x="467" y="205"/>
    </contour>
  </outline>
</glyph>
<glyph name="euro" format="2">
  <advance width="750"/>
  <unicode hex="20AC"/>
  <outline>
    <contour>
      <point x="502" y="-12" type="curve" smooth="yes"/>
      <point x="579" y="-12"/>
      <point x="641" y="19"/>
      <point x="690" y="70" type="curve"/>
      <point x="656" y="209" type="line"/>
      <point x="623" y="139"/>
      <point x="573" y="90"/>
      <point x="502" y="90" type="curve" smooth="yes"/>
      <point x="398" y="90"/>
      <point x="338" y="195"/>
      <point x="314" y="318" type="curve"/>
      <point x="540" y="318" type="line"/>
      <point x="540" y="402" type="line"/>
      <point x="303" y="402" type="line"/>
      <point x="301" y="431"/>
      <point x="301" y="467"/>
      <point x="303" y="498" type="curve"/>
      <point x="540" y="498" type="line"/>
      <point x="540" y="582" type="line"/>
      <point x="314" y="582" type="line"/>
      <point x="338" y="705"/>
      <point x="398" y="810"/>
      <point x="502" y="810" type="curve" smooth="yes"/>
      <point x="572" y="810"/>
      <point x="623" y="761"/>
      <point x="656" y="692" type="curve"/>
      <point x="690" y="830" type="line"/>
      <point x="641" y="881"/>
      <point x="579" y="912"/>
      <point x="502" y="912" type="curve" smooth="yes"/>
      <point x="332" y="912"/>
      <point x="232" y="760"/>
      <point x="199" y="582" type="curve"/>
      <point x="90" y="582" type="line"/>
      <point x="90" y="498" type="line"/>
      <point x="189" y="498" type="line"/>
      <point x="187" y="468"/>
      <point x="187" y="432"/>
      <point x="189" y="402" type="curve"/>
      <point x="90" y="402" type="line"/>
      <point x="90" y="318" type="line"/>
      <point x="199" y="318" type="line"/>
      <point x="232" y="140"/>
      <point x="332" y="-12"/>
    </contour>
  </outline>
</glyph>
<glyph name="kip" format="2">
  <advance width="750"/>
  <unicode hex="20AD"/>
  <outline>
    <contour>
      <point x="126" y="0" type="line"/>
      <point x="240" y="0" type="line"/>
      <point x="240" y="466" type="line"/>
      <point x="265" y="425"/>
      <point x="290" y="391"/>
      <point x="314" y="360" type="curve"/>
      <point x="588" y="0" type="line"/>
      <point x="720" y="0" type="line"/>
      <point x="490" y="300" type="line" smooth="yes"/>
      <point x="454" y="346"/>
      <point x="413" y="392"/>
      <point x="364" y="438" type="curve"/>
      <point x="630" y="438" type="line"/>
      <point x="630" y="522" type="line"/>
      <point x="363" y="522" type="line"/>
      <point x="411" y="568"/>
      <point x="453" y="614"/>
      <point x="488" y="660" type="curve" smooth="yes"/>
      <point x="672" y="900" type="line"/>
      <point x="546" y="900" type="line"/>
      <point x="315" y="600" type="line" smooth="yes"/>
      <point x="291" y="569"/>
      <point x="265" y="534"/>
      <point x="240" y="493" type="curve"/>
      <point x="240" y="900" type="line"/>
      <point x="126" y="900" type="line"/>
      <point x="126" y="522" type="line"/>
      <point x="60" y="522" type="line"/>
      <point x="60" y="438" type="line"/>
      <point x="126" y="438" type="line"/>
    </contour>
  </outline>
</glyph>
<glyph name="tugrik" format="2">
  <advance width="750"/>
  <unicode hex="20AE"/>
  <outline>
    <contour>
      <point x="318" y="0" type="line"/>
      <point x="432" y="0" type="line"/>
      <point x="432" y="333" type="line"/>
      <point x="600" y="378" type="line"/>
      <point x="600" y="462" type="line"/>
      <point x="432" y="417" type="line"/>
      <point x="432" y="513" type="line"/>
      <point x="600" y="558" type="line"/>
      <point x="600" y="642" type="line"/>
      <point x="432" y="597" type="line"/>
      <point x="432" y="798" type="line"/>
      <point x="690" y="798" type="line"/>
      <point x="690" y="900" type="line"/>
      <point x="60" y="900" type="line"/>
      <point x="60" y="798" type="line"/>
      <point x="318" y="798" type="line"/>
      <point x="318" y="567" type="line"/>
      <point x="150" y="522" type="line"/>
      <point x="150" y="438" type="line"/>
      <point x="318" y="483" type="line"/>
      <point x="318" y="387" type="line"/>
      <point x="150" y="342" type="line"/>
      <point x="150" y="258" type="line"/>
      <point x="318" y="303" type="line"/>
    </contour>
  </outline>
</glyph>
<glyph name="peso" format="2">
  <advance width="750"/>
  <unicode hex="20B1"/>
  <outline>
    <contour>
      <point x="126" y="0" type="line"/>
      <point x="240" y="0" type="line"/>
      <point x="240" y="308" type="line"/>
      <point x="309" y="308" type="line" smooth="yes"/>
      <point x="468" y="308"/>
      <point x="559" y="381"/>
      <point x="601" y="468" type="curve"/>
      <point x="690" y="468" type="line"/>
      <point x="690" y="552" type="line"/>
      <point x="628" y="552" type="line"/>
      <point x="633" y="580"/>
      <point x="633" y="620"/>
      <point x="629" y="648" type="curve"/>
      <point x="690" y="648" type="line"/>
      <point x="690" y="732" type="line"/>
      <point x="605" y="732" type="line"/>
      <point x="564" y="823"/>
      <point x="473" y="900"/>
      <point x="309" y="900" type="curve" smooth="yes"/>
      <point x="126" y="900" type="line"/>
      <point x="126" y="732" type="line"/>
      <point x="60" y="732" type="line"/>
      <point x="60" y="648" type="line"/>
      <point x="126" y="648" type="line"/>
      <point x="126" y="552" type="line"/>
      <point x="60" y="552" type="line"/>
      <point x="60" y="468" type="line"/>
      <point x="126" y="468" type="line"/>
    </contour>
    <contour>
      <point x="240" y="410" type="line"/>
      <point x="240" y="798" type="line"/>
      <point x="303" y="798" type="line" smooth="yes"/>
      <point x="468" y="798"/>
      <point x="518" y="696"/>
      <point x="518" y="600" type="curve" smooth="yes"/>
      <point x="518" y="508"/>
      <point x="464" y="410"/>
      <point x="303" y="410" type="curve" smooth="yes"/>
    </contour>
  </outline>
</glyph>
<glyph name="guarani" format="2">
  <advance width="750"/>
  <unicode hex="20B2"/>
  <outline>
    <contour>
      <point x="396" y="-120" type="line"/>
      <point x="480" y="-120" type="line"/>
      <point x="480" y="-10" type="line"/>
      <point x="556" y="-1"/>
      <point x="620" y="32"/>
      <point x="672" y="81" type="curve"/>
      <point x="672" y="480" type="line"/>
      <point x="384" y="480" type="line"/>
      <point x="384" y="384" type="line"/>
      <point x="576" y="384" type="line"/>
      <point x="576" y="137" type="line"/>
      <point x="538" y="108"/>
      <point x="492" y="90"/>
      <point x="437" y="90" type="curve" smooth="yes"/>
      <point x="284" y="90"/>
      <point x="199" y="274"/>
      <point x="199" y="450" type="curve" smooth="yes"/>
      <point x="199" y="626"/>
      <point x="284" y="810"/>
      <point x="437" y="810" type="curve" smooth="yes"/>
      <point x="521" y="810"/>
      <point x="586" y="757"/>
      <point x="626" y="681" type="curve"/>
      <point x="660" y="819" type="line"/>
      <point x="611" y="868"/>
      <point x="551" y="902"/>
      <point x="480" y="911" type="curve"/>
      <point x="480" y="990" type="line"/>
      <point x="396" y="990" type="line"/>
      <point x="396" y="911" type="line"/>
      <point x="199" y="885"/>
      <point x="84" y="670"/>
      <point x="84" y="450" type="curve" smooth="yes"/>
      <point x="84" y="230"/>
      <point x="199" y="16"/>
      <point x="396" y="-10" type="curve"/>
    </contour>
  </outline>
</glyph>
<glyph name="hryvnia" format="2">
  <advance width="750"/>
  <unicode hex="20B4"/>
  <outline>
    <contour>
      <point x="60" y="492" type="line"/>
      <point x="690" y="492" type="line"/>
      <point x="690" y="582" type="line"/>
      <point x="592" y="582" type="line"/>
      <point x="598" y="600"/>
      <point x="602" y="624"/>
      <point x="602" y="647" type="curve" smooth="yes"/>
      <point x="602" y="801"/>
      <point x="483" y="912"/>
      <point x="322" y="912" type="curve" smooth="yes"/>
      <point x="240" y="912"/>
      <point x="164" y="885"/>
      <point x="106" y="838" type="curve"/>
      <point x="136" y="715" type="line"/>
      <point x="176" y="772"/>
      <point x="245" y="810"/>
      <point x="321" y="810" type="curve" smooth="yes"/>
      <point x="421" y="810"/>
      <point x="490" y="742"/>
      <point x="490" y="654" type="curve" smooth="yes"/>
      <point x="490" y="623"/>
      <point x="481" y="600"/>
      <point x="472" y="582" type="curve"/>
      <point x="60" y="582" type="line"/>
    </contour>
    <contour>
      <point x="428" y="-12" type="curve" smooth="yes"/>
      <point x="510" y="-12"/>
      <point x="586" y="15"/>
      <point x="644" y="62" type="curve"/>
      <point x="614" y="185" type="line"/>
      <point x="574" y="128"/>
      <point x="505" y="90"/>
      <point x="429" y="90" type="curve" smooth="yes"/>
      <point x="329" y="90"/>
      <point x="260" y="158"/>
      <point x="260" y="246" type="curve" smooth="yes"/>
      <point x="260" y="277"/>
      <point x="269" y="300"/>
      <point x="278" y="318" type="curve"/>
      <point x="690" y="318" type="line"/>
      <point x="690" y="408" type="line"/>
      <point x="60" y="408" type="line"/>
      <point x="60" y="318" type="line"/>
      <point x="158" y="318" type="line"/>
      <point x="152" y="300"/>
      <point x="148" y="276"/>
      <point x="148" y="253" type="curve" smooth="yes"/>
      <point x="148" y="99"/>
      <point x="267" y="-12"/>
    </contour>
  </outline>
</glyph>
<glyph name="cedi" format="2">
  <advance width="750"/>
  <unicode hex="20B5"/>
  <outline>
    <contour>
      <point x="408" y="-120" type="line"/>
      <point x="492" y="-120" type="line"/>
      <point x="492" y="-10" type="line"/>
      <point x="563" y="-1"/>
      <point x="623" y="32"/>
      <point x="672" y="81" type="curve"/>
      <point x="638" y="220" type="line"/>
      <point x="598" y="143"/>
      <point x="534" y="90"/>
      <point x="449" y="90" type="curve" smooth="yes"/>
      <point x="296" y="90"/>
      <point x="211" y="274"/>
      <point x="211" y="450" type="curve" smooth="yes"/>
      <point x="211" y="626"/>
      <point x="296" y="810"/>
      <point x="449" y="810" type="curve" smooth="yes"/>
      <point x="533" y="810"/>
      <point x="598" y="757"/>
      <point x="638" y="681" type="curve"/>
      <point x="672" y="819" type="line"/>
      <point x="623" y="868"/>
      <point x="563" y="902"/>
      <point x="492" y="911" type="curve"/>
      <point x="492" y="990" type="line"/>
      <point x="408" y="990" type="line"/>
      <point x="408" y="911" type="line"/>
      <point x="211" y="885"/>
      <point x="96" y="670"/>
      <point x="96" y="450" type="curve" smooth="yes"/>
      <point x="96" y="230"/>
      <point x="211" y="16"/>
      <point x="408" y="-10" type="curve"/>
    </contour>
  </outline>
</glyph>
<glyph name="tenge" format="2">
  <advance width="750"/>
  <unicode hex="20B8"/>
  <outline>
    <contour>
      <point x="318" y="0" type="line"/>
      <point x="432" y="0" type="line"/>
      <point x="432" y="636" type="line"/>
      <point x="690" y="636" type="line"/>
      <point x="690" y="726" type="line"/>
      <point x="60" y="726" type="line"/>
      <point x="60" y="636" type="line"/>
      <point x="318" y="636" type="line"/>
    </contour>
    <contour>
      <point x="60" y="810" type="line"/>
      <point x="690" y="810" type="line"/>
      <point x="690" y="900" type="line"/>
      <point x="60" y="900" type="line"/>
    </contour>
  </outline>
</glyph>
<glyph name="rupeeIndian" format="2">
  <advance width="750"/>
  <unicode hex="20B9"/>
  <outline>
    <contour>
      <point x="472" y="0" type="line"/>
      <point x="611" y="0" type="line"/>
      <point x="285" y="362" type="line"/>
      <point x="295" y="362" type="line"/>
      <point x="468" y="362"/>
      <point x="577" y="458"/>
      <point x="586" y="588" type="curve"/>
      <point x="690" y="588" type="line"/>
      <point x="690" y="672" type="line"/>
      <point x="586" y="672" type="line"/>
      <point x="581" y="721"/>
      <point x="551" y="784"/>
      <point x="494" y="816" type="curve"/>
      <point x="690" y="816" type="line"/>
      <point x="690" y="900" type="line"/>
      <point x="60" y="900" type="line"/>
      <point x="60" y="798" type="line"/>
      <point x="291" y="798" type="line" smooth="yes"/>
      <point x="402" y="798"/>
      <point x="466" y="750"/>
      <point x="478" y="672" type="curve"/>
      <point x="60" y="672" type="line"/>
      <point x="60" y="588" type="line"/>
      <point x="479" y="588" type="line"/>
      <point x="472" y="504"/>
      <point x="406" y="452"/>
      <point x="291" y="452" type="curve" smooth="yes"/>
      <point x="69" y="452" type="line"/>
      <point x="69" y="450" type="line"/>
    </contour>
  </outline>
</glyph>
<glyph name="liraTurkish" format="2">
  <advance width="750"/>
  <unicode hex="20BA"/>
  <outline>
    <contour>
      <point x="186" y="0" type="line"/>
      <point x="421" y="0" type="line" smooth="yes"/>
      <point x="576" y="0"/>
      <point x="696" y="122"/>
      <point x="696" y="272" type="curve" smooth="yes"/>
      <point x="696" y="315"/>
      <point x="687" y="355"/>
      <point x="671" y="390" type="curve"/>
      <point x="549" y="390" type="line"/>
      <point x="577" y="358"/>
      <point x="594" y="315"/>
      <point x="594" y="270" type="curve" smooth="yes"/>
      <point x="594" y="167"/>
      <point x="512" y="86"/>
      <point x="410" y="86" type="curve" smooth="yes"/>
      <point x="294" y="86" type="line"/>
      <point x="294" y="400" type="line"/>
      <point x="510" y="458" type="line"/>
      <point x="510" y="542" type="line"/>
      <point x="294" y="484" type="line"/>
      <point x="294" y="580" type="line"/>
      <point x="510" y="638" type="line"/>
      <point x="510" y="722" type="line"/>
      <point x="294" y="664" type="line"/>
      <point x="294" y="900" type="line"/>
      <point x="186" y="900" type="line"/>
      <point x="186" y="636" type="line"/>
      <point x="60" y="602" type="line"/>
      <point x="60" y="518" type="line"/>
      <point x="186" y="552" type="line"/>
      <point x="186" y="456" type="line"/>
      <point x="60" y="422" type="line"/>
      <point x="60" y="338" type="line"/>
      <point x="186" y="372" type="line"/>
    </contour>
  </outline>
</glyph>
<glyph name="manat" format="2">
  <advance width="750"/>
  <unicode hex="20BC"/>
  <outline>
    <contour>
      <point x="84" y="0" type="line"/>
      <point x="184" y="0" type="line"/>
      <point x="184" y="507" type="line" smooth="yes"/>
      <point x="184" y="614"/>
      <point x="243" y="681"/>
      <point x="327" y="694" type="curve"/>
      <point x="327" y="60" type="line"/>
      <point x="423" y="60" type="line"/>
      <point x="423" y="694" type="line"/>
      <point x="507" y="681"/>
      <point x="566" y="614"/>
      <point x="566" y="507" type="curve" smooth="yes"/>
      <point x="566" y="0" type="line"/>
      <point x="666" y="0" type="line"/>
      <point x="666" y="505" type="line" smooth="yes"/>
      <point x="666" y="668"/>
      <point x="566" y="778"/>
      <point x="423" y="791" type="curve"/>
      <point x="423" y="960" type="line"/>
      <point x="327" y="960" type="line"/>
      <point x="327" y="791" type="line"/>
      <point x="184" y="778"/>
      <point x="84" y="668"/>
      <point x="84" y="505" type="curve" smooth="yes"/>
    </contour>
  </outline>
</glyph>
<glyph name="ruble" format="2">
  <advance width="750"/>
  <unicode hex="20BD"/>
  <outline>
    <contour>
      <point x="168" y="0" type="line"/>
      <point x="282" y="0" type="line"/>
      <point x="282" y="138" type="line"/>
      <point x="510" y="138" type="line"/>
      <point x="510" y="222" type="line"/>
      <point x="282" y="222" type="line"/>
      <point x="282" y="318" type="line"/>
      <point x="379" y="318" type="line" smooth="yes"/>
      <point x="617" y="318"/>
      <point x="702" y="481"/>
      <point x="702" y="609" type="curve" smooth="yes"/>
      <point x="702" y="739"/>
      <point x="616" y="900"/>
      <point x="379" y="900" type="curve" smooth="yes"/>
      <point x="168" y="900" type="line"/>
      <point x="168" y="402" type="line"/>
      <point x="60" y="402" type="line"/>
      <point x="60" y="318" type="line"/>
      <point x="168" y="318" type="line"/>
      <point x="168" y="222" type="line"/>
      <point x="60" y="222" type="line"/>
      <point x="60" y="138" type="line"/>
      <point x="168" y="138" type="line"/>
    </contour>
    <contour>
      <point x="282" y="420" type="line"/>
      <point x="282" y="798" type="line"/>
      <point x="373" y="798" type="line" smooth="yes"/>
      <point x="538" y="798"/>
      <point x="588" y="697"/>
      <point x="588" y="609" type="curve" smooth="yes"/>
      <point x="588" y="517"/>
      <point x="534" y="420"/>
      <point x="373" y="420" type="curve" smooth="yes"/>
    </contour>
  </outline>
</glyph>
<glyph name="lari" format="2">
  <advance width="750"/>
  <unicode hex="20BE"/>
  <outline>
    <contour>
      <point x="84" y="0" type="line"/>
      <point x="666" y="0" type="line"/>
      <point x="666" y="90" type="line"/>
      <point x="479" y="90" type="line" smooth="yes"/>
      <point x="318" y="90"/>
      <point x="197" y="256"/>
      <point x="197" y="497" type="curve" smooth="yes"/>
      <point x="197" y="692"/>
      <point x="280" y="810"/>
      <point x="389" y="810" type="curve" smooth="yes"/>
      <point x="494" y="810"/>
      <point x="560" y="724"/>
      <point x="560" y="603" type="curve" smooth="yes"/>
      <point x="560" y="578"/>
      <point x="557" y="556"/>
      <point x="551" y="534" type="curve"/>
      <point x="659" y="534" type="line"/>
      <point x="663" y="554"/>
      <point x="666" y="575"/>
      <point x="666" y="606" type="curve" smooth="yes"/>
      <point x="666" y="732"/>
      <point x="603" y="838"/>
      <point x="507" y="885" type="curve"/>
      <point x="507" y="990" type="line"/>
      <point x="423" y="990" type="line"/>
      <point x="423" y="910" type="line"/>
      <point x="393" y="914"/>
      <point x="358" y="912"/>
      <point x="327" y="905" type="curve"/>
      <point x="327" y="990" type="line"/>
      <point x="243" y="990" type="line"/>
      <point x="243" y="866" type="line"/>
      <point x="148" y="801"/>
      <point x="85" y="668"/>
      <point x="85" y="496" type="curve" smooth="yes"/>
      <point x="85" y="307"/>
      <point x="148" y="165"/>
      <point x="262" y="90" type="curve"/>
      <point x="84" y="90" type="line"/>
    </contour>
  </outline>
</glyph>
<glyph name="bitcoin" format="2">
  <advance width="750"/>
  <unicode hex="20BF"/>
  <outline>
    <contour>
      <point x="213" y="-120" type="line"/>
      <point x="297" y="-120" type="line"/>
      <point x="297" y="0" type="line"/>
      <point x="329" y="0"/>
      <point x="361" y="0"/>
      <point x="393" y="0" type="curve"/>
      <point x="393" y="-120" type="line"/>
      <point x="477" y="-120" type="line"/>
      <point x="477" y="13" type="line"/>
      <point x="617" y="51"/>
      <point x="690" y="169"/>
      <point x="690" y="287" type="curve" smooth="yes"/>
      <point x="690" y="399"/>
      <point x="623" y="492"/>
      <point x="526" y="536" type="curve"/>
      <point x="577" y="570"/>
      <point x="609" y="627"/>
      <point x="609" y="692" type="curve" smooth="yes"/>
      <point x="609" y="761"/>
      <point x="570" y="854"/>
      <point x="465" y="887" type="curve"/>
      <point x="465" y="990" type="line"/>
      <point x="381" y="990" type="line"/>
      <point x="381" y="900" type="line"/>
      <point x="349" y="900"/>
      <point x="317" y="900"/>
      <point x="285" y="900" type="curve"/>
      <point x="285" y="990" type="line"/>
      <point x="201" y="990" type="line"/>
      <point x="201" y="900" type="line"/>
      <point x="126" y="900" type="line"/>
      <point x="126" y="0" type="line"/>
      <point x="213" y="0" type="line"/>
    </contour>
    <contour>
      <point x="240" y="102" type="line"/>
      <point x="240" y="480" type="line"/>
      <point x="370" y="480" type="line" smooth="yes"/>
      <point x="521" y="480"/>
      <point x="576" y="375"/>
      <point x="576" y="291" type="curve" smooth="yes"/>
      <point x="576" y="204"/>
      <point x="517" y="102"/>
      <point x="370" y="102" type="curve" smooth="yes"/>
    </contour>
    <contour>
      <point x="240" y="576" type="line"/>
      <point x="240" y="798" type="line"/>
      <point x="373" y="798" type="line" smooth="yes"/>
      <point x="448" y="798"/>
      <point x="501" y="759"/>
      <point x="501" y="686" type="curve" smooth="yes"/>
      <point x="501" y="615"/>
      <point x="448" y="576"/>
      <point x="369" y="576" type="curve" smooth="yes"/>
    </contour>
  </outline>
</glyph>
<glyph name="literSign" format="2">
  <advance width="600"/>
  <unicode hex="2113"/>
  <outline>
    <contour>
      <point x="378" y="-12" type="curve" smooth="yes"/>
      <point x="439" y="-12"/>
      <point x="496" y="5"/>
      <point x="531" y="37" type="curve"/>
      <point x="506" y="140" type="line"/>
      <point x="466" y="98"/>
      <point x="428" y="84"/>
      <point x="388" y="84" type="curve" smooth="yes"/>
      <point x="318" y="84"/>
      <point x="274" y="135"/>
      <point x="274" y="216" type="curve" smooth="yes"/>
      <point x="274" y="366" type="line"/>
      <point x="423" y="443"/>
      <point x="540" y="599"/>
      <point x="540" y="765" type="curve" smooth="yes"/>
      <point x="540" y="896"/>
      <point x="467" y="972"/>
      <point x="368" y="972" type="curve" smooth="yes"/>
      <point x="253" y="972"/>
      <point x="166" y="871"/>
      <point x="166" y="703" type="curve" smooth="yes"/>
      <point x="166" y="423" type="line"/>
      <point x="132" y="413"/>
      <point x="97" y="408"/>
      <point x="60" y="408" type="curve"/>
      <point x="60" y="318" type="line"/>
      <point x="96" y="318"/>
      <point x="131" y="323"/>
      <point x="166" y="331" type="curve"/>
      <point x="166" y="208" type="line" smooth="yes"/>
      <point x="166" y="74"/>
      <point x="249" y="-12"/>
    </contour>
    <contour>
      <point x="274" y="471" type="curve"/>
      <point x="274" y="706" type="line" smooth="yes"/>
      <point x="274" y="812"/>
      <point x="312" y="874"/>
      <point x="369" y="874" type="curve" smooth="yes"/>
      <point x="412" y="874"/>
      <point x="444" y="834"/>
      <point x="444" y="764" type="curve" smooth="yes"/>
      <point x="444" y="650"/>
      <point x="375" y="536"/>
    </contour>
  </outline>
</glyph>
<glyph name="trademark" format="2">
  <advance width="840"/>
  <unicode hex="2122"/>
  <outline>
    <contour>
      <point x="396" y="540" type="line"/>
      <point x="474" y="540" type="line"/>
      <point x="474" y="624" type="line" smooth="yes"/>
      <point x="474" y="656"/>
      <point x="474" y="677"/>
      <point x="473" y="695" type="curve"/>
      <point x="481" y="684"/>
      <point x="491" y="670"/>
      <point x="507" y="649" type="curve" smooth="yes"/>
      <point x="586" y="546" type="line"/>
      <point x="666" y="650" type="line" smooth="yes"/>
      <point x="680" y="668"/>
      <point x="689" y="681"/>
      <point x="697" y="691" type="curve"/>
      <point x="696" y="674"/>
      <point x="696" y="653"/>
      <point x="696" y="624" type="curve" smooth="yes"/>
      <point x="696" y="540" type="line"/>
      <point x="780" y="540" type="line"/>
      <point x="780" y="933" type="line"/>
      <point x="779" y="933" type="line"/>
      <point x="588" y="667" type="line"/>
      <point x="397" y="930" type="line"/>
      <point x="396" y="930" type="line"/>
    </contour>
    <contour>
      <point x="138" y="540" type="line"/>
      <point x="222" y="540" type="line"/>
      <point x="222" y="822" type="line"/>
      <point x="324" y="822" type="line"/>
      <point x="324" y="900" type="line"/>
      <point x="36" y="900" type="line"/>
      <point x="36" y="822" type="line"/>
      <point x="138" y="822" type="line"/>
    </contour>
  </outline>
</glyph>
<glyph name="Ohm" format="2">
  <advance width="1060"/>
  <unicode hex="2126"/>
  <outline>
    <contour>
      <point x="60" y="0" type="line"/>
      <point x="430" y="0" type="line"/>
      <point x="314" y="168" type="line" smooth="yes"/>
      <point x="233" y="285"/>
      <point x="207" y="376"/>
      <point x="207" y="468" type="curve" smooth="yes"/>
      <point x="207" y="666"/>
      <point x="344" y="811"/>
      <point x="530" y="811" type="curve" smooth="yes"/>
      <point x="716" y="811"/>
      <point x="853" y="666"/>
      <point x="853" y="468" type="curve" smooth="yes"/>
      <point x="853" y="376"/>
      <point x="827" y="285"/>
      <point x="746" y="168" type="curve" smooth="yes"/>
      <point x="630" y="0" type="line"/>
      <point x="1000" y="0" type="line"/>
      <point x="1000" y="102" type="line"/>
      <point x="816" y="102" type="line"/>
      <point x="908" y="218"/>
      <point x="969" y="351"/>
      <point x="969" y="477" type="curve" smooth="yes"/>
      <point x="969" y="723"/>
      <point x="774" y="918"/>
      <point x="530" y="918" type="curve" smooth="yes"/>
      <point x="286" y="918"/>
      <point x="91" y="723"/>
      <point x="91" y="477" type="curve" smooth="yes"/>
      <point x="91" y="351"/>
      <point x="152" y="218"/>
      <point x="244" y="102" type="curve"/>
      <point x="60" y="102" type="line"/>
    </contour>
  </outline>
</glyph>
<glyph name="estimated" format="2">
  <advance width="1260"/>
  <unicode hex="212E"/>
  <outline>
    <contour>
      <point x="630" y="-102" type="curve" smooth="yes"/>
      <point x="851" y="-102"/>
      <point x="1042" y="25"/>
      <point x="1133" y="210" type="curve"/>
      <point x="1025" y="210" type="line"/>
      <point x="944" y="77"/>
      <point x="797" y="-12"/>
      <point x="630" y="-12" type="curve" smooth="yes"/>
      <point x="466" y="-12"/>
      <point x="322" y="74"/>
      <point x="240" y="202" type="curve"/>
      <point x="240" y="405" type="line"/>
      <point x="1186" y="405" type="line"/>
      <point x="1187" y="420"/>
      <point x="1188" y="435"/>
      <point x="1188" y="450" type="curve" smooth="yes"/>
      <point x="1188" y="755"/>
      <point x="938" y="1002"/>
      <point x="630" y="1002" type="curve" smooth="yes"/>
      <point x="322" y="1002"/>
      <point x="72" y="755"/>
      <point x="72" y="450" type="curve" smooth="yes"/>
      <point x="72" y="145"/>
      <point x="322" y="-102"/>
    </contour>
    <contour>
      <point x="240" y="495" type="line"/>
      <point x="240" y="698" type="line"/>
      <point x="322" y="826"/>
      <point x="466" y="912"/>
      <point x="630" y="912" type="curve" smooth="yes"/>
      <point x="794" y="912"/>
      <point x="938" y="826"/>
      <point x="1020" y="698" type="curve"/>
      <point x="1020" y="495" type="line"/>
    </contour>
  </outline>
</glyph>
<glyph name="el" format="2">
  <advance width="750"/>
  <unicode hex="218B"/>
  <outline>
    <contour>
      <point x="147" y="0" type="line"/>
      <point x="649" y="0" type="line"/>
      <point x="649" y="102" type="line"/>
      <point x="314" y="102" type="line"/>
      <point x="501" y="460" type="line"/>
      <point x="500" y="461" type="line"/>
      <point x="477" y="451"/>
      <point x="449" y="446"/>
      <point x="419" y="446" type="curve" smooth="yes"/>
      <point x="318" y="446"/>
      <point x="238" y="526"/>
      <point x="238" y="628" type="curve" smooth="yes"/>
      <point x="238" y="730"/>
      <point x="318" y="810"/>
      <point x="419" y="810" type="curve" smooth="yes"/>
      <point x="506" y="810"/>
      <point x="584" y="750"/>
      <point x="603" y="663" type="curve"/>
      <point x="666" y="784" type="line"/>
      <point x="610" y="866"/>
      <point x="519" y="912"/>
      <point x="422" y="912" type="curve" smooth="yes"/>
      <point x="261" y="912"/>
      <point x="130" y="788"/>
      <point x="130" y="627" type="curve" smooth="yes"/>
      <point x="130" y="496"/>
      <point x="221" y="387"/>
      <point x="340" y="360" type="curve"/>
      <point x="147" y="2" type="line"/>
    </contour>
  </outline>
</glyph>
<glyph name="leftArrow" format="2">
  <advance width="1440"/>
  <unicode hex="2190"/>
  <outline>
    <contour>
      <point x="509" y="60" type="line"/>
      <point x="674" y="60" type="line"/>
      <point x="452" y="222" type="line" smooth="yes"/>
      <point x="407" y="255"/>
      <point x="361" y="288"/>
      <point x="298" y="321" type="curve"/>
      <point x="369" y="314"/>
      <point x="452" y="312"/>
      <point x="596" y="312" type="curve" smooth="yes"/>
      <point x="1260" y="312" type="line"/>
      <point x="1260" y="408" type="line"/>
      <point x="598" y="408" type="line" smooth="yes"/>
      <point x="452" y="408"/>
      <point x="369" y="406"/>
      <point x="298" y="399" type="curve"/>
      <point x="361" y="432"/>
      <point x="407" y="465"/>
      <point x="452" y="498" type="curve" smooth="yes"/>
      <point x="675" y="660" type="line"/>
      <point x="510" y="660" type="line"/>
      <point x="96" y="360" type="line"/>
    </contour>
  </outline>
</glyph>
<glyph name="upDownArrow" format="2">
  <advance width="1440"/>
  <unicode hex="2195"/>
  <outline>
    <contour>
      <point x="720" y="-264" type="line"/>
      <point x="960" y="66" type="line"/>
      <point x="960" y="219" type="line"/>
      <point x="858" y="80" type="line" smooth="yes"/>
      <point x="825" y="34"/>
      <point x="792" y="-11"/>
      <point x="759" y="-74" type="curve"/>
      <point x="766" y="-3"/>
      <point x="768" y="80"/>
      <point x="768" y="224" type="curve" smooth="yes"/>
      <point x="768" y="496" type="line" smooth="yes"/>
      <point x="768" y="640"/>
      <point x="766" y="723"/>
      <point x="759" y="794" type="curve"/>
      <point x="792" y="731"/>
      <point x="825" y="686"/>
      <point x="858" y="640" type="curve" smooth="yes"/>
      <point x="960" y="501" type="line"/>
      <point x="960" y="654" type="line"/>
      <point x="720" y="984" type="line"/>
      <point x="480" y="653" type="line"/>
      <point x="480" y="500" type="line"/>
      <point x="582" y="640" type="line" smooth="yes"/>
      <point x="615" y="686"/>
      <point x="648" y="731"/>
      <point x="681" y="794" type="curve"/>
      <point x="674" y="723"/>
      <point x="672" y="640"/>
      <point x="672" y="494" type="curve" smooth="yes"/>
      <point x="672" y="226" type="line" smooth="yes"/>
      <point x="672" y="80"/>
      <point x="674" y="-3"/>
      <point x="681" y="-74" type="curve"/>
      <point x="648" y="-11"/>
      <point x="615" y="34"/>
      <point x="582" y="80" type="curve" smooth="yes"/>
      <point x="480" y="220" type="line"/>
      <point x="480" y="67" type="line"/>
    </contour>
  </outline>
</glyph>
<glyph name="southEastArrow" format="2">
  <advance width="1440"/>
  <unicode hex="2198"/>
  <outline>
    <contour>
      <point x="1104" y="-69" type="line"/>
      <point x="1023" y="436" type="line"/>
      <point x="906" y="553" type="line"/>
      <point x="949" y="281" type="line" smooth="yes"/>
      <point x="958" y="226"/>
      <point x="967" y="170"/>
      <point x="988" y="102" type="curve"/>
      <point x="943" y="157"/>
      <point x="886" y="217"/>
      <point x="783" y="320" type="curve" smooth="yes"/>
      <point x="313" y="789" type="line"/>
      <point x="246" y="722" type="line"/>
      <point x="716" y="251" type="line" smooth="yes"/>
      <point x="818" y="149"/>
      <point x="878" y="92"/>
      <point x="933" y="47" type="curve"/>
      <point x="865" y="68"/>
      <point x="809" y="77"/>
      <point x="754" y="86" type="curve" smooth="yes"/>
      <point x="483" y="128" type="line"/>
      <point x="599" y="11" type="line"/>
    </contour>
  </outline>
</glyph>
<glyph name="partialdiff" format="2">
  <advance width="740"/>
  <unicode hex="2202"/>
  <outline>
    <contour>
      <point x="371" y="-12" type="curve" smooth="yes"/>
      <point x="547" y="-12"/>
      <point x="686" y="124"/>
      <point x="686" y="310" type="curve" smooth="yes"/>
      <point x="686" y="397"/>
      <point x="657" y="485"/>
      <point x="589" y="591" type="curve" smooth="yes"/>
      <point x="524" y="691"/>
      <point x="378" y="871"/>
      <point x="301" y="960" type="curve"/>
      <point x="178" y="960" type="line"/>
      <point x="258" y="866"/>
      <point x="457" y="622"/>
      <point x="505" y="552" type="curve"/>
      <point x="462" y="590"/>
      <point x="409" y="606"/>
      <point x="350" y="606" type="curve" smooth="yes"/>
      <point x="187" y="606"/>
      <point x="54" y="470"/>
      <point x="54" y="301" type="curve" smooth="yes"/>
      <point x="54" y="127"/>
      <point x="194" y="-12"/>
    </contour>
    <contour>
      <point x="369" y="90" type="curve" smooth="yes"/>
      <point x="254" y="90"/>
      <point x="162" y="185"/>
      <point x="162" y="301" type="curve" smooth="yes"/>
      <point x="162" y="416"/>
      <point x="254" y="510"/>
      <point x="369" y="510" type="curve" smooth="yes"/>
      <point x="485" y="510"/>
      <point x="578" y="416"/>
      <point x="578" y="301" type="curve" smooth="yes"/>
      <point x="578" y="185"/>
      <point x="485" y="90"/>
    </contour>
  </outline>
</glyph>
<glyph name="emptyset" format="2">
  <advance width="750"/>
  <unicode hex="2205"/>
  <outline>
    <contour>
      <point x="375" y="138" type="curve" smooth="yes"/>
      <point x="550" y="138"/>
      <point x="691" y="277"/>
      <point x="691" y="450" type="curve" smooth="yes"/>
      <point x="691" y="521"/>
      <point x="667" y="586"/>
      <point x="627" y="638" type="curve"/>
      <point x="705" y="716" type="line"/>
      <point x="641" y="780" type="line"/>
      <point x="563" y="702" type="line"/>
      <point x="510" y="740"/>
      <point x="445" y="762"/>
      <point x="375" y="762" type="curve" smooth="yes"/>
      <point x="200" y="762"/>
      <point x="59" y="623"/>
      <point x="59" y="450" type="curve" smooth="yes"/>
      <point x="59" y="379"/>
      <point x="83" y="314"/>
      <point x="123" y="262" type="curve"/>
      <point x="45" y="184" type="line"/>
      <point x="109" y="120" type="line"/>
      <point x="187" y="198" type="line"/>
      <point x="240" y="160"/>
      <point x="305" y="138"/>
    </contour>
    <contour>
      <point x="375" y="234" type="curve" smooth="yes"/>
      <point x="331" y="234"/>
      <point x="290" y="247"/>
      <point x="256" y="271" type="curve"/>
      <point x="554" y="569" type="line"/>
      <point x="576" y="535"/>
      <point x="589" y="494"/>
      <point x="589" y="450" type="curve" smooth="yes"/>
      <point x="589" y="331"/>
      <point x="493" y="234"/>
    </contour>
    <contour>
      <point x="196" y="331" type="line"/>
      <point x="174" y="365"/>
      <point x="161" y="406"/>
      <point x="161" y="450" type="curve" smooth="yes"/>
      <point x="161" y="569"/>
      <point x="256" y="666"/>
      <point x="375" y="666" type="curve" smooth="yes"/>
      <point x="419" y="666"/>
      <point x="460" y="652"/>
      <point x="494" y="629" type="curve"/>
    </contour>
  </outline>
</glyph>
<glyph name="increment" format="2">
  <advance width="800"/>
  <unicode hex="2206"/>
  <outline>
    <contour>
      <point x="18" y="0" type="line"/>
      <point x="782" y="0" type="line"/>
      <point x="401" y="930" type="line"/>
      <point x="399" y="930" type="line"/>
    </contour>
    <contour>
      <point x="171" y="95" type="line"/>
      <point x="349" y="540" type="line" smooth="yes"/>
      <point x="367" y="585"/>
      <point x="381" y="624"/>
      <point x="397" y="686" type="curve"/>
      <point x="413" y="624"/>
      <point x="428" y="585"/>
      <point x="446" y="540" type="curve" smooth="yes"/>
      <point x="623" y="95" type="line"/>
    </contour>
  </outline>
</glyph>
<glyph name="product" format="2">
  <advance width="800"/>
  <unicode hex="220F"/>
  <outline>
    <contour>
      <point x="126" y="-120" type="line"/>
      <point x="240" y="-120" type="line"/>
      <point x="240" y="798" type="line"/>
      <point x="560" y="798" type="line"/>
      <point x="560" y="-120" type="line"/>
      <point x="674" y="-120" type="line"/>
      <point x="674" y="900" type="line"/>
      <point x="126" y="900" type="line"/>
    </contour>
  </outline>
</glyph>
<glyph name="summation" format="2">
  <advance width="740"/>
  <unicode hex="2211"/>
  <outline>
    <contour>
      <point x="42" y="-120" type="line"/>
      <point x="680" y="-120" type="line"/>
      <point x="680" y="-18" type="line"/>
      <point x="232" y="-18" type="line"/>
      <point x="515" y="413" type="line"/>
      <point x="262" y="798" type="line"/>
      <point x="656" y="798" type="line"/>
      <point x="656" y="900" type="line"/>
      <point x="72" y="900" type="line"/>
      <point x="72" y="898" type="line"/>
      <point x="392" y="413" type="line"/>
      <point x="42" y="-118" type="line"/>
    </contour>
  </outline>
</glyph>
<glyph name="radical" format="2">
  <advance width="750"/>
  <unicode hex="221A"/>
  <outline>
    <contour>
      <point x="435" y="-149" type="line"/>
      <point x="437" y="-149" type="line"/>
      <point x="774" y="960" type="line"/>
      <point x="678" y="960" type="line"/>
      <point x="450" y="210" type="line" smooth="yes"/>
      <point x="439" y="174"/>
      <point x="427" y="132"/>
      <point x="417" y="93" type="curve"/>
      <point x="403" y="131"/>
      <point x="387" y="170"/>
      <point x="371" y="204" type="curve" smooth="yes"/>
      <point x="231" y="495" type="line"/>
      <point x="60" y="495" type="line"/>
      <point x="60" y="405" type="line"/>
      <point x="165" y="405" type="line"/>
    </contour>
  </outline>
</glyph>
<glyph name="infinity" format="2">
  <advance width="1140"/>
  <unicode hex="221E"/>
  <outline>
    <contour>
      <point x="306" y="138" type="curve" smooth="yes"/>
      <point x="404" y="138"/>
      <point x="483" y="201"/>
      <point x="570" y="361" type="curve"/>
      <point x="657" y="201"/>
      <point x="736" y="138"/>
      <point x="834" y="138" type="curve" smooth="yes"/>
      <point x="969" y="138"/>
      <point x="1068" y="270"/>
      <point x="1068" y="450" type="curve" smooth="yes"/>
      <point x="1068" y="630"/>
      <point x="969" y="762"/>
      <point x="834" y="762" type="curve" smooth="yes"/>
      <point x="736" y="762"/>
      <point x="657" y="699"/>
      <point x="570" y="539" type="curve"/>
      <point x="483" y="699"/>
      <point x="404" y="762"/>
      <point x="306" y="762" type="curve" smooth="yes"/>
      <point x="171" y="762"/>
      <point x="72" y="630"/>
      <point x="72" y="450" type="curve" smooth="yes"/>
      <point x="72" y="270"/>
      <point x="171" y="138"/>
    </contour>
    <contour>
      <point x="308" y="237" type="curve" smooth="yes"/>
      <point x="230" y="237"/>
      <point x="174" y="326"/>
      <point x="174" y="450" type="curve" smooth="yes"/>
      <point x="174" y="574"/>
      <point x="230" y="663"/>
      <point x="308" y="663" type="curve" smooth="yes"/>
      <point x="375" y="663"/>
      <point x="428" y="609"/>
      <point x="515" y="450" type="curve"/>
      <point x="428" y="291"/>
      <point x="375" y="237"/>
    </contour>
    <contour>
      <point x="832" y="237" type="curve" smooth="yes"/>
      <point x="765" y="237"/>
      <point x="712" y="291"/>
      <point x="625" y="450" type="curve"/>
      <point x="712" y="609"/>
      <point x="765" y="663"/>
      <point x="832" y="663" type="curve" smooth="yes"/>
      <point x="910" y="663"/>
      <point x="966" y="574"/>
      <point x="966" y="450" type="curve" smooth="yes"/>
      <point x="966" y="326"/>
      <point x="910" y="237"/>
    </contour>
  </outline>
</glyph>
<glyph name="integral" format="2">
  <advance width="600"/>
  <unicode hex="222B"/>
  <outline>
    <contour>
      <point x="152" y="-192" type="curve" smooth="yes"/>
      <point x="259" y="-192"/>
      <point x="348" y="-120"/>
      <point x="348" y="14" type="curve" smooth="yes"/>
      <point x="348" y="764" type="line" smooth="yes"/>
      <point x="348" y="855"/>
      <point x="397" y="882"/>
      <point x="445" y="882" type="curve" smooth="yes"/>
      <point x="481" y="882"/>
      <point x="515" y="867"/>
      <point x="543" y="836" type="curve"/>
      <point x="569" y="941" type="line"/>
      <point x="532" y="964"/>
      <point x="488" y="972"/>
      <point x="448" y="972" type="curve" smooth="yes"/>
      <point x="341" y="972"/>
      <point x="252" y="900"/>
      <point x="252" y="766" type="curve" smooth="yes"/>
      <point x="252" y="16" type="line" smooth="yes"/>
      <point x="252" y="-75"/>
      <point x="203" y="-102"/>
      <point x="155" y="-102" type="curve" smooth="yes"/>
      <point x="119" y="-102"/>
      <point x="85" y="-87"/>
      <point x="57" y="-56" type="curve"/>
      <point x="31" y="-161" type="line"/>
      <point x="68" y="-184"/>
      <point x="112" y="-192"/>
    </contour>
  </outline>
</glyph>
<glyph name="notequal" format="2">
  <advance width="750"/>
  <unicode hex="2260"/>
  <outline>
    <contour>
      <point x="183" y="150" type="line"/>
      <point x="275" y="150" type="line"/>
      <point x="344" y="291" type="line"/>
      <point x="660" y="291" type="line"/>
      <point x="660" y="381" type="line"/>
      <point x="387" y="381" type="line"/>
      <point x="455" y="519" type="line"/>
      <point x="660" y="519" type="line"/>
      <point x="660" y="609" type="line"/>
      <point x="498" y="609" type="line"/>
      <point x="567" y="750" type="line"/>
      <point x="475" y="750" type="line"/>
      <point x="406" y="609" type="line"/>
      <point x="90" y="609" type="line"/>
      <point x="90" y="519" type="line"/>
      <point x="363" y="519" type="line"/>
      <point x="295" y="381" type="line"/>
      <point x="90" y="381" type="line"/>
      <point x="90" y="291" type="line"/>
      <point x="252" y="291" type="line"/>
    </contour>
  </outline>
</glyph>
<glyph name="greaterequal" format="2">
  <advance width="750"/>
  <unicode hex="2265"/>
  <outline>
    <contour>
      <point x="90" y="218" type="line"/>
      <point x="690" y="511" type="line"/>
      <point x="690" y="513" type="line"/>
      <point x="90" y="804" type="line"/>
      <point x="90" y="706" type="line"/>
      <point x="390" y="562" type="line" smooth="yes"/>
      <point x="427" y="544"/>
      <point x="470" y="527"/>
      <point x="511" y="511" type="curve"/>
      <point x="470" y="494"/>
      <point x="427" y="477"/>
      <point x="390" y="459" type="curve" smooth="yes"/>
      <point x="90" y="314" type="line"/>
    </contour>
    <contour>
      <point x="90" y="77" type="line"/>
      <point x="660" y="77" type="line"/>
      <point x="660" y="163" type="line"/>
      <point x="90" y="163" type="line"/>
    </contour>
  </outline>
</glyph>
<glyph name="whiteSquare" format="2">
  <advance width="1440"/>
  <unicode hex="25A1"/>
  <outline>
    <contour>
      <point x="240" y="-120" type="line"/>
      <point x="1200" y="-120" type="line"/>
      <point x="1200" y="840" type="line"/>
      <point x="240" y="840" type="line"/>
    </contour>
    <contour>
      <point x="324" y="-36" type="line"/>
      <point x="324" y="756" type="line"/>
      <point x="1116" y="756" type="line"/>
      <point x="1116" y="-36" type="line"/>
    </contour>
  </outline>
</glyph>
<glyph name="blackSmallSquare" format="2">
  <advance width="600"/>
  <unicode hex="25AA"/>
  <outline>
    <contour>
      <point x="90" y="150" type="line"/>
      <point x="510" y="150" type="line"/>
      <point x="510" y="570" type="line"/>
      <point x="90" y="570" type="line"/>
    </contour>
  </outline>
</glyph>
<glyph name="upWhiteTriangle" format="2">
  <advance width="1440"/>
  <unicode hex="25B3"/>
  <outline>
    <contour>
      <point x="124" y="-120" type="line"/>
      <point x="1316" y="-120" type="line"/>
      <point x="720" y="912" type="line"/>
    </contour>
    <contour>
      <point x="268" y="-36" type="line"/>
      <point x="720" y="743" type="line"/>
      <point x="1172" y="-36" type="line"/>
    </contour>
  </outline>
</glyph>
<glyph name="downBlackTriangle" format="2">
  <advance width="1440"/>
  <unicode hex="25BC"/>
  <outline>
    <contour>
      <point x="720" y="-192" type="line"/>
      <point x="1317" y="840" type="line"/>
      <point x="123" y="840" type="line"/>
    </contour>
  </outline>
</glyph>
<glyph name="leftBlackSmallTriangle" format="2">
  <advance width="600"/>
  <unicode hex="25C2"/>
  <outline>
    <contour>
      <point x="498" y="75" type="line"/>
      <point x="498" y="645" type="line"/>
      <point x="6" y="360" type="line"/>
    </contour>
  </outline>
</glyph>
<glyph name="lozenge" format="2">
  <advance width="600"/>
  <unicode hex="25CA"/>
  <outline>
    <contour>
      <point x="300" y="-132" type="line"/>
      <point x="585" y="360" type="line"/>
      <point x="300" y="852" type="line"/>
      <point x="15" y="360" type="line"/>
    </contour>
    <contour>
      <point x="300" y="24" type="line"/>
      <point x="103" y="360" type="line"/>
      <point x="300" y="696" type="line"/>
      <point x="497" y="360" type="line"/>
    </contour>
  </outline>
</glyph>
<glyph name="fi" format="2">
  <advance width="760"/>
  <unicode hex="FB01"/>
  <outline>
    <contour>
      <point x="166" y="0" type="line"/>
      <point x="274" y="0" type="line"/>
      <point x="274" y="510" type="line"/>
      <point x="556" y="510" type="line"/>
      <point x="556" y="0" type="line"/>
      <point x="664" y="0" type="line"/>
      <point x="664" y="600" type="line"/>
      <point x="271" y="600" type="line"/>
      <point x="271" y="711" type="line" smooth="yes"/>
      <point x="271" y="819"/>
      <point x="339" y="876"/>
      <point x="429" y="876" type="curve" smooth="yes"/>
      <point x="490" y="876"/>
      <point x="541" y="849"/>
      <point x="575" y="806" type="curve"/>
      <point x="603" y="919" type="line"/>
      <point x="556" y="954"/>
      <point x="496" y="972"/>
      <point x="430" y="972" type="curve" smooth="yes"/>
      <point x="291" y="972"/>
      <point x="169" y="880"/>
      <point x="169" y="716" type="curve" smooth="yes"/>
      <point x="169" y="600" type="line"/>
      <point x="30" y="600" type="line"/>
      <point x="30" y="510" type="line"/>
      <point x="166" y="510" type="line"/>
    </contour>
  </outline>
</glyph>
<glyph name="A.ring" format="2">
  <advance width="800"/>
  <anchor x="400" y="900" name="top"/>
  <outline>
    <contour>
      <point x="18" y="0" type="line"/>
      <point x="133" y="0" type="line"/>
      <point x="240" y="267" type="line"/>
      <point x="555" y="267" type="line"/>
      <point x="661" y="0" type="line"/>
      <point x="782" y="0" type="line"/>
      <point x="412" y="900" type="line"/>
      <point x="388" y="900" type="line"/>
    </contour>
    <contour>
      <point x="278" y="362" type="line"/>
      <point x="349" y="540" type="line" smooth="yes"/>
      <point x="367" y="586"/>
      <point x="381" y="624"/>
      <point x="397" y="686" type="curve"/>
      <point x="413" y="624"/>
      <point x="428" y="585"/>
      <point x="446" y="540" type="curve" smooth="yes"/>
      <point x="517" y="362" type="line"/>
    </contour>
  </outline>
</glyph>
<glyph name="acutecomb.narrow" format="2">
  <anchor x="298" y="600" name="_top"/>
  <anchor x="330" y="870" name="top"/>
  <outline>
    <contour>
      <point x="252" y="690" type="line"/>
      <point x="343" y="690" type="line"/>
      <point x="438" y="870" type="line"/>
      <point x="312" y="870" type="line"/>
    </contour>
  </outline>
</glyph>
<glyph name="aogonek.ss02" format="2">
  <advance width="690"/>
  <outline>
    <contour>
      <point x="611" y="-312" type="curve"/>
      <point x="633" y="-219" type="line"/>
      <point x="582" y="-219"/>
      <point x="546" y="-195"/>
      <point x="546" y="-134" type="curve" smooth="yes"/>
      <point x="546" y="-83"/>
      <point x="569" y="-45"/>
      <point x="606" y="0" type="curve"/>
      <point x="606" y="368" type="line" smooth="yes"/>
      <point x="606" y="517"/>
      <point x="489" y="608"/>
      <point x="328" y="608" type="curve" smooth="yes"/>
      <point x="237" y="608"/>
      <point x="159" y="579"/>
      <point x="102" y="541" type="curve"/>
      <point x="130" y="429" type="line"/>
      <point x="175" y="478"/>
      <point x="242" y="512"/>
      <point x="323" y="512" type="curve" smooth="yes"/>
      <point x="443" y="512"/>
      <point x="506" y="437"/>
      <point x="506" y="348" type="curve" smooth="yes"/>
      <point x="506" y="330" type="line"/>
      <point x="452" y="361"/>
      <point x="387" y="378"/>
      <point x="314" y="378" type="curve" smooth="yes"/>
      <point x="165" y="378"/>
      <point x="54" y="306"/>
      <point x="54" y="184" type="curve" smooth="yes"/>
      <point x="54" y="69"/>
      <point x="153" y="-8"/>
      <point x="284" y="-8" type="curve" smooth="yes"/>
      <point x="372" y="-8"/>
      <point x="452" y="27"/>
      <point x="506" y="100" type="curve"/>
      <point x="506" y="0" type="line"/>
      <point x="468" y="-50"/>
      <point x="446" y="-100"/>
      <point x="446" y="-153" type="curve" smooth="yes"/>
      <point x="446" y="-254"/>
      <point x="524" y="-312"/>
    </contour>
    <contour>
      <point x="294" y="82" type="curve" smooth="yes"/>
      <point x="208" y="82"/>
      <point x="162" y="128"/>
      <point x="162" y="184" type="curve" smooth="yes"/>
      <point x="162" y="251"/>
      <point x="228" y="288"/>
      <point x="321" y="288" type="curve" smooth="yes"/>
      <point x="384" y="288"/>
      <point x="453" y="271"/>
      <point x="506" y="246" type="curve"/>
      <point x="494" y="146"/>
      <point x="396" y="82"/>
    </contour>
  </outline>
</glyph>
<glyph name="at.ss02" format="2">
  <advance width="1260"/>
  <outline>
    <contour>
      <point x="651" y="-192" type="curve" smooth="yes"/>
      <point x="773" y="-192"/>
      <point x="888" y="-155"/>
      <point x="984" y="-86" type="curve"/>
      <point x="958" y="14" type="line"/>
      <point x="872" y="-63"/>
      <point x="767" y="-102"/>
      <point x="649" y="-102" type="curve" smooth="yes"/>
      <point x="382" y="-102"/>
      <point x="174" y="99"/>
      <point x="174" y="357" type="curve" smooth="yes"/>
      <point x="174" y="618"/>
      <point x="384" y="822"/>
      <point x="653" y="822" type="curve" smooth="yes"/>
      <point x="911" y="822"/>
      <point x="1098" y="638"/>
      <point x="1098" y="386" type="curve" smooth="yes"/>
      <point x="1098" y="252"/>
      <point x="1044" y="160"/>
      <point x="966" y="160" type="curve" smooth="yes"/>
      <point x="917" y="160"/>
      <point x="883" y="196"/>
      <point x="883" y="248" type="curve" smooth="yes"/>
      <point x="883" y="421" type="line" smooth="yes"/>
      <point x="883" y="551"/>
      <point x="783" y="638"/>
      <point x="632" y="638" type="curve" smooth="yes"/>
      <point x="559" y="638"/>
      <point x="488" y="617"/>
      <point x="428" y="578" type="curve"/>
      <point x="453" y="476" type="line"/>
      <point x="498" y="522"/>
      <point x="560" y="548"/>
      <point x="628" y="548" type="curve" smooth="yes"/>
      <point x="728" y="548"/>
      <point x="793" y="491"/>
      <point x="793" y="403" type="curve" smooth="yes"/>
      <point x="793" y="387" type="line"/>
      <point x="742" y="416"/>
      <point x="683" y="430"/>
      <point x="617" y="430" type="curve" smooth="yes"/>
      <point x="475" y="430"/>
      <point x="380" y="360"/>
      <point x="380" y="255" type="curve" smooth="yes"/>
      <point x="380" y="154"/>
      <point x="467" y="82"/>
      <point x="590" y="82" type="curve" smooth="yes"/>
      <point x="677" y="82"/>
      <point x="753" y="117"/>
      <point x="802" y="180" type="curve"/>
      <point x="824" y="120"/>
      <point x="883" y="82"/>
      <point x="953" y="82" type="curve" smooth="yes"/>
      <point x="1092" y="82"/>
      <point x="1194" y="216"/>
      <point x="1194" y="398" type="curve" smooth="yes"/>
      <point x="1194" y="688"/>
      <point x="957" y="912"/>
      <point x="652" y="912" type="curve" smooth="yes"/>
      <point x="333" y="912"/>
      <point x="78" y="665"/>
      <point x="78" y="357" type="curve" smooth="yes"/>
      <point x="78" y="51"/>
      <point x="331" y="-192"/>
    </contour>
    <contour>
      <point x="601" y="166" type="curve" smooth="yes"/>
      <point x="530" y="166"/>
      <point x="482" y="202"/>
      <point x="482" y="255" type="curve" smooth="yes"/>
      <point x="482" y="311"/>
      <point x="537" y="346"/>
      <point x="626" y="346" type="curve" smooth="yes"/>
      <point x="680" y="346"/>
      <point x="742" y="332"/>
      <point x="793" y="309" type="curve"/>
      <point x="783" y="228"/>
      <point x="700" y="166"/>
    </contour>
  </outline>
</glyph>
<glyph name="blackBullet" format="2">
  <advance width="600"/>
  <outline>
    <contour>
      <point x="300" y="132" type="curve" smooth="yes"/>
      <point x="426" y="132"/>
      <point x="528" y="234"/>
      <point x="528" y="360" type="curve" smooth="yes"/>
      <point x="528" y="486"/>
      <point x="426" y="588"/>
      <point x="300" y="588" type="curve" smooth="yes"/>
      <point x="174" y="588"/>
      <point x="72" y="486"/>
      <point x="72" y="360" type="curve" smooth="yes"/>
      <point x="72" y="234"/>
      <point x="174" y="132"/>
    </contour>
  </outline>
</glyph>
<glyph name="brevecomb_tildecomb" format="2">
  <anchor x="360" y="600" name="_top"/>
  <anchor x="360" y="1020" name="top"/>
  <outline>
    <contour>
      <point x="360" y="675" type="curve" smooth="yes"/>
      <point x="461" y="675"/>
      <point x="540" y="749"/>
      <point x="540" y="849" type="curve"/>
      <point x="456" y="849" type="line"/>
      <point x="456" y="796"/>
      <point x="411" y="753"/>
      <point x="360" y="753" type="curve" smooth="yes"/>
      <point x="309" y="753"/>
      <point x="264" y="796"/>
      <point x="264" y="849" type="curve"/>
      <point x="180" y="849" type="line"/>
      <point x="180" y="750"/>
      <point x="260" y="675"/>
    </contour>
    <contour>
      <point x="212" y="892" type="line"/>
      <point x="228" y="931"/>
      <point x="253" y="953"/>
      <point x="289" y="953" type="curve" smooth="yes"/>
      <point x="335" y="953"/>
      <point x="382" y="910"/>
      <point x="436" y="910" type="curve" smooth="yes"/>
      <point x="478" y="910"/>
      <point x="512" y="932"/>
      <point x="534" y="975" type="curve"/>
      <point x="508" y="1048" type="line"/>
      <point x="492" y="1010"/>
      <point x="467" y="987"/>
      <point x="431" y="987" type="curve" smooth="yes"/>
      <point x="385" y="987"/>
      <point x="338" y="1031"/>
      <point x="284" y="1031" type="curve" smooth="yes"/>
      <point x="242" y="1031"/>
      <point x="208" y="1008"/>
      <point x="186" y="965" type="curve"/>
    </contour>
  </outline>
</glyph>
<glyph name="caroncomb.alt" format="2">
  <anchor x="239" y="960" name="_topright"/>
  <outline>
    <contour>
      <point x="265" y="660" type="curve"/>
      <point x="373" y="660" type="line"/>
      <point x="428" y="745"/>
      <point x="461" y="845"/>
      <point x="461" y="960" type="curve"/>
      <point x="365" y="960" type="line"/>
      <point x="365" y="832"/>
      <point x="325" y="734"/>
    </contour>
  </outline>
</glyph>
<glyph name="caroncomb.alt.t" format="2">
  <anchor x="239" y="960" name="_topright"/>
  <outline>
    <contour>
      <point x="265" y="720" type="curve"/>
      <point x="373" y="720" type="line"/>
      <point x="418" y="790"/>
      <point x="449" y="870"/>
      <point x="458" y="960" type="curve"/>
      <point x="362" y="960" type="line"/>
      <point x="352" y="861"/>
      <point x="315" y="782"/>
    </contour>
  </outline>
</glyph>
